M48
; DRILL file {KiCad 8.0.3} date 2024-08-31T16:40:09+0100
; FORMAT={-:-/ absolute / inch / decimal}
; #@! TF.CreationDate,2024-08-31T16:40:09+01:00
; #@! TF.GenerationSoftware,Kicad,Pcbnew,8.0.3
; #@! TF.FileFunction,Plated,1,2,PTH
FMAT,2
INCH
; #@! TA.AperFunction,Plated,PTH,ComponentDrill
T1C0.0315
; #@! TA.AperFunction,Plated,PTH,ComponentDrill
T2C0.0402
; #@! TA.AperFunction,Plated,PTH,ComponentDrill
T3C0.0591
%
G90
G05
T1
X1.7142Y-3.2717
X1.7165Y-2.5157
X1.7181Y-3.9961
X2.0142Y-3.2717
X2.0165Y-2.5157
X2.0181Y-3.9961
X2.4642Y-3.2717
X2.4642Y-4.0039
X2.4665Y-2.5157
X2.7642Y-3.2717
X2.7642Y-4.0039
X2.7665Y-2.5157
X3.2142Y-3.2717
X3.2165Y-2.5157
X3.2264Y-3.9961
X3.5142Y-3.2717
X3.5165Y-2.5157
X3.5264Y-3.9961
T2
X2.2685Y-1.8984
X2.2685Y-1.9984
X2.2685Y-2.0984
X2.2685Y-2.1984
X2.2685Y-2.2984
X2.2685Y-2.3984
X2.2685Y-2.4984
X2.2685Y-2.5984
X2.2685Y-2.6984
X2.2685Y-2.7984
X2.2685Y-2.8984
X2.2685Y-2.9984
X2.2685Y-3.0984
X2.2685Y-3.1984
X2.2685Y-3.2984
X2.2685Y-3.3984
X2.2685Y-3.4984
X2.2685Y-3.5984
X2.2685Y-3.6984
X2.2685Y-3.7984
X2.9685Y-1.8984
X2.9685Y-1.9984
X2.9685Y-2.0984
X2.9685Y-2.1984
X2.9685Y-2.2984
X2.9685Y-2.3984
X2.9685Y-2.4984
X2.9685Y-2.5984
X2.9685Y-2.6984
X2.9685Y-2.7984
X2.9685Y-2.8984
X2.9685Y-2.9984
X2.9685Y-3.0984
X2.9685Y-3.1984
X2.9685Y-3.2984
X2.9685Y-3.3984
X2.9685Y-3.4984
X2.9685Y-3.5984
X2.9685Y-3.6984
X2.9685Y-3.7984
T3
X1.7185Y-2.0685
X1.7185Y-2.8185
X1.7185Y-3.5685
X1.9685Y-1.9685
X1.9685Y-2.7185
X1.9685Y-3.4685
X2.4685Y-2.0685
X2.4685Y-2.8185
X2.4685Y-3.5685
X2.7185Y-1.9685
X2.7185Y-2.7185
X2.7185Y-3.4685
X3.2185Y-2.0685
X3.2185Y-2.8185
X3.2185Y-3.5685
X3.4685Y-1.9685
X3.4685Y-2.7185
X3.4685Y-3.4685
M30
