%TF.GenerationSoftware,KiCad,Pcbnew,8.0.3*%
%TF.CreationDate,2024-08-31T16:40:24+01:00*%
%TF.ProjectId,macropad,6d616372-6f70-4616-942e-6b696361645f,rev?*%
%TF.SameCoordinates,Original*%
%TF.FileFunction,Drillmap*%
%TF.FilePolarity,Positive*%
%FSLAX45Y45*%
G04 Gerber Fmt 4.5, Leading zero omitted, Abs format (unit mm)*
G04 Created by KiCad (PCBNEW 8.0.3) date 2024-08-31 16:40:24*
%MOMM*%
%LPD*%
G01*
G04 APERTURE LIST*
%ADD10C,0.050000*%
%ADD11C,0.200000*%
%ADD12C,0.400000*%
G04 APERTURE END LIST*
D10*
X3760000Y-4520000D02*
X9560000Y-4520000D01*
X9560000Y-10320000D01*
X3760000Y-10320000D01*
X3760000Y-4520000D01*
D11*
D12*
X4546000Y-5308000D02*
X4946000Y-5708000D01*
X4946000Y-5308000D02*
X4546000Y-5708000D01*
X4546000Y-7213000D02*
X4946000Y-7613000D01*
X4946000Y-7213000D02*
X4546000Y-7613000D01*
X4546000Y-9118000D02*
X4946000Y-9518000D01*
X4946000Y-9118000D02*
X4546000Y-9518000D01*
X6451000Y-5308000D02*
X6851000Y-5708000D01*
X6851000Y-5308000D02*
X6451000Y-5708000D01*
X6451000Y-7213000D02*
X6851000Y-7613000D01*
X6851000Y-7213000D02*
X6451000Y-7613000D01*
X6451000Y-9118000D02*
X6851000Y-9518000D01*
X6851000Y-9118000D02*
X6451000Y-9518000D01*
X8356000Y-5308000D02*
X8756000Y-5708000D01*
X8756000Y-5308000D02*
X8356000Y-5708000D01*
X8356000Y-7213000D02*
X8756000Y-7613000D01*
X8756000Y-7213000D02*
X8356000Y-7613000D01*
X8356000Y-9118000D02*
X8756000Y-9518000D01*
X8756000Y-9118000D02*
X8356000Y-9518000D01*
D11*
X4018277Y-10633984D02*
X4018277Y-10433984D01*
X4018277Y-10433984D02*
X4065896Y-10433984D01*
X4065896Y-10433984D02*
X4094467Y-10443508D01*
X4094467Y-10443508D02*
X4113515Y-10462555D01*
X4113515Y-10462555D02*
X4123039Y-10481603D01*
X4123039Y-10481603D02*
X4132562Y-10519698D01*
X4132562Y-10519698D02*
X4132562Y-10548270D01*
X4132562Y-10548270D02*
X4123039Y-10586365D01*
X4123039Y-10586365D02*
X4113515Y-10605412D01*
X4113515Y-10605412D02*
X4094467Y-10624460D01*
X4094467Y-10624460D02*
X4065896Y-10633984D01*
X4065896Y-10633984D02*
X4018277Y-10633984D01*
X4218277Y-10633984D02*
X4218277Y-10500650D01*
X4218277Y-10538746D02*
X4227801Y-10519698D01*
X4227801Y-10519698D02*
X4237324Y-10510174D01*
X4237324Y-10510174D02*
X4256372Y-10500650D01*
X4256372Y-10500650D02*
X4275420Y-10500650D01*
X4342086Y-10633984D02*
X4342086Y-10500650D01*
X4342086Y-10433984D02*
X4332563Y-10443508D01*
X4332563Y-10443508D02*
X4342086Y-10453031D01*
X4342086Y-10453031D02*
X4351610Y-10443508D01*
X4351610Y-10443508D02*
X4342086Y-10433984D01*
X4342086Y-10433984D02*
X4342086Y-10453031D01*
X4465896Y-10633984D02*
X4446848Y-10624460D01*
X4446848Y-10624460D02*
X4437324Y-10605412D01*
X4437324Y-10605412D02*
X4437324Y-10433984D01*
X4570658Y-10633984D02*
X4551610Y-10624460D01*
X4551610Y-10624460D02*
X4542086Y-10605412D01*
X4542086Y-10605412D02*
X4542086Y-10433984D01*
X4799229Y-10633984D02*
X4799229Y-10433984D01*
X4799229Y-10433984D02*
X4865896Y-10576841D01*
X4865896Y-10576841D02*
X4932563Y-10433984D01*
X4932563Y-10433984D02*
X4932563Y-10633984D01*
X5113515Y-10633984D02*
X5113515Y-10529222D01*
X5113515Y-10529222D02*
X5103991Y-10510174D01*
X5103991Y-10510174D02*
X5084944Y-10500650D01*
X5084944Y-10500650D02*
X5046848Y-10500650D01*
X5046848Y-10500650D02*
X5027801Y-10510174D01*
X5113515Y-10624460D02*
X5094467Y-10633984D01*
X5094467Y-10633984D02*
X5046848Y-10633984D01*
X5046848Y-10633984D02*
X5027801Y-10624460D01*
X5027801Y-10624460D02*
X5018277Y-10605412D01*
X5018277Y-10605412D02*
X5018277Y-10586365D01*
X5018277Y-10586365D02*
X5027801Y-10567317D01*
X5027801Y-10567317D02*
X5046848Y-10557793D01*
X5046848Y-10557793D02*
X5094467Y-10557793D01*
X5094467Y-10557793D02*
X5113515Y-10548270D01*
X5208753Y-10500650D02*
X5208753Y-10700650D01*
X5208753Y-10510174D02*
X5227801Y-10500650D01*
X5227801Y-10500650D02*
X5265896Y-10500650D01*
X5265896Y-10500650D02*
X5284944Y-10510174D01*
X5284944Y-10510174D02*
X5294467Y-10519698D01*
X5294467Y-10519698D02*
X5303991Y-10538746D01*
X5303991Y-10538746D02*
X5303991Y-10595889D01*
X5303991Y-10595889D02*
X5294467Y-10614936D01*
X5294467Y-10614936D02*
X5284944Y-10624460D01*
X5284944Y-10624460D02*
X5265896Y-10633984D01*
X5265896Y-10633984D02*
X5227801Y-10633984D01*
X5227801Y-10633984D02*
X5208753Y-10624460D01*
X5389705Y-10614936D02*
X5399229Y-10624460D01*
X5399229Y-10624460D02*
X5389705Y-10633984D01*
X5389705Y-10633984D02*
X5380182Y-10624460D01*
X5380182Y-10624460D02*
X5389705Y-10614936D01*
X5389705Y-10614936D02*
X5389705Y-10633984D01*
X5389705Y-10510174D02*
X5399229Y-10519698D01*
X5399229Y-10519698D02*
X5389705Y-10529222D01*
X5389705Y-10529222D02*
X5380182Y-10519698D01*
X5380182Y-10519698D02*
X5389705Y-10510174D01*
X5389705Y-10510174D02*
X5389705Y-10529222D01*
X3557500Y-10862500D02*
X3757500Y-11062500D01*
X3757500Y-10862500D02*
X3557500Y-11062500D01*
X4103991Y-10920650D02*
X4103991Y-11053984D01*
X4056372Y-10844460D02*
X4008753Y-10987317D01*
X4008753Y-10987317D02*
X4132562Y-10987317D01*
X4208753Y-11034936D02*
X4218277Y-11044460D01*
X4218277Y-11044460D02*
X4208753Y-11053984D01*
X4208753Y-11053984D02*
X4199229Y-11044460D01*
X4199229Y-11044460D02*
X4208753Y-11034936D01*
X4208753Y-11034936D02*
X4208753Y-11053984D01*
X4342086Y-10853984D02*
X4361134Y-10853984D01*
X4361134Y-10853984D02*
X4380182Y-10863508D01*
X4380182Y-10863508D02*
X4389705Y-10873031D01*
X4389705Y-10873031D02*
X4399229Y-10892079D01*
X4399229Y-10892079D02*
X4408753Y-10930174D01*
X4408753Y-10930174D02*
X4408753Y-10977793D01*
X4408753Y-10977793D02*
X4399229Y-11015889D01*
X4399229Y-11015889D02*
X4389705Y-11034936D01*
X4389705Y-11034936D02*
X4380182Y-11044460D01*
X4380182Y-11044460D02*
X4361134Y-11053984D01*
X4361134Y-11053984D02*
X4342086Y-11053984D01*
X4342086Y-11053984D02*
X4323039Y-11044460D01*
X4323039Y-11044460D02*
X4313515Y-11034936D01*
X4313515Y-11034936D02*
X4303991Y-11015889D01*
X4303991Y-11015889D02*
X4294467Y-10977793D01*
X4294467Y-10977793D02*
X4294467Y-10930174D01*
X4294467Y-10930174D02*
X4303991Y-10892079D01*
X4303991Y-10892079D02*
X4313515Y-10873031D01*
X4313515Y-10873031D02*
X4323039Y-10863508D01*
X4323039Y-10863508D02*
X4342086Y-10853984D01*
X4532563Y-10853984D02*
X4551610Y-10853984D01*
X4551610Y-10853984D02*
X4570658Y-10863508D01*
X4570658Y-10863508D02*
X4580182Y-10873031D01*
X4580182Y-10873031D02*
X4589705Y-10892079D01*
X4589705Y-10892079D02*
X4599229Y-10930174D01*
X4599229Y-10930174D02*
X4599229Y-10977793D01*
X4599229Y-10977793D02*
X4589705Y-11015889D01*
X4589705Y-11015889D02*
X4580182Y-11034936D01*
X4580182Y-11034936D02*
X4570658Y-11044460D01*
X4570658Y-11044460D02*
X4551610Y-11053984D01*
X4551610Y-11053984D02*
X4532563Y-11053984D01*
X4532563Y-11053984D02*
X4513515Y-11044460D01*
X4513515Y-11044460D02*
X4503991Y-11034936D01*
X4503991Y-11034936D02*
X4494467Y-11015889D01*
X4494467Y-11015889D02*
X4484944Y-10977793D01*
X4484944Y-10977793D02*
X4484944Y-10930174D01*
X4484944Y-10930174D02*
X4494467Y-10892079D01*
X4494467Y-10892079D02*
X4503991Y-10873031D01*
X4503991Y-10873031D02*
X4513515Y-10863508D01*
X4513515Y-10863508D02*
X4532563Y-10853984D01*
X4723039Y-10853984D02*
X4742086Y-10853984D01*
X4742086Y-10853984D02*
X4761134Y-10863508D01*
X4761134Y-10863508D02*
X4770658Y-10873031D01*
X4770658Y-10873031D02*
X4780182Y-10892079D01*
X4780182Y-10892079D02*
X4789705Y-10930174D01*
X4789705Y-10930174D02*
X4789705Y-10977793D01*
X4789705Y-10977793D02*
X4780182Y-11015889D01*
X4780182Y-11015889D02*
X4770658Y-11034936D01*
X4770658Y-11034936D02*
X4761134Y-11044460D01*
X4761134Y-11044460D02*
X4742086Y-11053984D01*
X4742086Y-11053984D02*
X4723039Y-11053984D01*
X4723039Y-11053984D02*
X4703991Y-11044460D01*
X4703991Y-11044460D02*
X4694467Y-11034936D01*
X4694467Y-11034936D02*
X4684944Y-11015889D01*
X4684944Y-11015889D02*
X4675420Y-10977793D01*
X4675420Y-10977793D02*
X4675420Y-10930174D01*
X4675420Y-10930174D02*
X4684944Y-10892079D01*
X4684944Y-10892079D02*
X4694467Y-10873031D01*
X4694467Y-10873031D02*
X4703991Y-10863508D01*
X4703991Y-10863508D02*
X4723039Y-10853984D01*
X4875420Y-11053984D02*
X4875420Y-10920650D01*
X4875420Y-10939698D02*
X4884944Y-10930174D01*
X4884944Y-10930174D02*
X4903991Y-10920650D01*
X4903991Y-10920650D02*
X4932563Y-10920650D01*
X4932563Y-10920650D02*
X4951610Y-10930174D01*
X4951610Y-10930174D02*
X4961134Y-10949222D01*
X4961134Y-10949222D02*
X4961134Y-11053984D01*
X4961134Y-10949222D02*
X4970658Y-10930174D01*
X4970658Y-10930174D02*
X4989705Y-10920650D01*
X4989705Y-10920650D02*
X5018277Y-10920650D01*
X5018277Y-10920650D02*
X5037325Y-10930174D01*
X5037325Y-10930174D02*
X5046848Y-10949222D01*
X5046848Y-10949222D02*
X5046848Y-11053984D01*
X5142086Y-11053984D02*
X5142086Y-10920650D01*
X5142086Y-10939698D02*
X5151610Y-10930174D01*
X5151610Y-10930174D02*
X5170658Y-10920650D01*
X5170658Y-10920650D02*
X5199229Y-10920650D01*
X5199229Y-10920650D02*
X5218277Y-10930174D01*
X5218277Y-10930174D02*
X5227801Y-10949222D01*
X5227801Y-10949222D02*
X5227801Y-11053984D01*
X5227801Y-10949222D02*
X5237325Y-10930174D01*
X5237325Y-10930174D02*
X5256372Y-10920650D01*
X5256372Y-10920650D02*
X5284944Y-10920650D01*
X5284944Y-10920650D02*
X5303991Y-10930174D01*
X5303991Y-10930174D02*
X5313515Y-10949222D01*
X5313515Y-10949222D02*
X5313515Y-11053984D01*
X5703991Y-10844460D02*
X5532563Y-11101603D01*
X5961134Y-10853984D02*
X5980182Y-10853984D01*
X5980182Y-10853984D02*
X5999229Y-10863508D01*
X5999229Y-10863508D02*
X6008753Y-10873031D01*
X6008753Y-10873031D02*
X6018277Y-10892079D01*
X6018277Y-10892079D02*
X6027801Y-10930174D01*
X6027801Y-10930174D02*
X6027801Y-10977793D01*
X6027801Y-10977793D02*
X6018277Y-11015889D01*
X6018277Y-11015889D02*
X6008753Y-11034936D01*
X6008753Y-11034936D02*
X5999229Y-11044460D01*
X5999229Y-11044460D02*
X5980182Y-11053984D01*
X5980182Y-11053984D02*
X5961134Y-11053984D01*
X5961134Y-11053984D02*
X5942086Y-11044460D01*
X5942086Y-11044460D02*
X5932563Y-11034936D01*
X5932563Y-11034936D02*
X5923039Y-11015889D01*
X5923039Y-11015889D02*
X5913515Y-10977793D01*
X5913515Y-10977793D02*
X5913515Y-10930174D01*
X5913515Y-10930174D02*
X5923039Y-10892079D01*
X5923039Y-10892079D02*
X5932563Y-10873031D01*
X5932563Y-10873031D02*
X5942086Y-10863508D01*
X5942086Y-10863508D02*
X5961134Y-10853984D01*
X6113515Y-11034936D02*
X6123039Y-11044460D01*
X6123039Y-11044460D02*
X6113515Y-11053984D01*
X6113515Y-11053984D02*
X6103991Y-11044460D01*
X6103991Y-11044460D02*
X6113515Y-11034936D01*
X6113515Y-11034936D02*
X6113515Y-11053984D01*
X6313515Y-11053984D02*
X6199229Y-11053984D01*
X6256372Y-11053984D02*
X6256372Y-10853984D01*
X6256372Y-10853984D02*
X6237325Y-10882555D01*
X6237325Y-10882555D02*
X6218277Y-10901603D01*
X6218277Y-10901603D02*
X6199229Y-10911127D01*
X6494467Y-10853984D02*
X6399229Y-10853984D01*
X6399229Y-10853984D02*
X6389706Y-10949222D01*
X6389706Y-10949222D02*
X6399229Y-10939698D01*
X6399229Y-10939698D02*
X6418277Y-10930174D01*
X6418277Y-10930174D02*
X6465896Y-10930174D01*
X6465896Y-10930174D02*
X6484944Y-10939698D01*
X6484944Y-10939698D02*
X6494467Y-10949222D01*
X6494467Y-10949222D02*
X6503991Y-10968270D01*
X6503991Y-10968270D02*
X6503991Y-11015889D01*
X6503991Y-11015889D02*
X6494467Y-11034936D01*
X6494467Y-11034936D02*
X6484944Y-11044460D01*
X6484944Y-11044460D02*
X6465896Y-11053984D01*
X6465896Y-11053984D02*
X6418277Y-11053984D01*
X6418277Y-11053984D02*
X6399229Y-11044460D01*
X6399229Y-11044460D02*
X6389706Y-11034936D01*
X6570658Y-10853984D02*
X6703991Y-10853984D01*
X6703991Y-10853984D02*
X6618277Y-11053984D01*
X6875420Y-10853984D02*
X6780182Y-10853984D01*
X6780182Y-10853984D02*
X6770658Y-10949222D01*
X6770658Y-10949222D02*
X6780182Y-10939698D01*
X6780182Y-10939698D02*
X6799229Y-10930174D01*
X6799229Y-10930174D02*
X6846848Y-10930174D01*
X6846848Y-10930174D02*
X6865896Y-10939698D01*
X6865896Y-10939698D02*
X6875420Y-10949222D01*
X6875420Y-10949222D02*
X6884944Y-10968270D01*
X6884944Y-10968270D02*
X6884944Y-11015889D01*
X6884944Y-11015889D02*
X6875420Y-11034936D01*
X6875420Y-11034936D02*
X6865896Y-11044460D01*
X6865896Y-11044460D02*
X6846848Y-11053984D01*
X6846848Y-11053984D02*
X6799229Y-11053984D01*
X6799229Y-11053984D02*
X6780182Y-11044460D01*
X6780182Y-11044460D02*
X6770658Y-11034936D01*
X6961134Y-10853984D02*
X6961134Y-10892079D01*
X7037325Y-10853984D02*
X7037325Y-10892079D01*
X7332563Y-11130174D02*
X7323039Y-11120650D01*
X7323039Y-11120650D02*
X7303991Y-11092079D01*
X7303991Y-11092079D02*
X7294468Y-11073031D01*
X7294468Y-11073031D02*
X7284944Y-11044460D01*
X7284944Y-11044460D02*
X7275420Y-10996841D01*
X7275420Y-10996841D02*
X7275420Y-10958746D01*
X7275420Y-10958746D02*
X7284944Y-10911127D01*
X7284944Y-10911127D02*
X7294468Y-10882555D01*
X7294468Y-10882555D02*
X7303991Y-10863508D01*
X7303991Y-10863508D02*
X7323039Y-10834936D01*
X7323039Y-10834936D02*
X7332563Y-10825412D01*
X7418277Y-11053984D02*
X7456372Y-11053984D01*
X7456372Y-11053984D02*
X7475420Y-11044460D01*
X7475420Y-11044460D02*
X7484944Y-11034936D01*
X7484944Y-11034936D02*
X7503991Y-11006365D01*
X7503991Y-11006365D02*
X7513515Y-10968270D01*
X7513515Y-10968270D02*
X7513515Y-10892079D01*
X7513515Y-10892079D02*
X7503991Y-10873031D01*
X7503991Y-10873031D02*
X7494468Y-10863508D01*
X7494468Y-10863508D02*
X7475420Y-10853984D01*
X7475420Y-10853984D02*
X7437325Y-10853984D01*
X7437325Y-10853984D02*
X7418277Y-10863508D01*
X7418277Y-10863508D02*
X7408753Y-10873031D01*
X7408753Y-10873031D02*
X7399229Y-10892079D01*
X7399229Y-10892079D02*
X7399229Y-10939698D01*
X7399229Y-10939698D02*
X7408753Y-10958746D01*
X7408753Y-10958746D02*
X7418277Y-10968270D01*
X7418277Y-10968270D02*
X7437325Y-10977793D01*
X7437325Y-10977793D02*
X7475420Y-10977793D01*
X7475420Y-10977793D02*
X7494468Y-10968270D01*
X7494468Y-10968270D02*
X7503991Y-10958746D01*
X7503991Y-10958746D02*
X7513515Y-10939698D01*
X7751610Y-11053984D02*
X7751610Y-10853984D01*
X7837325Y-11053984D02*
X7837325Y-10949222D01*
X7837325Y-10949222D02*
X7827801Y-10930174D01*
X7827801Y-10930174D02*
X7808753Y-10920650D01*
X7808753Y-10920650D02*
X7780182Y-10920650D01*
X7780182Y-10920650D02*
X7761134Y-10930174D01*
X7761134Y-10930174D02*
X7751610Y-10939698D01*
X7961134Y-11053984D02*
X7942087Y-11044460D01*
X7942087Y-11044460D02*
X7932563Y-11034936D01*
X7932563Y-11034936D02*
X7923039Y-11015889D01*
X7923039Y-11015889D02*
X7923039Y-10958746D01*
X7923039Y-10958746D02*
X7932563Y-10939698D01*
X7932563Y-10939698D02*
X7942087Y-10930174D01*
X7942087Y-10930174D02*
X7961134Y-10920650D01*
X7961134Y-10920650D02*
X7989706Y-10920650D01*
X7989706Y-10920650D02*
X8008753Y-10930174D01*
X8008753Y-10930174D02*
X8018277Y-10939698D01*
X8018277Y-10939698D02*
X8027801Y-10958746D01*
X8027801Y-10958746D02*
X8027801Y-11015889D01*
X8027801Y-11015889D02*
X8018277Y-11034936D01*
X8018277Y-11034936D02*
X8008753Y-11044460D01*
X8008753Y-11044460D02*
X7989706Y-11053984D01*
X7989706Y-11053984D02*
X7961134Y-11053984D01*
X8142087Y-11053984D02*
X8123039Y-11044460D01*
X8123039Y-11044460D02*
X8113515Y-11025412D01*
X8113515Y-11025412D02*
X8113515Y-10853984D01*
X8294468Y-11044460D02*
X8275420Y-11053984D01*
X8275420Y-11053984D02*
X8237325Y-11053984D01*
X8237325Y-11053984D02*
X8218277Y-11044460D01*
X8218277Y-11044460D02*
X8208753Y-11025412D01*
X8208753Y-11025412D02*
X8208753Y-10949222D01*
X8208753Y-10949222D02*
X8218277Y-10930174D01*
X8218277Y-10930174D02*
X8237325Y-10920650D01*
X8237325Y-10920650D02*
X8275420Y-10920650D01*
X8275420Y-10920650D02*
X8294468Y-10930174D01*
X8294468Y-10930174D02*
X8303991Y-10949222D01*
X8303991Y-10949222D02*
X8303991Y-10968270D01*
X8303991Y-10968270D02*
X8208753Y-10987317D01*
X8380182Y-11044460D02*
X8399230Y-11053984D01*
X8399230Y-11053984D02*
X8437325Y-11053984D01*
X8437325Y-11053984D02*
X8456373Y-11044460D01*
X8456373Y-11044460D02*
X8465896Y-11025412D01*
X8465896Y-11025412D02*
X8465896Y-11015889D01*
X8465896Y-11015889D02*
X8456373Y-10996841D01*
X8456373Y-10996841D02*
X8437325Y-10987317D01*
X8437325Y-10987317D02*
X8408753Y-10987317D01*
X8408753Y-10987317D02*
X8389706Y-10977793D01*
X8389706Y-10977793D02*
X8380182Y-10958746D01*
X8380182Y-10958746D02*
X8380182Y-10949222D01*
X8380182Y-10949222D02*
X8389706Y-10930174D01*
X8389706Y-10930174D02*
X8408753Y-10920650D01*
X8408753Y-10920650D02*
X8437325Y-10920650D01*
X8437325Y-10920650D02*
X8456373Y-10930174D01*
X8532563Y-11130174D02*
X8542087Y-11120650D01*
X8542087Y-11120650D02*
X8561134Y-11092079D01*
X8561134Y-11092079D02*
X8570658Y-11073031D01*
X8570658Y-11073031D02*
X8580182Y-11044460D01*
X8580182Y-11044460D02*
X8589706Y-10996841D01*
X8589706Y-10996841D02*
X8589706Y-10958746D01*
X8589706Y-10958746D02*
X8580182Y-10911127D01*
X8580182Y-10911127D02*
X8570658Y-10882555D01*
X8570658Y-10882555D02*
X8561134Y-10863508D01*
X8561134Y-10863508D02*
X8542087Y-10834936D01*
X8542087Y-10834936D02*
X8532563Y-10825412D01*
X8894468Y-11130174D02*
X8884944Y-11120650D01*
X8884944Y-11120650D02*
X8865896Y-11092079D01*
X8865896Y-11092079D02*
X8856373Y-11073031D01*
X8856373Y-11073031D02*
X8846849Y-11044460D01*
X8846849Y-11044460D02*
X8837325Y-10996841D01*
X8837325Y-10996841D02*
X8837325Y-10958746D01*
X8837325Y-10958746D02*
X8846849Y-10911127D01*
X8846849Y-10911127D02*
X8856373Y-10882555D01*
X8856373Y-10882555D02*
X8865896Y-10863508D01*
X8865896Y-10863508D02*
X8884944Y-10834936D01*
X8884944Y-10834936D02*
X8894468Y-10825412D01*
X8970658Y-10920650D02*
X8970658Y-11053984D01*
X8970658Y-10939698D02*
X8980182Y-10930174D01*
X8980182Y-10930174D02*
X8999230Y-10920650D01*
X8999230Y-10920650D02*
X9027801Y-10920650D01*
X9027801Y-10920650D02*
X9046849Y-10930174D01*
X9046849Y-10930174D02*
X9056373Y-10949222D01*
X9056373Y-10949222D02*
X9056373Y-11053984D01*
X9180182Y-11053984D02*
X9161134Y-11044460D01*
X9161134Y-11044460D02*
X9151611Y-11034936D01*
X9151611Y-11034936D02*
X9142087Y-11015889D01*
X9142087Y-11015889D02*
X9142087Y-10958746D01*
X9142087Y-10958746D02*
X9151611Y-10939698D01*
X9151611Y-10939698D02*
X9161134Y-10930174D01*
X9161134Y-10930174D02*
X9180182Y-10920650D01*
X9180182Y-10920650D02*
X9208754Y-10920650D01*
X9208754Y-10920650D02*
X9227801Y-10930174D01*
X9227801Y-10930174D02*
X9237325Y-10939698D01*
X9237325Y-10939698D02*
X9246849Y-10958746D01*
X9246849Y-10958746D02*
X9246849Y-11015889D01*
X9246849Y-11015889D02*
X9237325Y-11034936D01*
X9237325Y-11034936D02*
X9227801Y-11044460D01*
X9227801Y-11044460D02*
X9208754Y-11053984D01*
X9208754Y-11053984D02*
X9180182Y-11053984D01*
X9303992Y-10920650D02*
X9380182Y-10920650D01*
X9332563Y-10853984D02*
X9332563Y-11025412D01*
X9332563Y-11025412D02*
X9342087Y-11044460D01*
X9342087Y-11044460D02*
X9361134Y-11053984D01*
X9361134Y-11053984D02*
X9380182Y-11053984D01*
X9599230Y-10920650D02*
X9599230Y-11120650D01*
X9599230Y-10930174D02*
X9618277Y-10920650D01*
X9618277Y-10920650D02*
X9656373Y-10920650D01*
X9656373Y-10920650D02*
X9675420Y-10930174D01*
X9675420Y-10930174D02*
X9684944Y-10939698D01*
X9684944Y-10939698D02*
X9694468Y-10958746D01*
X9694468Y-10958746D02*
X9694468Y-11015889D01*
X9694468Y-11015889D02*
X9684944Y-11034936D01*
X9684944Y-11034936D02*
X9675420Y-11044460D01*
X9675420Y-11044460D02*
X9656373Y-11053984D01*
X9656373Y-11053984D02*
X9618277Y-11053984D01*
X9618277Y-11053984D02*
X9599230Y-11044460D01*
X9808754Y-11053984D02*
X9789706Y-11044460D01*
X9789706Y-11044460D02*
X9780182Y-11025412D01*
X9780182Y-11025412D02*
X9780182Y-10853984D01*
X9970658Y-11053984D02*
X9970658Y-10949222D01*
X9970658Y-10949222D02*
X9961135Y-10930174D01*
X9961135Y-10930174D02*
X9942087Y-10920650D01*
X9942087Y-10920650D02*
X9903992Y-10920650D01*
X9903992Y-10920650D02*
X9884944Y-10930174D01*
X9970658Y-11044460D02*
X9951611Y-11053984D01*
X9951611Y-11053984D02*
X9903992Y-11053984D01*
X9903992Y-11053984D02*
X9884944Y-11044460D01*
X9884944Y-11044460D02*
X9875420Y-11025412D01*
X9875420Y-11025412D02*
X9875420Y-11006365D01*
X9875420Y-11006365D02*
X9884944Y-10987317D01*
X9884944Y-10987317D02*
X9903992Y-10977793D01*
X9903992Y-10977793D02*
X9951611Y-10977793D01*
X9951611Y-10977793D02*
X9970658Y-10968270D01*
X10037325Y-10920650D02*
X10113515Y-10920650D01*
X10065896Y-10853984D02*
X10065896Y-11025412D01*
X10065896Y-11025412D02*
X10075420Y-11044460D01*
X10075420Y-11044460D02*
X10094468Y-11053984D01*
X10094468Y-11053984D02*
X10113515Y-11053984D01*
X10256373Y-11044460D02*
X10237325Y-11053984D01*
X10237325Y-11053984D02*
X10199230Y-11053984D01*
X10199230Y-11053984D02*
X10180182Y-11044460D01*
X10180182Y-11044460D02*
X10170658Y-11025412D01*
X10170658Y-11025412D02*
X10170658Y-10949222D01*
X10170658Y-10949222D02*
X10180182Y-10930174D01*
X10180182Y-10930174D02*
X10199230Y-10920650D01*
X10199230Y-10920650D02*
X10237325Y-10920650D01*
X10237325Y-10920650D02*
X10256373Y-10930174D01*
X10256373Y-10930174D02*
X10265896Y-10949222D01*
X10265896Y-10949222D02*
X10265896Y-10968270D01*
X10265896Y-10968270D02*
X10170658Y-10987317D01*
X10437325Y-11053984D02*
X10437325Y-10853984D01*
X10437325Y-11044460D02*
X10418277Y-11053984D01*
X10418277Y-11053984D02*
X10380182Y-11053984D01*
X10380182Y-11053984D02*
X10361135Y-11044460D01*
X10361135Y-11044460D02*
X10351611Y-11034936D01*
X10351611Y-11034936D02*
X10342087Y-11015889D01*
X10342087Y-11015889D02*
X10342087Y-10958746D01*
X10342087Y-10958746D02*
X10351611Y-10939698D01*
X10351611Y-10939698D02*
X10361135Y-10930174D01*
X10361135Y-10930174D02*
X10380182Y-10920650D01*
X10380182Y-10920650D02*
X10418277Y-10920650D01*
X10418277Y-10920650D02*
X10437325Y-10930174D01*
X10513516Y-11130174D02*
X10523039Y-11120650D01*
X10523039Y-11120650D02*
X10542087Y-11092079D01*
X10542087Y-11092079D02*
X10551611Y-11073031D01*
X10551611Y-11073031D02*
X10561135Y-11044460D01*
X10561135Y-11044460D02*
X10570658Y-10996841D01*
X10570658Y-10996841D02*
X10570658Y-10958746D01*
X10570658Y-10958746D02*
X10561135Y-10911127D01*
X10561135Y-10911127D02*
X10551611Y-10882555D01*
X10551611Y-10882555D02*
X10542087Y-10863508D01*
X10542087Y-10863508D02*
X10523039Y-10834936D01*
X10523039Y-10834936D02*
X10513516Y-10825412D01*
M02*
