%TF.GenerationSoftware,KiCad,Pcbnew,8.0.3*%
%TF.CreationDate,2024-08-31T16:40:24+01:00*%
%TF.ProjectId,macropad,6d616372-6f70-4616-942e-6b696361645f,rev?*%
%TF.SameCoordinates,Original*%
%TF.FileFunction,Drillmap*%
%TF.FilePolarity,Positive*%
%FSLAX45Y45*%
G04 Gerber Fmt 4.5, Leading zero omitted, Abs format (unit mm)*
G04 Created by KiCad (PCBNEW 8.0.3) date 2024-08-31 16:40:24*
%MOMM*%
%LPD*%
G01*
G04 APERTURE LIST*
%ADD10C,0.050000*%
%ADD11C,0.200000*%
%ADD12C,0.100000*%
%ADD13C,0.102000*%
%ADD14C,0.150000*%
G04 APERTURE END LIST*
D10*
X3760000Y-4520000D02*
X9560000Y-4520000D01*
X9560000Y-10320000D01*
X3760000Y-10320000D01*
X3760000Y-4520000D01*
D11*
D12*
X4314000Y-8270000D02*
X4394000Y-8350000D01*
X4394000Y-8270000D02*
X4314000Y-8350000D01*
X4320000Y-6350000D02*
X4400000Y-6430000D01*
X4400000Y-6350000D02*
X4320000Y-6430000D01*
X4324000Y-10110000D02*
X4404000Y-10190000D01*
X4404000Y-10110000D02*
X4324000Y-10190000D01*
X5076000Y-8270000D02*
X5156000Y-8350000D01*
X5156000Y-8270000D02*
X5076000Y-8350000D01*
X5082000Y-6350000D02*
X5162000Y-6430000D01*
X5162000Y-6350000D02*
X5082000Y-6430000D01*
X5086000Y-10110000D02*
X5166000Y-10190000D01*
X5166000Y-10110000D02*
X5086000Y-10190000D01*
X6219000Y-8270000D02*
X6299000Y-8350000D01*
X6299000Y-8270000D02*
X6219000Y-8350000D01*
X6219000Y-10130000D02*
X6299000Y-10210000D01*
X6299000Y-10130000D02*
X6219000Y-10210000D01*
X6225000Y-6350000D02*
X6305000Y-6430000D01*
X6305000Y-6350000D02*
X6225000Y-6430000D01*
X6981000Y-8270000D02*
X7061000Y-8350000D01*
X7061000Y-8270000D02*
X6981000Y-8350000D01*
X6981000Y-10130000D02*
X7061000Y-10210000D01*
X7061000Y-10130000D02*
X6981000Y-10210000D01*
X6987000Y-6350000D02*
X7067000Y-6430000D01*
X7067000Y-6350000D02*
X6987000Y-6430000D01*
X8124000Y-8270000D02*
X8204000Y-8350000D01*
X8204000Y-8270000D02*
X8124000Y-8350000D01*
X8130000Y-6350000D02*
X8210000Y-6430000D01*
X8210000Y-6350000D02*
X8130000Y-6430000D01*
X8155000Y-10110000D02*
X8235000Y-10190000D01*
X8235000Y-10110000D02*
X8155000Y-10190000D01*
X8886000Y-8270000D02*
X8966000Y-8350000D01*
X8966000Y-8270000D02*
X8886000Y-8350000D01*
X8892000Y-6350000D02*
X8972000Y-6430000D01*
X8972000Y-6350000D02*
X8892000Y-6430000D01*
X8917000Y-10110000D02*
X8997000Y-10190000D01*
X8997000Y-10110000D02*
X8917000Y-10190000D01*
D13*
X5813000Y-4822000D02*
G75*
G02*
X5711000Y-4822000I-51000J0D01*
G01*
X5711000Y-4822000D02*
G75*
G02*
X5813000Y-4822000I51000J0D01*
G01*
X5813000Y-5076000D02*
G75*
G02*
X5711000Y-5076000I-51000J0D01*
G01*
X5711000Y-5076000D02*
G75*
G02*
X5813000Y-5076000I51000J0D01*
G01*
X5813000Y-5330000D02*
G75*
G02*
X5711000Y-5330000I-51000J0D01*
G01*
X5711000Y-5330000D02*
G75*
G02*
X5813000Y-5330000I51000J0D01*
G01*
X5813000Y-5584000D02*
G75*
G02*
X5711000Y-5584000I-51000J0D01*
G01*
X5711000Y-5584000D02*
G75*
G02*
X5813000Y-5584000I51000J0D01*
G01*
X5813000Y-5838000D02*
G75*
G02*
X5711000Y-5838000I-51000J0D01*
G01*
X5711000Y-5838000D02*
G75*
G02*
X5813000Y-5838000I51000J0D01*
G01*
X5813000Y-6092000D02*
G75*
G02*
X5711000Y-6092000I-51000J0D01*
G01*
X5711000Y-6092000D02*
G75*
G02*
X5813000Y-6092000I51000J0D01*
G01*
X5813000Y-6346000D02*
G75*
G02*
X5711000Y-6346000I-51000J0D01*
G01*
X5711000Y-6346000D02*
G75*
G02*
X5813000Y-6346000I51000J0D01*
G01*
X5813000Y-6600000D02*
G75*
G02*
X5711000Y-6600000I-51000J0D01*
G01*
X5711000Y-6600000D02*
G75*
G02*
X5813000Y-6600000I51000J0D01*
G01*
X5813000Y-6854000D02*
G75*
G02*
X5711000Y-6854000I-51000J0D01*
G01*
X5711000Y-6854000D02*
G75*
G02*
X5813000Y-6854000I51000J0D01*
G01*
X5813000Y-7108000D02*
G75*
G02*
X5711000Y-7108000I-51000J0D01*
G01*
X5711000Y-7108000D02*
G75*
G02*
X5813000Y-7108000I51000J0D01*
G01*
X5813000Y-7362000D02*
G75*
G02*
X5711000Y-7362000I-51000J0D01*
G01*
X5711000Y-7362000D02*
G75*
G02*
X5813000Y-7362000I51000J0D01*
G01*
X5813000Y-7616000D02*
G75*
G02*
X5711000Y-7616000I-51000J0D01*
G01*
X5711000Y-7616000D02*
G75*
G02*
X5813000Y-7616000I51000J0D01*
G01*
X5813000Y-7870000D02*
G75*
G02*
X5711000Y-7870000I-51000J0D01*
G01*
X5711000Y-7870000D02*
G75*
G02*
X5813000Y-7870000I51000J0D01*
G01*
X5813000Y-8124000D02*
G75*
G02*
X5711000Y-8124000I-51000J0D01*
G01*
X5711000Y-8124000D02*
G75*
G02*
X5813000Y-8124000I51000J0D01*
G01*
X5813000Y-8378000D02*
G75*
G02*
X5711000Y-8378000I-51000J0D01*
G01*
X5711000Y-8378000D02*
G75*
G02*
X5813000Y-8378000I51000J0D01*
G01*
X5813000Y-8632000D02*
G75*
G02*
X5711000Y-8632000I-51000J0D01*
G01*
X5711000Y-8632000D02*
G75*
G02*
X5813000Y-8632000I51000J0D01*
G01*
X5813000Y-8886000D02*
G75*
G02*
X5711000Y-8886000I-51000J0D01*
G01*
X5711000Y-8886000D02*
G75*
G02*
X5813000Y-8886000I51000J0D01*
G01*
X5813000Y-9140000D02*
G75*
G02*
X5711000Y-9140000I-51000J0D01*
G01*
X5711000Y-9140000D02*
G75*
G02*
X5813000Y-9140000I51000J0D01*
G01*
X5813000Y-9394000D02*
G75*
G02*
X5711000Y-9394000I-51000J0D01*
G01*
X5711000Y-9394000D02*
G75*
G02*
X5813000Y-9394000I51000J0D01*
G01*
X5813000Y-9648000D02*
G75*
G02*
X5711000Y-9648000I-51000J0D01*
G01*
X5711000Y-9648000D02*
G75*
G02*
X5813000Y-9648000I51000J0D01*
G01*
X7591000Y-4822000D02*
G75*
G02*
X7489000Y-4822000I-51000J0D01*
G01*
X7489000Y-4822000D02*
G75*
G02*
X7591000Y-4822000I51000J0D01*
G01*
X7591000Y-5076000D02*
G75*
G02*
X7489000Y-5076000I-51000J0D01*
G01*
X7489000Y-5076000D02*
G75*
G02*
X7591000Y-5076000I51000J0D01*
G01*
X7591000Y-5330000D02*
G75*
G02*
X7489000Y-5330000I-51000J0D01*
G01*
X7489000Y-5330000D02*
G75*
G02*
X7591000Y-5330000I51000J0D01*
G01*
X7591000Y-5584000D02*
G75*
G02*
X7489000Y-5584000I-51000J0D01*
G01*
X7489000Y-5584000D02*
G75*
G02*
X7591000Y-5584000I51000J0D01*
G01*
X7591000Y-5838000D02*
G75*
G02*
X7489000Y-5838000I-51000J0D01*
G01*
X7489000Y-5838000D02*
G75*
G02*
X7591000Y-5838000I51000J0D01*
G01*
X7591000Y-6092000D02*
G75*
G02*
X7489000Y-6092000I-51000J0D01*
G01*
X7489000Y-6092000D02*
G75*
G02*
X7591000Y-6092000I51000J0D01*
G01*
X7591000Y-6346000D02*
G75*
G02*
X7489000Y-6346000I-51000J0D01*
G01*
X7489000Y-6346000D02*
G75*
G02*
X7591000Y-6346000I51000J0D01*
G01*
X7591000Y-6600000D02*
G75*
G02*
X7489000Y-6600000I-51000J0D01*
G01*
X7489000Y-6600000D02*
G75*
G02*
X7591000Y-6600000I51000J0D01*
G01*
X7591000Y-6854000D02*
G75*
G02*
X7489000Y-6854000I-51000J0D01*
G01*
X7489000Y-6854000D02*
G75*
G02*
X7591000Y-6854000I51000J0D01*
G01*
X7591000Y-7108000D02*
G75*
G02*
X7489000Y-7108000I-51000J0D01*
G01*
X7489000Y-7108000D02*
G75*
G02*
X7591000Y-7108000I51000J0D01*
G01*
X7591000Y-7362000D02*
G75*
G02*
X7489000Y-7362000I-51000J0D01*
G01*
X7489000Y-7362000D02*
G75*
G02*
X7591000Y-7362000I51000J0D01*
G01*
X7591000Y-7616000D02*
G75*
G02*
X7489000Y-7616000I-51000J0D01*
G01*
X7489000Y-7616000D02*
G75*
G02*
X7591000Y-7616000I51000J0D01*
G01*
X7591000Y-7870000D02*
G75*
G02*
X7489000Y-7870000I-51000J0D01*
G01*
X7489000Y-7870000D02*
G75*
G02*
X7591000Y-7870000I51000J0D01*
G01*
X7591000Y-8124000D02*
G75*
G02*
X7489000Y-8124000I-51000J0D01*
G01*
X7489000Y-8124000D02*
G75*
G02*
X7591000Y-8124000I51000J0D01*
G01*
X7591000Y-8378000D02*
G75*
G02*
X7489000Y-8378000I-51000J0D01*
G01*
X7489000Y-8378000D02*
G75*
G02*
X7591000Y-8378000I51000J0D01*
G01*
X7591000Y-8632000D02*
G75*
G02*
X7489000Y-8632000I-51000J0D01*
G01*
X7489000Y-8632000D02*
G75*
G02*
X7591000Y-8632000I51000J0D01*
G01*
X7591000Y-8886000D02*
G75*
G02*
X7489000Y-8886000I-51000J0D01*
G01*
X7489000Y-8886000D02*
G75*
G02*
X7591000Y-8886000I51000J0D01*
G01*
X7591000Y-9140000D02*
G75*
G02*
X7489000Y-9140000I-51000J0D01*
G01*
X7489000Y-9140000D02*
G75*
G02*
X7591000Y-9140000I51000J0D01*
G01*
X7591000Y-9394000D02*
G75*
G02*
X7489000Y-9394000I-51000J0D01*
G01*
X7489000Y-9394000D02*
G75*
G02*
X7591000Y-9394000I51000J0D01*
G01*
X7591000Y-9648000D02*
G75*
G02*
X7489000Y-9648000I-51000J0D01*
G01*
X7489000Y-9648000D02*
G75*
G02*
X7591000Y-9648000I51000J0D01*
G01*
D14*
X4365000Y-5179000D02*
X4365000Y-5329000D01*
X4290000Y-5254000D02*
X4440000Y-5254000D01*
X4365000Y-7084000D02*
X4365000Y-7234000D01*
X4290000Y-7159000D02*
X4440000Y-7159000D01*
X4365000Y-8989000D02*
X4365000Y-9139000D01*
X4290000Y-9064000D02*
X4440000Y-9064000D01*
X5000000Y-4925000D02*
X5000000Y-5075000D01*
X4925000Y-5000000D02*
X5075000Y-5000000D01*
X5000000Y-6830000D02*
X5000000Y-6980000D01*
X4925000Y-6905000D02*
X5075000Y-6905000D01*
X5000000Y-8735000D02*
X5000000Y-8885000D01*
X4925000Y-8810000D02*
X5075000Y-8810000D01*
X6270000Y-5179000D02*
X6270000Y-5329000D01*
X6195000Y-5254000D02*
X6345000Y-5254000D01*
X6270000Y-7084000D02*
X6270000Y-7234000D01*
X6195000Y-7159000D02*
X6345000Y-7159000D01*
X6270000Y-8989000D02*
X6270000Y-9139000D01*
X6195000Y-9064000D02*
X6345000Y-9064000D01*
X6905000Y-4925000D02*
X6905000Y-5075000D01*
X6830000Y-5000000D02*
X6980000Y-5000000D01*
X6905000Y-6830000D02*
X6905000Y-6980000D01*
X6830000Y-6905000D02*
X6980000Y-6905000D01*
X6905000Y-8735000D02*
X6905000Y-8885000D01*
X6830000Y-8810000D02*
X6980000Y-8810000D01*
X8175000Y-5179000D02*
X8175000Y-5329000D01*
X8100000Y-5254000D02*
X8250000Y-5254000D01*
X8175000Y-7084000D02*
X8175000Y-7234000D01*
X8100000Y-7159000D02*
X8250000Y-7159000D01*
X8175000Y-8989000D02*
X8175000Y-9139000D01*
X8100000Y-9064000D02*
X8250000Y-9064000D01*
X8810000Y-4925000D02*
X8810000Y-5075000D01*
X8735000Y-5000000D02*
X8885000Y-5000000D01*
X8810000Y-6830000D02*
X8810000Y-6980000D01*
X8735000Y-6905000D02*
X8885000Y-6905000D01*
X8810000Y-8735000D02*
X8810000Y-8885000D01*
X8735000Y-8810000D02*
X8885000Y-8810000D01*
D11*
X4018277Y-10633984D02*
X4018277Y-10433984D01*
X4018277Y-10433984D02*
X4065896Y-10433984D01*
X4065896Y-10433984D02*
X4094467Y-10443508D01*
X4094467Y-10443508D02*
X4113515Y-10462555D01*
X4113515Y-10462555D02*
X4123039Y-10481603D01*
X4123039Y-10481603D02*
X4132562Y-10519698D01*
X4132562Y-10519698D02*
X4132562Y-10548270D01*
X4132562Y-10548270D02*
X4123039Y-10586365D01*
X4123039Y-10586365D02*
X4113515Y-10605412D01*
X4113515Y-10605412D02*
X4094467Y-10624460D01*
X4094467Y-10624460D02*
X4065896Y-10633984D01*
X4065896Y-10633984D02*
X4018277Y-10633984D01*
X4218277Y-10633984D02*
X4218277Y-10500650D01*
X4218277Y-10538746D02*
X4227801Y-10519698D01*
X4227801Y-10519698D02*
X4237324Y-10510174D01*
X4237324Y-10510174D02*
X4256372Y-10500650D01*
X4256372Y-10500650D02*
X4275420Y-10500650D01*
X4342086Y-10633984D02*
X4342086Y-10500650D01*
X4342086Y-10433984D02*
X4332563Y-10443508D01*
X4332563Y-10443508D02*
X4342086Y-10453031D01*
X4342086Y-10453031D02*
X4351610Y-10443508D01*
X4351610Y-10443508D02*
X4342086Y-10433984D01*
X4342086Y-10433984D02*
X4342086Y-10453031D01*
X4465896Y-10633984D02*
X4446848Y-10624460D01*
X4446848Y-10624460D02*
X4437324Y-10605412D01*
X4437324Y-10605412D02*
X4437324Y-10433984D01*
X4570658Y-10633984D02*
X4551610Y-10624460D01*
X4551610Y-10624460D02*
X4542086Y-10605412D01*
X4542086Y-10605412D02*
X4542086Y-10433984D01*
X4799229Y-10633984D02*
X4799229Y-10433984D01*
X4799229Y-10433984D02*
X4865896Y-10576841D01*
X4865896Y-10576841D02*
X4932563Y-10433984D01*
X4932563Y-10433984D02*
X4932563Y-10633984D01*
X5113515Y-10633984D02*
X5113515Y-10529222D01*
X5113515Y-10529222D02*
X5103991Y-10510174D01*
X5103991Y-10510174D02*
X5084944Y-10500650D01*
X5084944Y-10500650D02*
X5046848Y-10500650D01*
X5046848Y-10500650D02*
X5027801Y-10510174D01*
X5113515Y-10624460D02*
X5094467Y-10633984D01*
X5094467Y-10633984D02*
X5046848Y-10633984D01*
X5046848Y-10633984D02*
X5027801Y-10624460D01*
X5027801Y-10624460D02*
X5018277Y-10605412D01*
X5018277Y-10605412D02*
X5018277Y-10586365D01*
X5018277Y-10586365D02*
X5027801Y-10567317D01*
X5027801Y-10567317D02*
X5046848Y-10557793D01*
X5046848Y-10557793D02*
X5094467Y-10557793D01*
X5094467Y-10557793D02*
X5113515Y-10548270D01*
X5208753Y-10500650D02*
X5208753Y-10700650D01*
X5208753Y-10510174D02*
X5227801Y-10500650D01*
X5227801Y-10500650D02*
X5265896Y-10500650D01*
X5265896Y-10500650D02*
X5284944Y-10510174D01*
X5284944Y-10510174D02*
X5294467Y-10519698D01*
X5294467Y-10519698D02*
X5303991Y-10538746D01*
X5303991Y-10538746D02*
X5303991Y-10595889D01*
X5303991Y-10595889D02*
X5294467Y-10614936D01*
X5294467Y-10614936D02*
X5284944Y-10624460D01*
X5284944Y-10624460D02*
X5265896Y-10633984D01*
X5265896Y-10633984D02*
X5227801Y-10633984D01*
X5227801Y-10633984D02*
X5208753Y-10624460D01*
X5389705Y-10614936D02*
X5399229Y-10624460D01*
X5399229Y-10624460D02*
X5389705Y-10633984D01*
X5389705Y-10633984D02*
X5380182Y-10624460D01*
X5380182Y-10624460D02*
X5389705Y-10614936D01*
X5389705Y-10614936D02*
X5389705Y-10633984D01*
X5389705Y-10510174D02*
X5399229Y-10519698D01*
X5399229Y-10519698D02*
X5389705Y-10529222D01*
X5389705Y-10529222D02*
X5380182Y-10519698D01*
X5380182Y-10519698D02*
X5389705Y-10510174D01*
X5389705Y-10510174D02*
X5389705Y-10529222D01*
D12*
X3677500Y-10922500D02*
X3757500Y-11002500D01*
X3757500Y-10922500D02*
X3677500Y-11002500D01*
D11*
X4056372Y-10853984D02*
X4075420Y-10853984D01*
X4075420Y-10853984D02*
X4094467Y-10863508D01*
X4094467Y-10863508D02*
X4103991Y-10873031D01*
X4103991Y-10873031D02*
X4113515Y-10892079D01*
X4113515Y-10892079D02*
X4123039Y-10930174D01*
X4123039Y-10930174D02*
X4123039Y-10977793D01*
X4123039Y-10977793D02*
X4113515Y-11015889D01*
X4113515Y-11015889D02*
X4103991Y-11034936D01*
X4103991Y-11034936D02*
X4094467Y-11044460D01*
X4094467Y-11044460D02*
X4075420Y-11053984D01*
X4075420Y-11053984D02*
X4056372Y-11053984D01*
X4056372Y-11053984D02*
X4037324Y-11044460D01*
X4037324Y-11044460D02*
X4027801Y-11034936D01*
X4027801Y-11034936D02*
X4018277Y-11015889D01*
X4018277Y-11015889D02*
X4008753Y-10977793D01*
X4008753Y-10977793D02*
X4008753Y-10930174D01*
X4008753Y-10930174D02*
X4018277Y-10892079D01*
X4018277Y-10892079D02*
X4027801Y-10873031D01*
X4027801Y-10873031D02*
X4037324Y-10863508D01*
X4037324Y-10863508D02*
X4056372Y-10853984D01*
X4208753Y-11034936D02*
X4218277Y-11044460D01*
X4218277Y-11044460D02*
X4208753Y-11053984D01*
X4208753Y-11053984D02*
X4199229Y-11044460D01*
X4199229Y-11044460D02*
X4208753Y-11034936D01*
X4208753Y-11034936D02*
X4208753Y-11053984D01*
X4332563Y-10939698D02*
X4313515Y-10930174D01*
X4313515Y-10930174D02*
X4303991Y-10920650D01*
X4303991Y-10920650D02*
X4294467Y-10901603D01*
X4294467Y-10901603D02*
X4294467Y-10892079D01*
X4294467Y-10892079D02*
X4303991Y-10873031D01*
X4303991Y-10873031D02*
X4313515Y-10863508D01*
X4313515Y-10863508D02*
X4332563Y-10853984D01*
X4332563Y-10853984D02*
X4370658Y-10853984D01*
X4370658Y-10853984D02*
X4389705Y-10863508D01*
X4389705Y-10863508D02*
X4399229Y-10873031D01*
X4399229Y-10873031D02*
X4408753Y-10892079D01*
X4408753Y-10892079D02*
X4408753Y-10901603D01*
X4408753Y-10901603D02*
X4399229Y-10920650D01*
X4399229Y-10920650D02*
X4389705Y-10930174D01*
X4389705Y-10930174D02*
X4370658Y-10939698D01*
X4370658Y-10939698D02*
X4332563Y-10939698D01*
X4332563Y-10939698D02*
X4313515Y-10949222D01*
X4313515Y-10949222D02*
X4303991Y-10958746D01*
X4303991Y-10958746D02*
X4294467Y-10977793D01*
X4294467Y-10977793D02*
X4294467Y-11015889D01*
X4294467Y-11015889D02*
X4303991Y-11034936D01*
X4303991Y-11034936D02*
X4313515Y-11044460D01*
X4313515Y-11044460D02*
X4332563Y-11053984D01*
X4332563Y-11053984D02*
X4370658Y-11053984D01*
X4370658Y-11053984D02*
X4389705Y-11044460D01*
X4389705Y-11044460D02*
X4399229Y-11034936D01*
X4399229Y-11034936D02*
X4408753Y-11015889D01*
X4408753Y-11015889D02*
X4408753Y-10977793D01*
X4408753Y-10977793D02*
X4399229Y-10958746D01*
X4399229Y-10958746D02*
X4389705Y-10949222D01*
X4389705Y-10949222D02*
X4370658Y-10939698D01*
X4532563Y-10853984D02*
X4551610Y-10853984D01*
X4551610Y-10853984D02*
X4570658Y-10863508D01*
X4570658Y-10863508D02*
X4580182Y-10873031D01*
X4580182Y-10873031D02*
X4589705Y-10892079D01*
X4589705Y-10892079D02*
X4599229Y-10930174D01*
X4599229Y-10930174D02*
X4599229Y-10977793D01*
X4599229Y-10977793D02*
X4589705Y-11015889D01*
X4589705Y-11015889D02*
X4580182Y-11034936D01*
X4580182Y-11034936D02*
X4570658Y-11044460D01*
X4570658Y-11044460D02*
X4551610Y-11053984D01*
X4551610Y-11053984D02*
X4532563Y-11053984D01*
X4532563Y-11053984D02*
X4513515Y-11044460D01*
X4513515Y-11044460D02*
X4503991Y-11034936D01*
X4503991Y-11034936D02*
X4494467Y-11015889D01*
X4494467Y-11015889D02*
X4484944Y-10977793D01*
X4484944Y-10977793D02*
X4484944Y-10930174D01*
X4484944Y-10930174D02*
X4494467Y-10892079D01*
X4494467Y-10892079D02*
X4503991Y-10873031D01*
X4503991Y-10873031D02*
X4513515Y-10863508D01*
X4513515Y-10863508D02*
X4532563Y-10853984D01*
X4723039Y-10853984D02*
X4742086Y-10853984D01*
X4742086Y-10853984D02*
X4761134Y-10863508D01*
X4761134Y-10863508D02*
X4770658Y-10873031D01*
X4770658Y-10873031D02*
X4780182Y-10892079D01*
X4780182Y-10892079D02*
X4789705Y-10930174D01*
X4789705Y-10930174D02*
X4789705Y-10977793D01*
X4789705Y-10977793D02*
X4780182Y-11015889D01*
X4780182Y-11015889D02*
X4770658Y-11034936D01*
X4770658Y-11034936D02*
X4761134Y-11044460D01*
X4761134Y-11044460D02*
X4742086Y-11053984D01*
X4742086Y-11053984D02*
X4723039Y-11053984D01*
X4723039Y-11053984D02*
X4703991Y-11044460D01*
X4703991Y-11044460D02*
X4694467Y-11034936D01*
X4694467Y-11034936D02*
X4684944Y-11015889D01*
X4684944Y-11015889D02*
X4675420Y-10977793D01*
X4675420Y-10977793D02*
X4675420Y-10930174D01*
X4675420Y-10930174D02*
X4684944Y-10892079D01*
X4684944Y-10892079D02*
X4694467Y-10873031D01*
X4694467Y-10873031D02*
X4703991Y-10863508D01*
X4703991Y-10863508D02*
X4723039Y-10853984D01*
X4875420Y-11053984D02*
X4875420Y-10920650D01*
X4875420Y-10939698D02*
X4884944Y-10930174D01*
X4884944Y-10930174D02*
X4903991Y-10920650D01*
X4903991Y-10920650D02*
X4932563Y-10920650D01*
X4932563Y-10920650D02*
X4951610Y-10930174D01*
X4951610Y-10930174D02*
X4961134Y-10949222D01*
X4961134Y-10949222D02*
X4961134Y-11053984D01*
X4961134Y-10949222D02*
X4970658Y-10930174D01*
X4970658Y-10930174D02*
X4989705Y-10920650D01*
X4989705Y-10920650D02*
X5018277Y-10920650D01*
X5018277Y-10920650D02*
X5037325Y-10930174D01*
X5037325Y-10930174D02*
X5046848Y-10949222D01*
X5046848Y-10949222D02*
X5046848Y-11053984D01*
X5142086Y-11053984D02*
X5142086Y-10920650D01*
X5142086Y-10939698D02*
X5151610Y-10930174D01*
X5151610Y-10930174D02*
X5170658Y-10920650D01*
X5170658Y-10920650D02*
X5199229Y-10920650D01*
X5199229Y-10920650D02*
X5218277Y-10930174D01*
X5218277Y-10930174D02*
X5227801Y-10949222D01*
X5227801Y-10949222D02*
X5227801Y-11053984D01*
X5227801Y-10949222D02*
X5237325Y-10930174D01*
X5237325Y-10930174D02*
X5256372Y-10920650D01*
X5256372Y-10920650D02*
X5284944Y-10920650D01*
X5284944Y-10920650D02*
X5303991Y-10930174D01*
X5303991Y-10930174D02*
X5313515Y-10949222D01*
X5313515Y-10949222D02*
X5313515Y-11053984D01*
X5703991Y-10844460D02*
X5532563Y-11101603D01*
X5961134Y-10853984D02*
X5980182Y-10853984D01*
X5980182Y-10853984D02*
X5999229Y-10863508D01*
X5999229Y-10863508D02*
X6008753Y-10873031D01*
X6008753Y-10873031D02*
X6018277Y-10892079D01*
X6018277Y-10892079D02*
X6027801Y-10930174D01*
X6027801Y-10930174D02*
X6027801Y-10977793D01*
X6027801Y-10977793D02*
X6018277Y-11015889D01*
X6018277Y-11015889D02*
X6008753Y-11034936D01*
X6008753Y-11034936D02*
X5999229Y-11044460D01*
X5999229Y-11044460D02*
X5980182Y-11053984D01*
X5980182Y-11053984D02*
X5961134Y-11053984D01*
X5961134Y-11053984D02*
X5942086Y-11044460D01*
X5942086Y-11044460D02*
X5932563Y-11034936D01*
X5932563Y-11034936D02*
X5923039Y-11015889D01*
X5923039Y-11015889D02*
X5913515Y-10977793D01*
X5913515Y-10977793D02*
X5913515Y-10930174D01*
X5913515Y-10930174D02*
X5923039Y-10892079D01*
X5923039Y-10892079D02*
X5932563Y-10873031D01*
X5932563Y-10873031D02*
X5942086Y-10863508D01*
X5942086Y-10863508D02*
X5961134Y-10853984D01*
X6113515Y-11034936D02*
X6123039Y-11044460D01*
X6123039Y-11044460D02*
X6113515Y-11053984D01*
X6113515Y-11053984D02*
X6103991Y-11044460D01*
X6103991Y-11044460D02*
X6113515Y-11034936D01*
X6113515Y-11034936D02*
X6113515Y-11053984D01*
X6246848Y-10853984D02*
X6265896Y-10853984D01*
X6265896Y-10853984D02*
X6284944Y-10863508D01*
X6284944Y-10863508D02*
X6294467Y-10873031D01*
X6294467Y-10873031D02*
X6303991Y-10892079D01*
X6303991Y-10892079D02*
X6313515Y-10930174D01*
X6313515Y-10930174D02*
X6313515Y-10977793D01*
X6313515Y-10977793D02*
X6303991Y-11015889D01*
X6303991Y-11015889D02*
X6294467Y-11034936D01*
X6294467Y-11034936D02*
X6284944Y-11044460D01*
X6284944Y-11044460D02*
X6265896Y-11053984D01*
X6265896Y-11053984D02*
X6246848Y-11053984D01*
X6246848Y-11053984D02*
X6227801Y-11044460D01*
X6227801Y-11044460D02*
X6218277Y-11034936D01*
X6218277Y-11034936D02*
X6208753Y-11015889D01*
X6208753Y-11015889D02*
X6199229Y-10977793D01*
X6199229Y-10977793D02*
X6199229Y-10930174D01*
X6199229Y-10930174D02*
X6208753Y-10892079D01*
X6208753Y-10892079D02*
X6218277Y-10873031D01*
X6218277Y-10873031D02*
X6227801Y-10863508D01*
X6227801Y-10863508D02*
X6246848Y-10853984D01*
X6380182Y-10853984D02*
X6503991Y-10853984D01*
X6503991Y-10853984D02*
X6437325Y-10930174D01*
X6437325Y-10930174D02*
X6465896Y-10930174D01*
X6465896Y-10930174D02*
X6484944Y-10939698D01*
X6484944Y-10939698D02*
X6494467Y-10949222D01*
X6494467Y-10949222D02*
X6503991Y-10968270D01*
X6503991Y-10968270D02*
X6503991Y-11015889D01*
X6503991Y-11015889D02*
X6494467Y-11034936D01*
X6494467Y-11034936D02*
X6484944Y-11044460D01*
X6484944Y-11044460D02*
X6465896Y-11053984D01*
X6465896Y-11053984D02*
X6408753Y-11053984D01*
X6408753Y-11053984D02*
X6389706Y-11044460D01*
X6389706Y-11044460D02*
X6380182Y-11034936D01*
X6694467Y-11053984D02*
X6580182Y-11053984D01*
X6637325Y-11053984D02*
X6637325Y-10853984D01*
X6637325Y-10853984D02*
X6618277Y-10882555D01*
X6618277Y-10882555D02*
X6599229Y-10901603D01*
X6599229Y-10901603D02*
X6580182Y-10911127D01*
X6875420Y-10853984D02*
X6780182Y-10853984D01*
X6780182Y-10853984D02*
X6770658Y-10949222D01*
X6770658Y-10949222D02*
X6780182Y-10939698D01*
X6780182Y-10939698D02*
X6799229Y-10930174D01*
X6799229Y-10930174D02*
X6846848Y-10930174D01*
X6846848Y-10930174D02*
X6865896Y-10939698D01*
X6865896Y-10939698D02*
X6875420Y-10949222D01*
X6875420Y-10949222D02*
X6884944Y-10968270D01*
X6884944Y-10968270D02*
X6884944Y-11015889D01*
X6884944Y-11015889D02*
X6875420Y-11034936D01*
X6875420Y-11034936D02*
X6865896Y-11044460D01*
X6865896Y-11044460D02*
X6846848Y-11053984D01*
X6846848Y-11053984D02*
X6799229Y-11053984D01*
X6799229Y-11053984D02*
X6780182Y-11044460D01*
X6780182Y-11044460D02*
X6770658Y-11034936D01*
X6961134Y-10853984D02*
X6961134Y-10892079D01*
X7037325Y-10853984D02*
X7037325Y-10892079D01*
X7332563Y-11130174D02*
X7323039Y-11120650D01*
X7323039Y-11120650D02*
X7303991Y-11092079D01*
X7303991Y-11092079D02*
X7294468Y-11073031D01*
X7294468Y-11073031D02*
X7284944Y-11044460D01*
X7284944Y-11044460D02*
X7275420Y-10996841D01*
X7275420Y-10996841D02*
X7275420Y-10958746D01*
X7275420Y-10958746D02*
X7284944Y-10911127D01*
X7284944Y-10911127D02*
X7294468Y-10882555D01*
X7294468Y-10882555D02*
X7303991Y-10863508D01*
X7303991Y-10863508D02*
X7323039Y-10834936D01*
X7323039Y-10834936D02*
X7332563Y-10825412D01*
X7513515Y-11053984D02*
X7399229Y-11053984D01*
X7456372Y-11053984D02*
X7456372Y-10853984D01*
X7456372Y-10853984D02*
X7437325Y-10882555D01*
X7437325Y-10882555D02*
X7418277Y-10901603D01*
X7418277Y-10901603D02*
X7399229Y-10911127D01*
X7627801Y-10939698D02*
X7608753Y-10930174D01*
X7608753Y-10930174D02*
X7599229Y-10920650D01*
X7599229Y-10920650D02*
X7589706Y-10901603D01*
X7589706Y-10901603D02*
X7589706Y-10892079D01*
X7589706Y-10892079D02*
X7599229Y-10873031D01*
X7599229Y-10873031D02*
X7608753Y-10863508D01*
X7608753Y-10863508D02*
X7627801Y-10853984D01*
X7627801Y-10853984D02*
X7665896Y-10853984D01*
X7665896Y-10853984D02*
X7684944Y-10863508D01*
X7684944Y-10863508D02*
X7694468Y-10873031D01*
X7694468Y-10873031D02*
X7703991Y-10892079D01*
X7703991Y-10892079D02*
X7703991Y-10901603D01*
X7703991Y-10901603D02*
X7694468Y-10920650D01*
X7694468Y-10920650D02*
X7684944Y-10930174D01*
X7684944Y-10930174D02*
X7665896Y-10939698D01*
X7665896Y-10939698D02*
X7627801Y-10939698D01*
X7627801Y-10939698D02*
X7608753Y-10949222D01*
X7608753Y-10949222D02*
X7599229Y-10958746D01*
X7599229Y-10958746D02*
X7589706Y-10977793D01*
X7589706Y-10977793D02*
X7589706Y-11015889D01*
X7589706Y-11015889D02*
X7599229Y-11034936D01*
X7599229Y-11034936D02*
X7608753Y-11044460D01*
X7608753Y-11044460D02*
X7627801Y-11053984D01*
X7627801Y-11053984D02*
X7665896Y-11053984D01*
X7665896Y-11053984D02*
X7684944Y-11044460D01*
X7684944Y-11044460D02*
X7694468Y-11034936D01*
X7694468Y-11034936D02*
X7703991Y-11015889D01*
X7703991Y-11015889D02*
X7703991Y-10977793D01*
X7703991Y-10977793D02*
X7694468Y-10958746D01*
X7694468Y-10958746D02*
X7684944Y-10949222D01*
X7684944Y-10949222D02*
X7665896Y-10939698D01*
X7942087Y-11053984D02*
X7942087Y-10853984D01*
X8027801Y-11053984D02*
X8027801Y-10949222D01*
X8027801Y-10949222D02*
X8018277Y-10930174D01*
X8018277Y-10930174D02*
X7999230Y-10920650D01*
X7999230Y-10920650D02*
X7970658Y-10920650D01*
X7970658Y-10920650D02*
X7951610Y-10930174D01*
X7951610Y-10930174D02*
X7942087Y-10939698D01*
X8151610Y-11053984D02*
X8132563Y-11044460D01*
X8132563Y-11044460D02*
X8123039Y-11034936D01*
X8123039Y-11034936D02*
X8113515Y-11015889D01*
X8113515Y-11015889D02*
X8113515Y-10958746D01*
X8113515Y-10958746D02*
X8123039Y-10939698D01*
X8123039Y-10939698D02*
X8132563Y-10930174D01*
X8132563Y-10930174D02*
X8151610Y-10920650D01*
X8151610Y-10920650D02*
X8180182Y-10920650D01*
X8180182Y-10920650D02*
X8199230Y-10930174D01*
X8199230Y-10930174D02*
X8208753Y-10939698D01*
X8208753Y-10939698D02*
X8218277Y-10958746D01*
X8218277Y-10958746D02*
X8218277Y-11015889D01*
X8218277Y-11015889D02*
X8208753Y-11034936D01*
X8208753Y-11034936D02*
X8199230Y-11044460D01*
X8199230Y-11044460D02*
X8180182Y-11053984D01*
X8180182Y-11053984D02*
X8151610Y-11053984D01*
X8332563Y-11053984D02*
X8313515Y-11044460D01*
X8313515Y-11044460D02*
X8303991Y-11025412D01*
X8303991Y-11025412D02*
X8303991Y-10853984D01*
X8484944Y-11044460D02*
X8465896Y-11053984D01*
X8465896Y-11053984D02*
X8427801Y-11053984D01*
X8427801Y-11053984D02*
X8408753Y-11044460D01*
X8408753Y-11044460D02*
X8399230Y-11025412D01*
X8399230Y-11025412D02*
X8399230Y-10949222D01*
X8399230Y-10949222D02*
X8408753Y-10930174D01*
X8408753Y-10930174D02*
X8427801Y-10920650D01*
X8427801Y-10920650D02*
X8465896Y-10920650D01*
X8465896Y-10920650D02*
X8484944Y-10930174D01*
X8484944Y-10930174D02*
X8494468Y-10949222D01*
X8494468Y-10949222D02*
X8494468Y-10968270D01*
X8494468Y-10968270D02*
X8399230Y-10987317D01*
X8570658Y-11044460D02*
X8589706Y-11053984D01*
X8589706Y-11053984D02*
X8627801Y-11053984D01*
X8627801Y-11053984D02*
X8646849Y-11044460D01*
X8646849Y-11044460D02*
X8656373Y-11025412D01*
X8656373Y-11025412D02*
X8656373Y-11015889D01*
X8656373Y-11015889D02*
X8646849Y-10996841D01*
X8646849Y-10996841D02*
X8627801Y-10987317D01*
X8627801Y-10987317D02*
X8599230Y-10987317D01*
X8599230Y-10987317D02*
X8580182Y-10977793D01*
X8580182Y-10977793D02*
X8570658Y-10958746D01*
X8570658Y-10958746D02*
X8570658Y-10949222D01*
X8570658Y-10949222D02*
X8580182Y-10930174D01*
X8580182Y-10930174D02*
X8599230Y-10920650D01*
X8599230Y-10920650D02*
X8627801Y-10920650D01*
X8627801Y-10920650D02*
X8646849Y-10930174D01*
X8723039Y-11130174D02*
X8732563Y-11120650D01*
X8732563Y-11120650D02*
X8751611Y-11092079D01*
X8751611Y-11092079D02*
X8761134Y-11073031D01*
X8761134Y-11073031D02*
X8770658Y-11044460D01*
X8770658Y-11044460D02*
X8780182Y-10996841D01*
X8780182Y-10996841D02*
X8780182Y-10958746D01*
X8780182Y-10958746D02*
X8770658Y-10911127D01*
X8770658Y-10911127D02*
X8761134Y-10882555D01*
X8761134Y-10882555D02*
X8751611Y-10863508D01*
X8751611Y-10863508D02*
X8732563Y-10834936D01*
X8732563Y-10834936D02*
X8723039Y-10825412D01*
D13*
X3757500Y-11226500D02*
G75*
G02*
X3655500Y-11226500I-51000J0D01*
G01*
X3655500Y-11226500D02*
G75*
G02*
X3757500Y-11226500I51000J0D01*
G01*
D11*
X4123039Y-11317984D02*
X4008753Y-11317984D01*
X4065896Y-11317984D02*
X4065896Y-11117984D01*
X4065896Y-11117984D02*
X4046848Y-11146555D01*
X4046848Y-11146555D02*
X4027801Y-11165603D01*
X4027801Y-11165603D02*
X4008753Y-11175127D01*
X4208753Y-11298936D02*
X4218277Y-11308460D01*
X4218277Y-11308460D02*
X4208753Y-11317984D01*
X4208753Y-11317984D02*
X4199229Y-11308460D01*
X4199229Y-11308460D02*
X4208753Y-11298936D01*
X4208753Y-11298936D02*
X4208753Y-11317984D01*
X4342086Y-11117984D02*
X4361134Y-11117984D01*
X4361134Y-11117984D02*
X4380182Y-11127508D01*
X4380182Y-11127508D02*
X4389705Y-11137031D01*
X4389705Y-11137031D02*
X4399229Y-11156079D01*
X4399229Y-11156079D02*
X4408753Y-11194174D01*
X4408753Y-11194174D02*
X4408753Y-11241793D01*
X4408753Y-11241793D02*
X4399229Y-11279888D01*
X4399229Y-11279888D02*
X4389705Y-11298936D01*
X4389705Y-11298936D02*
X4380182Y-11308460D01*
X4380182Y-11308460D02*
X4361134Y-11317984D01*
X4361134Y-11317984D02*
X4342086Y-11317984D01*
X4342086Y-11317984D02*
X4323039Y-11308460D01*
X4323039Y-11308460D02*
X4313515Y-11298936D01*
X4313515Y-11298936D02*
X4303991Y-11279888D01*
X4303991Y-11279888D02*
X4294467Y-11241793D01*
X4294467Y-11241793D02*
X4294467Y-11194174D01*
X4294467Y-11194174D02*
X4303991Y-11156079D01*
X4303991Y-11156079D02*
X4313515Y-11137031D01*
X4313515Y-11137031D02*
X4323039Y-11127508D01*
X4323039Y-11127508D02*
X4342086Y-11117984D01*
X4484944Y-11137031D02*
X4494467Y-11127508D01*
X4494467Y-11127508D02*
X4513515Y-11117984D01*
X4513515Y-11117984D02*
X4561134Y-11117984D01*
X4561134Y-11117984D02*
X4580182Y-11127508D01*
X4580182Y-11127508D02*
X4589705Y-11137031D01*
X4589705Y-11137031D02*
X4599229Y-11156079D01*
X4599229Y-11156079D02*
X4599229Y-11175127D01*
X4599229Y-11175127D02*
X4589705Y-11203698D01*
X4589705Y-11203698D02*
X4475420Y-11317984D01*
X4475420Y-11317984D02*
X4599229Y-11317984D01*
X4723039Y-11117984D02*
X4742086Y-11117984D01*
X4742086Y-11117984D02*
X4761134Y-11127508D01*
X4761134Y-11127508D02*
X4770658Y-11137031D01*
X4770658Y-11137031D02*
X4780182Y-11156079D01*
X4780182Y-11156079D02*
X4789705Y-11194174D01*
X4789705Y-11194174D02*
X4789705Y-11241793D01*
X4789705Y-11241793D02*
X4780182Y-11279888D01*
X4780182Y-11279888D02*
X4770658Y-11298936D01*
X4770658Y-11298936D02*
X4761134Y-11308460D01*
X4761134Y-11308460D02*
X4742086Y-11317984D01*
X4742086Y-11317984D02*
X4723039Y-11317984D01*
X4723039Y-11317984D02*
X4703991Y-11308460D01*
X4703991Y-11308460D02*
X4694467Y-11298936D01*
X4694467Y-11298936D02*
X4684944Y-11279888D01*
X4684944Y-11279888D02*
X4675420Y-11241793D01*
X4675420Y-11241793D02*
X4675420Y-11194174D01*
X4675420Y-11194174D02*
X4684944Y-11156079D01*
X4684944Y-11156079D02*
X4694467Y-11137031D01*
X4694467Y-11137031D02*
X4703991Y-11127508D01*
X4703991Y-11127508D02*
X4723039Y-11117984D01*
X4875420Y-11317984D02*
X4875420Y-11184650D01*
X4875420Y-11203698D02*
X4884944Y-11194174D01*
X4884944Y-11194174D02*
X4903991Y-11184650D01*
X4903991Y-11184650D02*
X4932563Y-11184650D01*
X4932563Y-11184650D02*
X4951610Y-11194174D01*
X4951610Y-11194174D02*
X4961134Y-11213222D01*
X4961134Y-11213222D02*
X4961134Y-11317984D01*
X4961134Y-11213222D02*
X4970658Y-11194174D01*
X4970658Y-11194174D02*
X4989705Y-11184650D01*
X4989705Y-11184650D02*
X5018277Y-11184650D01*
X5018277Y-11184650D02*
X5037325Y-11194174D01*
X5037325Y-11194174D02*
X5046848Y-11213222D01*
X5046848Y-11213222D02*
X5046848Y-11317984D01*
X5142086Y-11317984D02*
X5142086Y-11184650D01*
X5142086Y-11203698D02*
X5151610Y-11194174D01*
X5151610Y-11194174D02*
X5170658Y-11184650D01*
X5170658Y-11184650D02*
X5199229Y-11184650D01*
X5199229Y-11184650D02*
X5218277Y-11194174D01*
X5218277Y-11194174D02*
X5227801Y-11213222D01*
X5227801Y-11213222D02*
X5227801Y-11317984D01*
X5227801Y-11213222D02*
X5237325Y-11194174D01*
X5237325Y-11194174D02*
X5256372Y-11184650D01*
X5256372Y-11184650D02*
X5284944Y-11184650D01*
X5284944Y-11184650D02*
X5303991Y-11194174D01*
X5303991Y-11194174D02*
X5313515Y-11213222D01*
X5313515Y-11213222D02*
X5313515Y-11317984D01*
X5703991Y-11108460D02*
X5532563Y-11365603D01*
X5961134Y-11117984D02*
X5980182Y-11117984D01*
X5980182Y-11117984D02*
X5999229Y-11127508D01*
X5999229Y-11127508D02*
X6008753Y-11137031D01*
X6008753Y-11137031D02*
X6018277Y-11156079D01*
X6018277Y-11156079D02*
X6027801Y-11194174D01*
X6027801Y-11194174D02*
X6027801Y-11241793D01*
X6027801Y-11241793D02*
X6018277Y-11279888D01*
X6018277Y-11279888D02*
X6008753Y-11298936D01*
X6008753Y-11298936D02*
X5999229Y-11308460D01*
X5999229Y-11308460D02*
X5980182Y-11317984D01*
X5980182Y-11317984D02*
X5961134Y-11317984D01*
X5961134Y-11317984D02*
X5942086Y-11308460D01*
X5942086Y-11308460D02*
X5932563Y-11298936D01*
X5932563Y-11298936D02*
X5923039Y-11279888D01*
X5923039Y-11279888D02*
X5913515Y-11241793D01*
X5913515Y-11241793D02*
X5913515Y-11194174D01*
X5913515Y-11194174D02*
X5923039Y-11156079D01*
X5923039Y-11156079D02*
X5932563Y-11137031D01*
X5932563Y-11137031D02*
X5942086Y-11127508D01*
X5942086Y-11127508D02*
X5961134Y-11117984D01*
X6113515Y-11298936D02*
X6123039Y-11308460D01*
X6123039Y-11308460D02*
X6113515Y-11317984D01*
X6113515Y-11317984D02*
X6103991Y-11308460D01*
X6103991Y-11308460D02*
X6113515Y-11298936D01*
X6113515Y-11298936D02*
X6113515Y-11317984D01*
X6246848Y-11117984D02*
X6265896Y-11117984D01*
X6265896Y-11117984D02*
X6284944Y-11127508D01*
X6284944Y-11127508D02*
X6294467Y-11137031D01*
X6294467Y-11137031D02*
X6303991Y-11156079D01*
X6303991Y-11156079D02*
X6313515Y-11194174D01*
X6313515Y-11194174D02*
X6313515Y-11241793D01*
X6313515Y-11241793D02*
X6303991Y-11279888D01*
X6303991Y-11279888D02*
X6294467Y-11298936D01*
X6294467Y-11298936D02*
X6284944Y-11308460D01*
X6284944Y-11308460D02*
X6265896Y-11317984D01*
X6265896Y-11317984D02*
X6246848Y-11317984D01*
X6246848Y-11317984D02*
X6227801Y-11308460D01*
X6227801Y-11308460D02*
X6218277Y-11298936D01*
X6218277Y-11298936D02*
X6208753Y-11279888D01*
X6208753Y-11279888D02*
X6199229Y-11241793D01*
X6199229Y-11241793D02*
X6199229Y-11194174D01*
X6199229Y-11194174D02*
X6208753Y-11156079D01*
X6208753Y-11156079D02*
X6218277Y-11137031D01*
X6218277Y-11137031D02*
X6227801Y-11127508D01*
X6227801Y-11127508D02*
X6246848Y-11117984D01*
X6484944Y-11184650D02*
X6484944Y-11317984D01*
X6437325Y-11108460D02*
X6389706Y-11251317D01*
X6389706Y-11251317D02*
X6513515Y-11251317D01*
X6627801Y-11117984D02*
X6646848Y-11117984D01*
X6646848Y-11117984D02*
X6665896Y-11127508D01*
X6665896Y-11127508D02*
X6675420Y-11137031D01*
X6675420Y-11137031D02*
X6684944Y-11156079D01*
X6684944Y-11156079D02*
X6694467Y-11194174D01*
X6694467Y-11194174D02*
X6694467Y-11241793D01*
X6694467Y-11241793D02*
X6684944Y-11279888D01*
X6684944Y-11279888D02*
X6675420Y-11298936D01*
X6675420Y-11298936D02*
X6665896Y-11308460D01*
X6665896Y-11308460D02*
X6646848Y-11317984D01*
X6646848Y-11317984D02*
X6627801Y-11317984D01*
X6627801Y-11317984D02*
X6608753Y-11308460D01*
X6608753Y-11308460D02*
X6599229Y-11298936D01*
X6599229Y-11298936D02*
X6589706Y-11279888D01*
X6589706Y-11279888D02*
X6580182Y-11241793D01*
X6580182Y-11241793D02*
X6580182Y-11194174D01*
X6580182Y-11194174D02*
X6589706Y-11156079D01*
X6589706Y-11156079D02*
X6599229Y-11137031D01*
X6599229Y-11137031D02*
X6608753Y-11127508D01*
X6608753Y-11127508D02*
X6627801Y-11117984D01*
X6770658Y-11137031D02*
X6780182Y-11127508D01*
X6780182Y-11127508D02*
X6799229Y-11117984D01*
X6799229Y-11117984D02*
X6846848Y-11117984D01*
X6846848Y-11117984D02*
X6865896Y-11127508D01*
X6865896Y-11127508D02*
X6875420Y-11137031D01*
X6875420Y-11137031D02*
X6884944Y-11156079D01*
X6884944Y-11156079D02*
X6884944Y-11175127D01*
X6884944Y-11175127D02*
X6875420Y-11203698D01*
X6875420Y-11203698D02*
X6761134Y-11317984D01*
X6761134Y-11317984D02*
X6884944Y-11317984D01*
X6961134Y-11117984D02*
X6961134Y-11156079D01*
X7037325Y-11117984D02*
X7037325Y-11156079D01*
X7332563Y-11394174D02*
X7323039Y-11384650D01*
X7323039Y-11384650D02*
X7303991Y-11356079D01*
X7303991Y-11356079D02*
X7294468Y-11337031D01*
X7294468Y-11337031D02*
X7284944Y-11308460D01*
X7284944Y-11308460D02*
X7275420Y-11260841D01*
X7275420Y-11260841D02*
X7275420Y-11222746D01*
X7275420Y-11222746D02*
X7284944Y-11175127D01*
X7284944Y-11175127D02*
X7294468Y-11146555D01*
X7294468Y-11146555D02*
X7303991Y-11127508D01*
X7303991Y-11127508D02*
X7323039Y-11098936D01*
X7323039Y-11098936D02*
X7332563Y-11089412D01*
X7494468Y-11184650D02*
X7494468Y-11317984D01*
X7446848Y-11108460D02*
X7399229Y-11251317D01*
X7399229Y-11251317D02*
X7523039Y-11251317D01*
X7637325Y-11117984D02*
X7656372Y-11117984D01*
X7656372Y-11117984D02*
X7675420Y-11127508D01*
X7675420Y-11127508D02*
X7684944Y-11137031D01*
X7684944Y-11137031D02*
X7694468Y-11156079D01*
X7694468Y-11156079D02*
X7703991Y-11194174D01*
X7703991Y-11194174D02*
X7703991Y-11241793D01*
X7703991Y-11241793D02*
X7694468Y-11279888D01*
X7694468Y-11279888D02*
X7684944Y-11298936D01*
X7684944Y-11298936D02*
X7675420Y-11308460D01*
X7675420Y-11308460D02*
X7656372Y-11317984D01*
X7656372Y-11317984D02*
X7637325Y-11317984D01*
X7637325Y-11317984D02*
X7618277Y-11308460D01*
X7618277Y-11308460D02*
X7608753Y-11298936D01*
X7608753Y-11298936D02*
X7599229Y-11279888D01*
X7599229Y-11279888D02*
X7589706Y-11241793D01*
X7589706Y-11241793D02*
X7589706Y-11194174D01*
X7589706Y-11194174D02*
X7599229Y-11156079D01*
X7599229Y-11156079D02*
X7608753Y-11137031D01*
X7608753Y-11137031D02*
X7618277Y-11127508D01*
X7618277Y-11127508D02*
X7637325Y-11117984D01*
X7942087Y-11317984D02*
X7942087Y-11117984D01*
X8027801Y-11317984D02*
X8027801Y-11213222D01*
X8027801Y-11213222D02*
X8018277Y-11194174D01*
X8018277Y-11194174D02*
X7999230Y-11184650D01*
X7999230Y-11184650D02*
X7970658Y-11184650D01*
X7970658Y-11184650D02*
X7951610Y-11194174D01*
X7951610Y-11194174D02*
X7942087Y-11203698D01*
X8151610Y-11317984D02*
X8132563Y-11308460D01*
X8132563Y-11308460D02*
X8123039Y-11298936D01*
X8123039Y-11298936D02*
X8113515Y-11279888D01*
X8113515Y-11279888D02*
X8113515Y-11222746D01*
X8113515Y-11222746D02*
X8123039Y-11203698D01*
X8123039Y-11203698D02*
X8132563Y-11194174D01*
X8132563Y-11194174D02*
X8151610Y-11184650D01*
X8151610Y-11184650D02*
X8180182Y-11184650D01*
X8180182Y-11184650D02*
X8199230Y-11194174D01*
X8199230Y-11194174D02*
X8208753Y-11203698D01*
X8208753Y-11203698D02*
X8218277Y-11222746D01*
X8218277Y-11222746D02*
X8218277Y-11279888D01*
X8218277Y-11279888D02*
X8208753Y-11298936D01*
X8208753Y-11298936D02*
X8199230Y-11308460D01*
X8199230Y-11308460D02*
X8180182Y-11317984D01*
X8180182Y-11317984D02*
X8151610Y-11317984D01*
X8332563Y-11317984D02*
X8313515Y-11308460D01*
X8313515Y-11308460D02*
X8303991Y-11289412D01*
X8303991Y-11289412D02*
X8303991Y-11117984D01*
X8484944Y-11308460D02*
X8465896Y-11317984D01*
X8465896Y-11317984D02*
X8427801Y-11317984D01*
X8427801Y-11317984D02*
X8408753Y-11308460D01*
X8408753Y-11308460D02*
X8399230Y-11289412D01*
X8399230Y-11289412D02*
X8399230Y-11213222D01*
X8399230Y-11213222D02*
X8408753Y-11194174D01*
X8408753Y-11194174D02*
X8427801Y-11184650D01*
X8427801Y-11184650D02*
X8465896Y-11184650D01*
X8465896Y-11184650D02*
X8484944Y-11194174D01*
X8484944Y-11194174D02*
X8494468Y-11213222D01*
X8494468Y-11213222D02*
X8494468Y-11232269D01*
X8494468Y-11232269D02*
X8399230Y-11251317D01*
X8570658Y-11308460D02*
X8589706Y-11317984D01*
X8589706Y-11317984D02*
X8627801Y-11317984D01*
X8627801Y-11317984D02*
X8646849Y-11308460D01*
X8646849Y-11308460D02*
X8656373Y-11289412D01*
X8656373Y-11289412D02*
X8656373Y-11279888D01*
X8656373Y-11279888D02*
X8646849Y-11260841D01*
X8646849Y-11260841D02*
X8627801Y-11251317D01*
X8627801Y-11251317D02*
X8599230Y-11251317D01*
X8599230Y-11251317D02*
X8580182Y-11241793D01*
X8580182Y-11241793D02*
X8570658Y-11222746D01*
X8570658Y-11222746D02*
X8570658Y-11213222D01*
X8570658Y-11213222D02*
X8580182Y-11194174D01*
X8580182Y-11194174D02*
X8599230Y-11184650D01*
X8599230Y-11184650D02*
X8627801Y-11184650D01*
X8627801Y-11184650D02*
X8646849Y-11194174D01*
X8723039Y-11394174D02*
X8732563Y-11384650D01*
X8732563Y-11384650D02*
X8751611Y-11356079D01*
X8751611Y-11356079D02*
X8761134Y-11337031D01*
X8761134Y-11337031D02*
X8770658Y-11308460D01*
X8770658Y-11308460D02*
X8780182Y-11260841D01*
X8780182Y-11260841D02*
X8780182Y-11222746D01*
X8780182Y-11222746D02*
X8770658Y-11175127D01*
X8770658Y-11175127D02*
X8761134Y-11146555D01*
X8761134Y-11146555D02*
X8751611Y-11127508D01*
X8751611Y-11127508D02*
X8732563Y-11098936D01*
X8732563Y-11098936D02*
X8723039Y-11089412D01*
D14*
X3682500Y-11415500D02*
X3682500Y-11565500D01*
X3607500Y-11490500D02*
X3757500Y-11490500D01*
D11*
X4123039Y-11581984D02*
X4008753Y-11581984D01*
X4065896Y-11581984D02*
X4065896Y-11381984D01*
X4065896Y-11381984D02*
X4046848Y-11410555D01*
X4046848Y-11410555D02*
X4027801Y-11429603D01*
X4027801Y-11429603D02*
X4008753Y-11439127D01*
X4208753Y-11562936D02*
X4218277Y-11572460D01*
X4218277Y-11572460D02*
X4208753Y-11581984D01*
X4208753Y-11581984D02*
X4199229Y-11572460D01*
X4199229Y-11572460D02*
X4208753Y-11562936D01*
X4208753Y-11562936D02*
X4208753Y-11581984D01*
X4399229Y-11381984D02*
X4303991Y-11381984D01*
X4303991Y-11381984D02*
X4294467Y-11477222D01*
X4294467Y-11477222D02*
X4303991Y-11467698D01*
X4303991Y-11467698D02*
X4323039Y-11458174D01*
X4323039Y-11458174D02*
X4370658Y-11458174D01*
X4370658Y-11458174D02*
X4389705Y-11467698D01*
X4389705Y-11467698D02*
X4399229Y-11477222D01*
X4399229Y-11477222D02*
X4408753Y-11496269D01*
X4408753Y-11496269D02*
X4408753Y-11543888D01*
X4408753Y-11543888D02*
X4399229Y-11562936D01*
X4399229Y-11562936D02*
X4389705Y-11572460D01*
X4389705Y-11572460D02*
X4370658Y-11581984D01*
X4370658Y-11581984D02*
X4323039Y-11581984D01*
X4323039Y-11581984D02*
X4303991Y-11572460D01*
X4303991Y-11572460D02*
X4294467Y-11562936D01*
X4532563Y-11381984D02*
X4551610Y-11381984D01*
X4551610Y-11381984D02*
X4570658Y-11391508D01*
X4570658Y-11391508D02*
X4580182Y-11401031D01*
X4580182Y-11401031D02*
X4589705Y-11420079D01*
X4589705Y-11420079D02*
X4599229Y-11458174D01*
X4599229Y-11458174D02*
X4599229Y-11505793D01*
X4599229Y-11505793D02*
X4589705Y-11543888D01*
X4589705Y-11543888D02*
X4580182Y-11562936D01*
X4580182Y-11562936D02*
X4570658Y-11572460D01*
X4570658Y-11572460D02*
X4551610Y-11581984D01*
X4551610Y-11581984D02*
X4532563Y-11581984D01*
X4532563Y-11581984D02*
X4513515Y-11572460D01*
X4513515Y-11572460D02*
X4503991Y-11562936D01*
X4503991Y-11562936D02*
X4494467Y-11543888D01*
X4494467Y-11543888D02*
X4484944Y-11505793D01*
X4484944Y-11505793D02*
X4484944Y-11458174D01*
X4484944Y-11458174D02*
X4494467Y-11420079D01*
X4494467Y-11420079D02*
X4503991Y-11401031D01*
X4503991Y-11401031D02*
X4513515Y-11391508D01*
X4513515Y-11391508D02*
X4532563Y-11381984D01*
X4723039Y-11381984D02*
X4742086Y-11381984D01*
X4742086Y-11381984D02*
X4761134Y-11391508D01*
X4761134Y-11391508D02*
X4770658Y-11401031D01*
X4770658Y-11401031D02*
X4780182Y-11420079D01*
X4780182Y-11420079D02*
X4789705Y-11458174D01*
X4789705Y-11458174D02*
X4789705Y-11505793D01*
X4789705Y-11505793D02*
X4780182Y-11543888D01*
X4780182Y-11543888D02*
X4770658Y-11562936D01*
X4770658Y-11562936D02*
X4761134Y-11572460D01*
X4761134Y-11572460D02*
X4742086Y-11581984D01*
X4742086Y-11581984D02*
X4723039Y-11581984D01*
X4723039Y-11581984D02*
X4703991Y-11572460D01*
X4703991Y-11572460D02*
X4694467Y-11562936D01*
X4694467Y-11562936D02*
X4684944Y-11543888D01*
X4684944Y-11543888D02*
X4675420Y-11505793D01*
X4675420Y-11505793D02*
X4675420Y-11458174D01*
X4675420Y-11458174D02*
X4684944Y-11420079D01*
X4684944Y-11420079D02*
X4694467Y-11401031D01*
X4694467Y-11401031D02*
X4703991Y-11391508D01*
X4703991Y-11391508D02*
X4723039Y-11381984D01*
X4875420Y-11581984D02*
X4875420Y-11448650D01*
X4875420Y-11467698D02*
X4884944Y-11458174D01*
X4884944Y-11458174D02*
X4903991Y-11448650D01*
X4903991Y-11448650D02*
X4932563Y-11448650D01*
X4932563Y-11448650D02*
X4951610Y-11458174D01*
X4951610Y-11458174D02*
X4961134Y-11477222D01*
X4961134Y-11477222D02*
X4961134Y-11581984D01*
X4961134Y-11477222D02*
X4970658Y-11458174D01*
X4970658Y-11458174D02*
X4989705Y-11448650D01*
X4989705Y-11448650D02*
X5018277Y-11448650D01*
X5018277Y-11448650D02*
X5037325Y-11458174D01*
X5037325Y-11458174D02*
X5046848Y-11477222D01*
X5046848Y-11477222D02*
X5046848Y-11581984D01*
X5142086Y-11581984D02*
X5142086Y-11448650D01*
X5142086Y-11467698D02*
X5151610Y-11458174D01*
X5151610Y-11458174D02*
X5170658Y-11448650D01*
X5170658Y-11448650D02*
X5199229Y-11448650D01*
X5199229Y-11448650D02*
X5218277Y-11458174D01*
X5218277Y-11458174D02*
X5227801Y-11477222D01*
X5227801Y-11477222D02*
X5227801Y-11581984D01*
X5227801Y-11477222D02*
X5237325Y-11458174D01*
X5237325Y-11458174D02*
X5256372Y-11448650D01*
X5256372Y-11448650D02*
X5284944Y-11448650D01*
X5284944Y-11448650D02*
X5303991Y-11458174D01*
X5303991Y-11458174D02*
X5313515Y-11477222D01*
X5313515Y-11477222D02*
X5313515Y-11581984D01*
X5703991Y-11372460D02*
X5532563Y-11629603D01*
X5961134Y-11381984D02*
X5980182Y-11381984D01*
X5980182Y-11381984D02*
X5999229Y-11391508D01*
X5999229Y-11391508D02*
X6008753Y-11401031D01*
X6008753Y-11401031D02*
X6018277Y-11420079D01*
X6018277Y-11420079D02*
X6027801Y-11458174D01*
X6027801Y-11458174D02*
X6027801Y-11505793D01*
X6027801Y-11505793D02*
X6018277Y-11543888D01*
X6018277Y-11543888D02*
X6008753Y-11562936D01*
X6008753Y-11562936D02*
X5999229Y-11572460D01*
X5999229Y-11572460D02*
X5980182Y-11581984D01*
X5980182Y-11581984D02*
X5961134Y-11581984D01*
X5961134Y-11581984D02*
X5942086Y-11572460D01*
X5942086Y-11572460D02*
X5932563Y-11562936D01*
X5932563Y-11562936D02*
X5923039Y-11543888D01*
X5923039Y-11543888D02*
X5913515Y-11505793D01*
X5913515Y-11505793D02*
X5913515Y-11458174D01*
X5913515Y-11458174D02*
X5923039Y-11420079D01*
X5923039Y-11420079D02*
X5932563Y-11401031D01*
X5932563Y-11401031D02*
X5942086Y-11391508D01*
X5942086Y-11391508D02*
X5961134Y-11381984D01*
X6113515Y-11562936D02*
X6123039Y-11572460D01*
X6123039Y-11572460D02*
X6113515Y-11581984D01*
X6113515Y-11581984D02*
X6103991Y-11572460D01*
X6103991Y-11572460D02*
X6113515Y-11562936D01*
X6113515Y-11562936D02*
X6113515Y-11581984D01*
X6246848Y-11381984D02*
X6265896Y-11381984D01*
X6265896Y-11381984D02*
X6284944Y-11391508D01*
X6284944Y-11391508D02*
X6294467Y-11401031D01*
X6294467Y-11401031D02*
X6303991Y-11420079D01*
X6303991Y-11420079D02*
X6313515Y-11458174D01*
X6313515Y-11458174D02*
X6313515Y-11505793D01*
X6313515Y-11505793D02*
X6303991Y-11543888D01*
X6303991Y-11543888D02*
X6294467Y-11562936D01*
X6294467Y-11562936D02*
X6284944Y-11572460D01*
X6284944Y-11572460D02*
X6265896Y-11581984D01*
X6265896Y-11581984D02*
X6246848Y-11581984D01*
X6246848Y-11581984D02*
X6227801Y-11572460D01*
X6227801Y-11572460D02*
X6218277Y-11562936D01*
X6218277Y-11562936D02*
X6208753Y-11543888D01*
X6208753Y-11543888D02*
X6199229Y-11505793D01*
X6199229Y-11505793D02*
X6199229Y-11458174D01*
X6199229Y-11458174D02*
X6208753Y-11420079D01*
X6208753Y-11420079D02*
X6218277Y-11401031D01*
X6218277Y-11401031D02*
X6227801Y-11391508D01*
X6227801Y-11391508D02*
X6246848Y-11381984D01*
X6494467Y-11381984D02*
X6399229Y-11381984D01*
X6399229Y-11381984D02*
X6389706Y-11477222D01*
X6389706Y-11477222D02*
X6399229Y-11467698D01*
X6399229Y-11467698D02*
X6418277Y-11458174D01*
X6418277Y-11458174D02*
X6465896Y-11458174D01*
X6465896Y-11458174D02*
X6484944Y-11467698D01*
X6484944Y-11467698D02*
X6494467Y-11477222D01*
X6494467Y-11477222D02*
X6503991Y-11496269D01*
X6503991Y-11496269D02*
X6503991Y-11543888D01*
X6503991Y-11543888D02*
X6494467Y-11562936D01*
X6494467Y-11562936D02*
X6484944Y-11572460D01*
X6484944Y-11572460D02*
X6465896Y-11581984D01*
X6465896Y-11581984D02*
X6418277Y-11581984D01*
X6418277Y-11581984D02*
X6399229Y-11572460D01*
X6399229Y-11572460D02*
X6389706Y-11562936D01*
X6599229Y-11581984D02*
X6637325Y-11581984D01*
X6637325Y-11581984D02*
X6656372Y-11572460D01*
X6656372Y-11572460D02*
X6665896Y-11562936D01*
X6665896Y-11562936D02*
X6684944Y-11534365D01*
X6684944Y-11534365D02*
X6694467Y-11496269D01*
X6694467Y-11496269D02*
X6694467Y-11420079D01*
X6694467Y-11420079D02*
X6684944Y-11401031D01*
X6684944Y-11401031D02*
X6675420Y-11391508D01*
X6675420Y-11391508D02*
X6656372Y-11381984D01*
X6656372Y-11381984D02*
X6618277Y-11381984D01*
X6618277Y-11381984D02*
X6599229Y-11391508D01*
X6599229Y-11391508D02*
X6589706Y-11401031D01*
X6589706Y-11401031D02*
X6580182Y-11420079D01*
X6580182Y-11420079D02*
X6580182Y-11467698D01*
X6580182Y-11467698D02*
X6589706Y-11486746D01*
X6589706Y-11486746D02*
X6599229Y-11496269D01*
X6599229Y-11496269D02*
X6618277Y-11505793D01*
X6618277Y-11505793D02*
X6656372Y-11505793D01*
X6656372Y-11505793D02*
X6675420Y-11496269D01*
X6675420Y-11496269D02*
X6684944Y-11486746D01*
X6684944Y-11486746D02*
X6694467Y-11467698D01*
X6884944Y-11581984D02*
X6770658Y-11581984D01*
X6827801Y-11581984D02*
X6827801Y-11381984D01*
X6827801Y-11381984D02*
X6808753Y-11410555D01*
X6808753Y-11410555D02*
X6789706Y-11429603D01*
X6789706Y-11429603D02*
X6770658Y-11439127D01*
X6961134Y-11381984D02*
X6961134Y-11420079D01*
X7037325Y-11381984D02*
X7037325Y-11420079D01*
X7332563Y-11658174D02*
X7323039Y-11648650D01*
X7323039Y-11648650D02*
X7303991Y-11620079D01*
X7303991Y-11620079D02*
X7294468Y-11601031D01*
X7294468Y-11601031D02*
X7284944Y-11572460D01*
X7284944Y-11572460D02*
X7275420Y-11524841D01*
X7275420Y-11524841D02*
X7275420Y-11486746D01*
X7275420Y-11486746D02*
X7284944Y-11439127D01*
X7284944Y-11439127D02*
X7294468Y-11410555D01*
X7294468Y-11410555D02*
X7303991Y-11391508D01*
X7303991Y-11391508D02*
X7323039Y-11362936D01*
X7323039Y-11362936D02*
X7332563Y-11353412D01*
X7513515Y-11581984D02*
X7399229Y-11581984D01*
X7456372Y-11581984D02*
X7456372Y-11381984D01*
X7456372Y-11381984D02*
X7437325Y-11410555D01*
X7437325Y-11410555D02*
X7418277Y-11429603D01*
X7418277Y-11429603D02*
X7399229Y-11439127D01*
X7627801Y-11467698D02*
X7608753Y-11458174D01*
X7608753Y-11458174D02*
X7599229Y-11448650D01*
X7599229Y-11448650D02*
X7589706Y-11429603D01*
X7589706Y-11429603D02*
X7589706Y-11420079D01*
X7589706Y-11420079D02*
X7599229Y-11401031D01*
X7599229Y-11401031D02*
X7608753Y-11391508D01*
X7608753Y-11391508D02*
X7627801Y-11381984D01*
X7627801Y-11381984D02*
X7665896Y-11381984D01*
X7665896Y-11381984D02*
X7684944Y-11391508D01*
X7684944Y-11391508D02*
X7694468Y-11401031D01*
X7694468Y-11401031D02*
X7703991Y-11420079D01*
X7703991Y-11420079D02*
X7703991Y-11429603D01*
X7703991Y-11429603D02*
X7694468Y-11448650D01*
X7694468Y-11448650D02*
X7684944Y-11458174D01*
X7684944Y-11458174D02*
X7665896Y-11467698D01*
X7665896Y-11467698D02*
X7627801Y-11467698D01*
X7627801Y-11467698D02*
X7608753Y-11477222D01*
X7608753Y-11477222D02*
X7599229Y-11486746D01*
X7599229Y-11486746D02*
X7589706Y-11505793D01*
X7589706Y-11505793D02*
X7589706Y-11543888D01*
X7589706Y-11543888D02*
X7599229Y-11562936D01*
X7599229Y-11562936D02*
X7608753Y-11572460D01*
X7608753Y-11572460D02*
X7627801Y-11581984D01*
X7627801Y-11581984D02*
X7665896Y-11581984D01*
X7665896Y-11581984D02*
X7684944Y-11572460D01*
X7684944Y-11572460D02*
X7694468Y-11562936D01*
X7694468Y-11562936D02*
X7703991Y-11543888D01*
X7703991Y-11543888D02*
X7703991Y-11505793D01*
X7703991Y-11505793D02*
X7694468Y-11486746D01*
X7694468Y-11486746D02*
X7684944Y-11477222D01*
X7684944Y-11477222D02*
X7665896Y-11467698D01*
X7942087Y-11581984D02*
X7942087Y-11381984D01*
X8027801Y-11581984D02*
X8027801Y-11477222D01*
X8027801Y-11477222D02*
X8018277Y-11458174D01*
X8018277Y-11458174D02*
X7999230Y-11448650D01*
X7999230Y-11448650D02*
X7970658Y-11448650D01*
X7970658Y-11448650D02*
X7951610Y-11458174D01*
X7951610Y-11458174D02*
X7942087Y-11467698D01*
X8151610Y-11581984D02*
X8132563Y-11572460D01*
X8132563Y-11572460D02*
X8123039Y-11562936D01*
X8123039Y-11562936D02*
X8113515Y-11543888D01*
X8113515Y-11543888D02*
X8113515Y-11486746D01*
X8113515Y-11486746D02*
X8123039Y-11467698D01*
X8123039Y-11467698D02*
X8132563Y-11458174D01*
X8132563Y-11458174D02*
X8151610Y-11448650D01*
X8151610Y-11448650D02*
X8180182Y-11448650D01*
X8180182Y-11448650D02*
X8199230Y-11458174D01*
X8199230Y-11458174D02*
X8208753Y-11467698D01*
X8208753Y-11467698D02*
X8218277Y-11486746D01*
X8218277Y-11486746D02*
X8218277Y-11543888D01*
X8218277Y-11543888D02*
X8208753Y-11562936D01*
X8208753Y-11562936D02*
X8199230Y-11572460D01*
X8199230Y-11572460D02*
X8180182Y-11581984D01*
X8180182Y-11581984D02*
X8151610Y-11581984D01*
X8332563Y-11581984D02*
X8313515Y-11572460D01*
X8313515Y-11572460D02*
X8303991Y-11553412D01*
X8303991Y-11553412D02*
X8303991Y-11381984D01*
X8484944Y-11572460D02*
X8465896Y-11581984D01*
X8465896Y-11581984D02*
X8427801Y-11581984D01*
X8427801Y-11581984D02*
X8408753Y-11572460D01*
X8408753Y-11572460D02*
X8399230Y-11553412D01*
X8399230Y-11553412D02*
X8399230Y-11477222D01*
X8399230Y-11477222D02*
X8408753Y-11458174D01*
X8408753Y-11458174D02*
X8427801Y-11448650D01*
X8427801Y-11448650D02*
X8465896Y-11448650D01*
X8465896Y-11448650D02*
X8484944Y-11458174D01*
X8484944Y-11458174D02*
X8494468Y-11477222D01*
X8494468Y-11477222D02*
X8494468Y-11496269D01*
X8494468Y-11496269D02*
X8399230Y-11515317D01*
X8570658Y-11572460D02*
X8589706Y-11581984D01*
X8589706Y-11581984D02*
X8627801Y-11581984D01*
X8627801Y-11581984D02*
X8646849Y-11572460D01*
X8646849Y-11572460D02*
X8656373Y-11553412D01*
X8656373Y-11553412D02*
X8656373Y-11543888D01*
X8656373Y-11543888D02*
X8646849Y-11524841D01*
X8646849Y-11524841D02*
X8627801Y-11515317D01*
X8627801Y-11515317D02*
X8599230Y-11515317D01*
X8599230Y-11515317D02*
X8580182Y-11505793D01*
X8580182Y-11505793D02*
X8570658Y-11486746D01*
X8570658Y-11486746D02*
X8570658Y-11477222D01*
X8570658Y-11477222D02*
X8580182Y-11458174D01*
X8580182Y-11458174D02*
X8599230Y-11448650D01*
X8599230Y-11448650D02*
X8627801Y-11448650D01*
X8627801Y-11448650D02*
X8646849Y-11458174D01*
X8723039Y-11658174D02*
X8732563Y-11648650D01*
X8732563Y-11648650D02*
X8751611Y-11620079D01*
X8751611Y-11620079D02*
X8761134Y-11601031D01*
X8761134Y-11601031D02*
X8770658Y-11572460D01*
X8770658Y-11572460D02*
X8780182Y-11524841D01*
X8780182Y-11524841D02*
X8780182Y-11486746D01*
X8780182Y-11486746D02*
X8770658Y-11439127D01*
X8770658Y-11439127D02*
X8761134Y-11410555D01*
X8761134Y-11410555D02*
X8751611Y-11391508D01*
X8751611Y-11391508D02*
X8732563Y-11362936D01*
X8732563Y-11362936D02*
X8723039Y-11353412D01*
M02*
