%TF.GenerationSoftware,KiCad,Pcbnew,8.0.3*%
%TF.CreationDate,2024-08-31T16:39:55+01:00*%
%TF.ProjectId,macropad,6d616372-6f70-4616-942e-6b696361645f,rev?*%
%TF.SameCoordinates,Original*%
%TF.FileFunction,Legend,Bot*%
%TF.FilePolarity,Positive*%
%FSLAX46Y46*%
G04 Gerber Fmt 4.6, Leading zero omitted, Abs format (unit mm)*
G04 Created by KiCad (PCBNEW 8.0.3) date 2024-08-31 16:39:55*
%MOMM*%
%LPD*%
G01*
G04 APERTURE LIST*
%ADD10C,0.100000*%
%ADD11C,0.150000*%
%ADD12C,0.120000*%
G04 APERTURE END LIST*
D10*
X93696115Y-59162475D02*
X93696115Y-58162475D01*
X93696115Y-58162475D02*
X93362782Y-58876760D01*
X93362782Y-58876760D02*
X93029449Y-58162475D01*
X93029449Y-58162475D02*
X93029449Y-59162475D01*
X92553258Y-59162475D02*
X92553258Y-58162475D01*
X91505640Y-59067236D02*
X91553259Y-59114856D01*
X91553259Y-59114856D02*
X91696116Y-59162475D01*
X91696116Y-59162475D02*
X91791354Y-59162475D01*
X91791354Y-59162475D02*
X91934211Y-59114856D01*
X91934211Y-59114856D02*
X92029449Y-59019617D01*
X92029449Y-59019617D02*
X92077068Y-58924379D01*
X92077068Y-58924379D02*
X92124687Y-58733903D01*
X92124687Y-58733903D02*
X92124687Y-58591046D01*
X92124687Y-58591046D02*
X92077068Y-58400570D01*
X92077068Y-58400570D02*
X92029449Y-58305332D01*
X92029449Y-58305332D02*
X91934211Y-58210094D01*
X91934211Y-58210094D02*
X91791354Y-58162475D01*
X91791354Y-58162475D02*
X91696116Y-58162475D01*
X91696116Y-58162475D02*
X91553259Y-58210094D01*
X91553259Y-58210094D02*
X91505640Y-58257713D01*
X91077068Y-59162475D02*
X91077068Y-58162475D01*
X91077068Y-58638665D02*
X90505640Y-58638665D01*
X90505640Y-59162475D02*
X90505640Y-58162475D01*
X90077068Y-58876760D02*
X89600878Y-58876760D01*
X90172306Y-59162475D02*
X89838973Y-58162475D01*
X89838973Y-58162475D02*
X89505640Y-59162475D01*
X88696116Y-59162475D02*
X89172306Y-59162475D01*
X89172306Y-59162475D02*
X89172306Y-58162475D01*
X87029449Y-59162475D02*
X87362782Y-58686284D01*
X87600877Y-59162475D02*
X87600877Y-58162475D01*
X87600877Y-58162475D02*
X87219925Y-58162475D01*
X87219925Y-58162475D02*
X87124687Y-58210094D01*
X87124687Y-58210094D02*
X87077068Y-58257713D01*
X87077068Y-58257713D02*
X87029449Y-58352951D01*
X87029449Y-58352951D02*
X87029449Y-58495808D01*
X87029449Y-58495808D02*
X87077068Y-58591046D01*
X87077068Y-58591046D02*
X87124687Y-58638665D01*
X87124687Y-58638665D02*
X87219925Y-58686284D01*
X87219925Y-58686284D02*
X87600877Y-58686284D01*
X86648496Y-58876760D02*
X86172306Y-58876760D01*
X86743734Y-59162475D02*
X86410401Y-58162475D01*
X86410401Y-58162475D02*
X86077068Y-59162475D01*
X85458020Y-58162475D02*
X85458020Y-58876760D01*
X85458020Y-58876760D02*
X85505639Y-59019617D01*
X85505639Y-59019617D02*
X85600877Y-59114856D01*
X85600877Y-59114856D02*
X85743734Y-59162475D01*
X85743734Y-59162475D02*
X85838972Y-59162475D01*
X85077067Y-58162475D02*
X84410401Y-58162475D01*
X84410401Y-58162475D02*
X85077067Y-59162475D01*
X85077067Y-59162475D02*
X84410401Y-59162475D01*
X84029448Y-58638665D02*
X83696115Y-58638665D01*
X83553258Y-59162475D02*
X84029448Y-59162475D01*
X84029448Y-59162475D02*
X84029448Y-58162475D01*
X84029448Y-58162475D02*
X83553258Y-58162475D01*
X82553258Y-59162475D02*
X82886591Y-58686284D01*
X83124686Y-59162475D02*
X83124686Y-58162475D01*
X83124686Y-58162475D02*
X82743734Y-58162475D01*
X82743734Y-58162475D02*
X82648496Y-58210094D01*
X82648496Y-58210094D02*
X82600877Y-58257713D01*
X82600877Y-58257713D02*
X82553258Y-58352951D01*
X82553258Y-58352951D02*
X82553258Y-58495808D01*
X82553258Y-58495808D02*
X82600877Y-58591046D01*
X82600877Y-58591046D02*
X82648496Y-58638665D01*
X82648496Y-58638665D02*
X82743734Y-58686284D01*
X82743734Y-58686284D02*
X83124686Y-58686284D01*
X93696115Y-60772419D02*
X93696115Y-59772419D01*
X93696115Y-59772419D02*
X93362782Y-60486704D01*
X93362782Y-60486704D02*
X93029449Y-59772419D01*
X93029449Y-59772419D02*
X93029449Y-60772419D01*
X92600877Y-60486704D02*
X92124687Y-60486704D01*
X92696115Y-60772419D02*
X92362782Y-59772419D01*
X92362782Y-59772419D02*
X92029449Y-60772419D01*
X91124687Y-60677180D02*
X91172306Y-60724800D01*
X91172306Y-60724800D02*
X91315163Y-60772419D01*
X91315163Y-60772419D02*
X91410401Y-60772419D01*
X91410401Y-60772419D02*
X91553258Y-60724800D01*
X91553258Y-60724800D02*
X91648496Y-60629561D01*
X91648496Y-60629561D02*
X91696115Y-60534323D01*
X91696115Y-60534323D02*
X91743734Y-60343847D01*
X91743734Y-60343847D02*
X91743734Y-60200990D01*
X91743734Y-60200990D02*
X91696115Y-60010514D01*
X91696115Y-60010514D02*
X91648496Y-59915276D01*
X91648496Y-59915276D02*
X91553258Y-59820038D01*
X91553258Y-59820038D02*
X91410401Y-59772419D01*
X91410401Y-59772419D02*
X91315163Y-59772419D01*
X91315163Y-59772419D02*
X91172306Y-59820038D01*
X91172306Y-59820038D02*
X91124687Y-59867657D01*
X90124687Y-60772419D02*
X90458020Y-60296228D01*
X90696115Y-60772419D02*
X90696115Y-59772419D01*
X90696115Y-59772419D02*
X90315163Y-59772419D01*
X90315163Y-59772419D02*
X90219925Y-59820038D01*
X90219925Y-59820038D02*
X90172306Y-59867657D01*
X90172306Y-59867657D02*
X90124687Y-59962895D01*
X90124687Y-59962895D02*
X90124687Y-60105752D01*
X90124687Y-60105752D02*
X90172306Y-60200990D01*
X90172306Y-60200990D02*
X90219925Y-60248609D01*
X90219925Y-60248609D02*
X90315163Y-60296228D01*
X90315163Y-60296228D02*
X90696115Y-60296228D01*
X89505639Y-59772419D02*
X89315163Y-59772419D01*
X89315163Y-59772419D02*
X89219925Y-59820038D01*
X89219925Y-59820038D02*
X89124687Y-59915276D01*
X89124687Y-59915276D02*
X89077068Y-60105752D01*
X89077068Y-60105752D02*
X89077068Y-60439085D01*
X89077068Y-60439085D02*
X89124687Y-60629561D01*
X89124687Y-60629561D02*
X89219925Y-60724800D01*
X89219925Y-60724800D02*
X89315163Y-60772419D01*
X89315163Y-60772419D02*
X89505639Y-60772419D01*
X89505639Y-60772419D02*
X89600877Y-60724800D01*
X89600877Y-60724800D02*
X89696115Y-60629561D01*
X89696115Y-60629561D02*
X89743734Y-60439085D01*
X89743734Y-60439085D02*
X89743734Y-60105752D01*
X89743734Y-60105752D02*
X89696115Y-59915276D01*
X89696115Y-59915276D02*
X89600877Y-59820038D01*
X89600877Y-59820038D02*
X89505639Y-59772419D01*
X88648496Y-60772419D02*
X88648496Y-59772419D01*
X88648496Y-59772419D02*
X88267544Y-59772419D01*
X88267544Y-59772419D02*
X88172306Y-59820038D01*
X88172306Y-59820038D02*
X88124687Y-59867657D01*
X88124687Y-59867657D02*
X88077068Y-59962895D01*
X88077068Y-59962895D02*
X88077068Y-60105752D01*
X88077068Y-60105752D02*
X88124687Y-60200990D01*
X88124687Y-60200990D02*
X88172306Y-60248609D01*
X88172306Y-60248609D02*
X88267544Y-60296228D01*
X88267544Y-60296228D02*
X88648496Y-60296228D01*
X87696115Y-60486704D02*
X87219925Y-60486704D01*
X87791353Y-60772419D02*
X87458020Y-59772419D01*
X87458020Y-59772419D02*
X87124687Y-60772419D01*
X86791353Y-60772419D02*
X86791353Y-59772419D01*
X86791353Y-59772419D02*
X86553258Y-59772419D01*
X86553258Y-59772419D02*
X86410401Y-59820038D01*
X86410401Y-59820038D02*
X86315163Y-59915276D01*
X86315163Y-59915276D02*
X86267544Y-60010514D01*
X86267544Y-60010514D02*
X86219925Y-60200990D01*
X86219925Y-60200990D02*
X86219925Y-60343847D01*
X86219925Y-60343847D02*
X86267544Y-60534323D01*
X86267544Y-60534323D02*
X86315163Y-60629561D01*
X86315163Y-60629561D02*
X86410401Y-60724800D01*
X86410401Y-60724800D02*
X86553258Y-60772419D01*
X86553258Y-60772419D02*
X86791353Y-60772419D01*
D11*
X67261904Y-70154819D02*
X67261904Y-70964342D01*
X67261904Y-70964342D02*
X67214285Y-71059580D01*
X67214285Y-71059580D02*
X67166666Y-71107200D01*
X67166666Y-71107200D02*
X67071428Y-71154819D01*
X67071428Y-71154819D02*
X66880952Y-71154819D01*
X66880952Y-71154819D02*
X66785714Y-71107200D01*
X66785714Y-71107200D02*
X66738095Y-71059580D01*
X66738095Y-71059580D02*
X66690476Y-70964342D01*
X66690476Y-70964342D02*
X66690476Y-70154819D01*
X65690476Y-71154819D02*
X66261904Y-71154819D01*
X65976190Y-71154819D02*
X65976190Y-70154819D01*
X65976190Y-70154819D02*
X66071428Y-70297676D01*
X66071428Y-70297676D02*
X66166666Y-70392914D01*
X66166666Y-70392914D02*
X66261904Y-70440533D01*
X54423564Y-53448431D02*
X54504376Y-53475368D01*
X54504376Y-53475368D02*
X54585188Y-53556180D01*
X54585188Y-53556180D02*
X54639063Y-53663930D01*
X54639063Y-53663930D02*
X54639063Y-53771680D01*
X54639063Y-53771680D02*
X54612126Y-53852492D01*
X54612126Y-53852492D02*
X54531314Y-53987179D01*
X54531314Y-53987179D02*
X54450501Y-54067991D01*
X54450501Y-54067991D02*
X54315814Y-54148803D01*
X54315814Y-54148803D02*
X54235002Y-54175741D01*
X54235002Y-54175741D02*
X54127253Y-54175741D01*
X54127253Y-54175741D02*
X54019503Y-54121866D01*
X54019503Y-54121866D02*
X53965628Y-54067991D01*
X53965628Y-54067991D02*
X53911753Y-53960241D01*
X53911753Y-53960241D02*
X53911753Y-53906367D01*
X53911753Y-53906367D02*
X54100315Y-53717805D01*
X54100315Y-53717805D02*
X54208065Y-53825554D01*
X53615442Y-53717805D02*
X54181127Y-53152119D01*
X54181127Y-53152119D02*
X53292193Y-53394556D01*
X53292193Y-53394556D02*
X53857879Y-52828871D01*
X53022819Y-53125182D02*
X53588505Y-52559497D01*
X53588505Y-52559497D02*
X53453818Y-52424810D01*
X53453818Y-52424810D02*
X53346068Y-52370935D01*
X53346068Y-52370935D02*
X53238319Y-52370935D01*
X53238319Y-52370935D02*
X53157506Y-52397872D01*
X53157506Y-52397872D02*
X53022819Y-52478685D01*
X53022819Y-52478685D02*
X52942007Y-52559497D01*
X52942007Y-52559497D02*
X52861195Y-52694184D01*
X52861195Y-52694184D02*
X52834258Y-52774996D01*
X52834258Y-52774996D02*
X52834258Y-52882746D01*
X52834258Y-52882746D02*
X52888132Y-52990495D01*
X52888132Y-52990495D02*
X53022819Y-53125182D01*
X54587592Y-56308584D02*
X54237406Y-55958398D01*
X54237406Y-55958398D02*
X54210468Y-56362459D01*
X54210468Y-56362459D02*
X54129656Y-56281646D01*
X54129656Y-56281646D02*
X54048844Y-56254709D01*
X54048844Y-56254709D02*
X53994969Y-56254709D01*
X53994969Y-56254709D02*
X53914157Y-56281646D01*
X53914157Y-56281646D02*
X53779470Y-56416333D01*
X53779470Y-56416333D02*
X53752532Y-56497146D01*
X53752532Y-56497146D02*
X53752532Y-56551020D01*
X53752532Y-56551020D02*
X53779470Y-56631833D01*
X53779470Y-56631833D02*
X53941094Y-56793457D01*
X53941094Y-56793457D02*
X54021906Y-56820394D01*
X54021906Y-56820394D02*
X54075781Y-56820394D01*
X54075781Y-55796773D02*
X53321534Y-56173897D01*
X53321534Y-56173897D02*
X53698657Y-55419649D01*
X53563971Y-55284963D02*
X53213784Y-54934776D01*
X53213784Y-54934776D02*
X53186847Y-55338837D01*
X53186847Y-55338837D02*
X53106035Y-55258025D01*
X53106035Y-55258025D02*
X53025223Y-55231088D01*
X53025223Y-55231088D02*
X52971348Y-55231088D01*
X52971348Y-55231088D02*
X52890535Y-55258025D01*
X52890535Y-55258025D02*
X52755848Y-55392712D01*
X52755848Y-55392712D02*
X52728911Y-55473524D01*
X52728911Y-55473524D02*
X52728911Y-55527399D01*
X52728911Y-55527399D02*
X52755848Y-55608211D01*
X52755848Y-55608211D02*
X52917473Y-55769836D01*
X52917473Y-55769836D02*
X52998285Y-55796773D01*
X52998285Y-55796773D02*
X53052160Y-55796773D01*
X52486474Y-55446587D02*
X52055476Y-55015588D01*
X52270975Y-54530715D02*
X52082413Y-54342153D01*
X51705290Y-54557652D02*
X51974664Y-54827026D01*
X51974664Y-54827026D02*
X52540349Y-54261341D01*
X52540349Y-54261341D02*
X52270975Y-53991967D01*
X51462853Y-54315215D02*
X52028538Y-53749530D01*
X52028538Y-53749530D02*
X51139604Y-53991967D01*
X51139604Y-53991967D02*
X51705289Y-53426281D01*
X80666001Y-86710868D02*
X80746814Y-86737805D01*
X80746814Y-86737805D02*
X80827626Y-86818618D01*
X80827626Y-86818618D02*
X80881501Y-86926367D01*
X80881501Y-86926367D02*
X80881501Y-87034117D01*
X80881501Y-87034117D02*
X80854563Y-87114929D01*
X80854563Y-87114929D02*
X80773751Y-87249616D01*
X80773751Y-87249616D02*
X80692939Y-87330428D01*
X80692939Y-87330428D02*
X80558252Y-87411241D01*
X80558252Y-87411241D02*
X80477439Y-87438178D01*
X80477439Y-87438178D02*
X80369690Y-87438178D01*
X80369690Y-87438178D02*
X80261940Y-87384303D01*
X80261940Y-87384303D02*
X80208065Y-87330428D01*
X80208065Y-87330428D02*
X80154191Y-87222679D01*
X80154191Y-87222679D02*
X80154191Y-87168804D01*
X80154191Y-87168804D02*
X80342752Y-86980242D01*
X80342752Y-86980242D02*
X80450502Y-87087992D01*
X79857879Y-86980242D02*
X80423565Y-86414557D01*
X80423565Y-86414557D02*
X80208065Y-86199057D01*
X80208065Y-86199057D02*
X80127253Y-86172120D01*
X80127253Y-86172120D02*
X80073378Y-86172120D01*
X80073378Y-86172120D02*
X79992566Y-86199057D01*
X79992566Y-86199057D02*
X79911754Y-86279870D01*
X79911754Y-86279870D02*
X79884817Y-86360682D01*
X79884817Y-86360682D02*
X79884817Y-86414557D01*
X79884817Y-86414557D02*
X79911754Y-86495369D01*
X79911754Y-86495369D02*
X80127253Y-86710868D01*
X78995882Y-86118245D02*
X79319131Y-86441494D01*
X79157507Y-86279870D02*
X79723192Y-85714184D01*
X79723192Y-85714184D02*
X79696255Y-85848871D01*
X79696255Y-85848871D02*
X79696255Y-85956621D01*
X79696255Y-85956621D02*
X79723192Y-86037433D01*
X79292194Y-85390935D02*
X79292194Y-85337060D01*
X79292194Y-85337060D02*
X79265256Y-85256248D01*
X79265256Y-85256248D02*
X79130569Y-85121561D01*
X79130569Y-85121561D02*
X79049757Y-85094624D01*
X79049757Y-85094624D02*
X78995882Y-85094624D01*
X78995882Y-85094624D02*
X78915070Y-85121561D01*
X78915070Y-85121561D02*
X78861195Y-85175436D01*
X78861195Y-85175436D02*
X78807320Y-85283186D01*
X78807320Y-85283186D02*
X78807320Y-85929683D01*
X78807320Y-85929683D02*
X78457134Y-85579497D01*
X80096627Y-55961494D02*
X80177439Y-55988431D01*
X80177439Y-55988431D02*
X80258251Y-56069243D01*
X80258251Y-56069243D02*
X80312126Y-56176993D01*
X80312126Y-56176993D02*
X80312126Y-56284742D01*
X80312126Y-56284742D02*
X80285189Y-56365555D01*
X80285189Y-56365555D02*
X80204376Y-56500242D01*
X80204376Y-56500242D02*
X80123564Y-56581054D01*
X80123564Y-56581054D02*
X79988877Y-56661866D01*
X79988877Y-56661866D02*
X79908065Y-56688803D01*
X79908065Y-56688803D02*
X79800315Y-56688803D01*
X79800315Y-56688803D02*
X79692566Y-56634929D01*
X79692566Y-56634929D02*
X79638691Y-56581054D01*
X79638691Y-56581054D02*
X79584816Y-56473304D01*
X79584816Y-56473304D02*
X79584816Y-56419429D01*
X79584816Y-56419429D02*
X79773378Y-56230868D01*
X79773378Y-56230868D02*
X79881128Y-56338617D01*
X79288505Y-56230868D02*
X79854190Y-55665182D01*
X79854190Y-55665182D02*
X79638691Y-55449683D01*
X79638691Y-55449683D02*
X79557879Y-55422746D01*
X79557879Y-55422746D02*
X79504004Y-55422746D01*
X79504004Y-55422746D02*
X79423192Y-55449683D01*
X79423192Y-55449683D02*
X79342380Y-55530495D01*
X79342380Y-55530495D02*
X79315442Y-55611307D01*
X79315442Y-55611307D02*
X79315442Y-55665182D01*
X79315442Y-55665182D02*
X79342380Y-55745994D01*
X79342380Y-55745994D02*
X79557879Y-55961494D01*
X79261567Y-55180309D02*
X79261567Y-55126434D01*
X79261567Y-55126434D02*
X79234630Y-55045622D01*
X79234630Y-55045622D02*
X79099943Y-54910935D01*
X79099943Y-54910935D02*
X79019131Y-54883998D01*
X79019131Y-54883998D02*
X78965256Y-54883998D01*
X78965256Y-54883998D02*
X78884444Y-54910935D01*
X78884444Y-54910935D02*
X78830569Y-54964810D01*
X78830569Y-54964810D02*
X78776694Y-55072559D01*
X78776694Y-55072559D02*
X78776694Y-55719057D01*
X78776694Y-55719057D02*
X78426508Y-55368871D01*
X54412001Y-76550868D02*
X54492814Y-76577805D01*
X54492814Y-76577805D02*
X54573626Y-76658618D01*
X54573626Y-76658618D02*
X54627501Y-76766367D01*
X54627501Y-76766367D02*
X54627501Y-76874117D01*
X54627501Y-76874117D02*
X54600563Y-76954929D01*
X54600563Y-76954929D02*
X54519751Y-77089616D01*
X54519751Y-77089616D02*
X54438939Y-77170428D01*
X54438939Y-77170428D02*
X54304252Y-77251241D01*
X54304252Y-77251241D02*
X54223439Y-77278178D01*
X54223439Y-77278178D02*
X54115690Y-77278178D01*
X54115690Y-77278178D02*
X54007940Y-77224303D01*
X54007940Y-77224303D02*
X53954065Y-77170428D01*
X53954065Y-77170428D02*
X53900191Y-77062679D01*
X53900191Y-77062679D02*
X53900191Y-77008804D01*
X53900191Y-77008804D02*
X54088752Y-76820242D01*
X54088752Y-76820242D02*
X54196502Y-76927992D01*
X53603879Y-76820242D02*
X54169565Y-76254557D01*
X54169565Y-76254557D02*
X53954065Y-76039057D01*
X53954065Y-76039057D02*
X53873253Y-76012120D01*
X53873253Y-76012120D02*
X53819378Y-76012120D01*
X53819378Y-76012120D02*
X53738566Y-76039057D01*
X53738566Y-76039057D02*
X53657754Y-76119870D01*
X53657754Y-76119870D02*
X53630817Y-76200682D01*
X53630817Y-76200682D02*
X53630817Y-76254557D01*
X53630817Y-76254557D02*
X53657754Y-76335369D01*
X53657754Y-76335369D02*
X53873253Y-76550868D01*
X53576942Y-75769683D02*
X53576942Y-75715809D01*
X53576942Y-75715809D02*
X53550004Y-75634996D01*
X53550004Y-75634996D02*
X53415317Y-75500309D01*
X53415317Y-75500309D02*
X53334505Y-75473372D01*
X53334505Y-75473372D02*
X53280630Y-75473372D01*
X53280630Y-75473372D02*
X53199818Y-75500309D01*
X53199818Y-75500309D02*
X53145943Y-75554184D01*
X53145943Y-75554184D02*
X53092069Y-75661934D01*
X53092069Y-75661934D02*
X53092069Y-76308431D01*
X53092069Y-76308431D02*
X52741882Y-75958245D01*
X53038194Y-75230935D02*
X53038194Y-75177060D01*
X53038194Y-75177060D02*
X53011256Y-75096248D01*
X53011256Y-75096248D02*
X52876569Y-74961561D01*
X52876569Y-74961561D02*
X52795757Y-74934624D01*
X52795757Y-74934624D02*
X52741882Y-74934624D01*
X52741882Y-74934624D02*
X52661070Y-74961561D01*
X52661070Y-74961561D02*
X52607195Y-75015436D01*
X52607195Y-75015436D02*
X52553320Y-75123186D01*
X52553320Y-75123186D02*
X52553320Y-75769683D01*
X52553320Y-75769683D02*
X52203134Y-75419497D01*
X80520001Y-81630868D02*
X80600814Y-81657805D01*
X80600814Y-81657805D02*
X80681626Y-81738618D01*
X80681626Y-81738618D02*
X80735501Y-81846367D01*
X80735501Y-81846367D02*
X80735501Y-81954117D01*
X80735501Y-81954117D02*
X80708563Y-82034929D01*
X80708563Y-82034929D02*
X80627751Y-82169616D01*
X80627751Y-82169616D02*
X80546939Y-82250428D01*
X80546939Y-82250428D02*
X80412252Y-82331241D01*
X80412252Y-82331241D02*
X80331439Y-82358178D01*
X80331439Y-82358178D02*
X80223690Y-82358178D01*
X80223690Y-82358178D02*
X80115940Y-82304303D01*
X80115940Y-82304303D02*
X80062065Y-82250428D01*
X80062065Y-82250428D02*
X80008191Y-82142679D01*
X80008191Y-82142679D02*
X80008191Y-82088804D01*
X80008191Y-82088804D02*
X80196752Y-81900242D01*
X80196752Y-81900242D02*
X80304502Y-82007992D01*
X79711879Y-81900242D02*
X80277565Y-81334557D01*
X80277565Y-81334557D02*
X80062065Y-81119057D01*
X80062065Y-81119057D02*
X79981253Y-81092120D01*
X79981253Y-81092120D02*
X79927378Y-81092120D01*
X79927378Y-81092120D02*
X79846566Y-81119057D01*
X79846566Y-81119057D02*
X79765754Y-81199870D01*
X79765754Y-81199870D02*
X79738817Y-81280682D01*
X79738817Y-81280682D02*
X79738817Y-81334557D01*
X79738817Y-81334557D02*
X79765754Y-81415369D01*
X79765754Y-81415369D02*
X79981253Y-81630868D01*
X78849882Y-81038245D02*
X79173131Y-81361494D01*
X79011507Y-81199870D02*
X79577192Y-80634184D01*
X79577192Y-80634184D02*
X79550255Y-80768871D01*
X79550255Y-80768871D02*
X79550255Y-80876621D01*
X79550255Y-80876621D02*
X79577192Y-80957433D01*
X79065381Y-80122373D02*
X79011507Y-80068499D01*
X79011507Y-80068499D02*
X78930694Y-80041561D01*
X78930694Y-80041561D02*
X78876820Y-80041561D01*
X78876820Y-80041561D02*
X78796007Y-80068499D01*
X78796007Y-80068499D02*
X78661320Y-80149311D01*
X78661320Y-80149311D02*
X78526633Y-80283998D01*
X78526633Y-80283998D02*
X78445821Y-80418685D01*
X78445821Y-80418685D02*
X78418884Y-80499497D01*
X78418884Y-80499497D02*
X78418884Y-80553372D01*
X78418884Y-80553372D02*
X78445821Y-80634184D01*
X78445821Y-80634184D02*
X78499696Y-80688059D01*
X78499696Y-80688059D02*
X78580508Y-80714996D01*
X78580508Y-80714996D02*
X78634383Y-80714996D01*
X78634383Y-80714996D02*
X78715195Y-80688059D01*
X78715195Y-80688059D02*
X78849882Y-80607247D01*
X78849882Y-80607247D02*
X78984569Y-80472560D01*
X78984569Y-80472560D02*
X79065381Y-80337873D01*
X79065381Y-80337873D02*
X79092319Y-80257060D01*
X79092319Y-80257060D02*
X79092319Y-80203186D01*
X79092319Y-80203186D02*
X79065381Y-80122373D01*
X54412001Y-81640868D02*
X54492814Y-81667805D01*
X54492814Y-81667805D02*
X54573626Y-81748618D01*
X54573626Y-81748618D02*
X54627501Y-81856367D01*
X54627501Y-81856367D02*
X54627501Y-81964117D01*
X54627501Y-81964117D02*
X54600563Y-82044929D01*
X54600563Y-82044929D02*
X54519751Y-82179616D01*
X54519751Y-82179616D02*
X54438939Y-82260428D01*
X54438939Y-82260428D02*
X54304252Y-82341241D01*
X54304252Y-82341241D02*
X54223439Y-82368178D01*
X54223439Y-82368178D02*
X54115690Y-82368178D01*
X54115690Y-82368178D02*
X54007940Y-82314303D01*
X54007940Y-82314303D02*
X53954065Y-82260428D01*
X53954065Y-82260428D02*
X53900191Y-82152679D01*
X53900191Y-82152679D02*
X53900191Y-82098804D01*
X53900191Y-82098804D02*
X54088752Y-81910242D01*
X54088752Y-81910242D02*
X54196502Y-82017992D01*
X53603879Y-81910242D02*
X54169565Y-81344557D01*
X54169565Y-81344557D02*
X53954065Y-81129057D01*
X53954065Y-81129057D02*
X53873253Y-81102120D01*
X53873253Y-81102120D02*
X53819378Y-81102120D01*
X53819378Y-81102120D02*
X53738566Y-81129057D01*
X53738566Y-81129057D02*
X53657754Y-81209870D01*
X53657754Y-81209870D02*
X53630817Y-81290682D01*
X53630817Y-81290682D02*
X53630817Y-81344557D01*
X53630817Y-81344557D02*
X53657754Y-81425369D01*
X53657754Y-81425369D02*
X53873253Y-81640868D01*
X53576942Y-80859683D02*
X53576942Y-80805809D01*
X53576942Y-80805809D02*
X53550004Y-80724996D01*
X53550004Y-80724996D02*
X53415317Y-80590309D01*
X53415317Y-80590309D02*
X53334505Y-80563372D01*
X53334505Y-80563372D02*
X53280630Y-80563372D01*
X53280630Y-80563372D02*
X53199818Y-80590309D01*
X53199818Y-80590309D02*
X53145943Y-80644184D01*
X53145943Y-80644184D02*
X53092069Y-80751934D01*
X53092069Y-80751934D02*
X53092069Y-81398431D01*
X53092069Y-81398431D02*
X52741882Y-81048245D01*
X52203134Y-80509497D02*
X52526383Y-80832746D01*
X52364759Y-80671121D02*
X52930444Y-80105436D01*
X52930444Y-80105436D02*
X52903507Y-80240123D01*
X52903507Y-80240123D02*
X52903507Y-80347873D01*
X52903507Y-80347873D02*
X52930444Y-80428685D01*
X80023564Y-66148431D02*
X80104376Y-66175368D01*
X80104376Y-66175368D02*
X80185188Y-66256180D01*
X80185188Y-66256180D02*
X80239063Y-66363930D01*
X80239063Y-66363930D02*
X80239063Y-66471680D01*
X80239063Y-66471680D02*
X80212126Y-66552492D01*
X80212126Y-66552492D02*
X80131314Y-66687179D01*
X80131314Y-66687179D02*
X80050501Y-66767991D01*
X80050501Y-66767991D02*
X79915814Y-66848803D01*
X79915814Y-66848803D02*
X79835002Y-66875741D01*
X79835002Y-66875741D02*
X79727253Y-66875741D01*
X79727253Y-66875741D02*
X79619503Y-66821866D01*
X79619503Y-66821866D02*
X79565628Y-66767991D01*
X79565628Y-66767991D02*
X79511753Y-66660241D01*
X79511753Y-66660241D02*
X79511753Y-66606367D01*
X79511753Y-66606367D02*
X79700315Y-66417805D01*
X79700315Y-66417805D02*
X79808065Y-66525554D01*
X79215442Y-66417805D02*
X79781127Y-65852119D01*
X79781127Y-65852119D02*
X78892193Y-66094556D01*
X78892193Y-66094556D02*
X79457879Y-65528871D01*
X78622819Y-65825182D02*
X79188505Y-65259497D01*
X79188505Y-65259497D02*
X79053818Y-65124810D01*
X79053818Y-65124810D02*
X78946068Y-65070935D01*
X78946068Y-65070935D02*
X78838319Y-65070935D01*
X78838319Y-65070935D02*
X78757506Y-65097872D01*
X78757506Y-65097872D02*
X78622819Y-65178685D01*
X78622819Y-65178685D02*
X78542007Y-65259497D01*
X78542007Y-65259497D02*
X78461195Y-65394184D01*
X78461195Y-65394184D02*
X78434258Y-65474996D01*
X78434258Y-65474996D02*
X78434258Y-65582746D01*
X78434258Y-65582746D02*
X78488132Y-65690495D01*
X78488132Y-65690495D02*
X78622819Y-65825182D01*
X79996627Y-48341494D02*
X80077439Y-48368431D01*
X80077439Y-48368431D02*
X80158251Y-48449243D01*
X80158251Y-48449243D02*
X80212126Y-48556993D01*
X80212126Y-48556993D02*
X80212126Y-48664742D01*
X80212126Y-48664742D02*
X80185189Y-48745555D01*
X80185189Y-48745555D02*
X80104376Y-48880242D01*
X80104376Y-48880242D02*
X80023564Y-48961054D01*
X80023564Y-48961054D02*
X79888877Y-49041866D01*
X79888877Y-49041866D02*
X79808065Y-49068803D01*
X79808065Y-49068803D02*
X79700315Y-49068803D01*
X79700315Y-49068803D02*
X79592566Y-49014929D01*
X79592566Y-49014929D02*
X79538691Y-48961054D01*
X79538691Y-48961054D02*
X79484816Y-48853304D01*
X79484816Y-48853304D02*
X79484816Y-48799429D01*
X79484816Y-48799429D02*
X79673378Y-48610868D01*
X79673378Y-48610868D02*
X79781128Y-48718617D01*
X79188505Y-48610868D02*
X79754190Y-48045182D01*
X79754190Y-48045182D02*
X79538691Y-47829683D01*
X79538691Y-47829683D02*
X79457879Y-47802746D01*
X79457879Y-47802746D02*
X79404004Y-47802746D01*
X79404004Y-47802746D02*
X79323192Y-47829683D01*
X79323192Y-47829683D02*
X79242380Y-47910495D01*
X79242380Y-47910495D02*
X79215442Y-47991307D01*
X79215442Y-47991307D02*
X79215442Y-48045182D01*
X79215442Y-48045182D02*
X79242380Y-48125994D01*
X79242380Y-48125994D02*
X79457879Y-48341494D01*
X79080755Y-47371747D02*
X79026880Y-47317872D01*
X79026880Y-47317872D02*
X78946068Y-47290935D01*
X78946068Y-47290935D02*
X78892193Y-47290935D01*
X78892193Y-47290935D02*
X78811381Y-47317872D01*
X78811381Y-47317872D02*
X78676694Y-47398685D01*
X78676694Y-47398685D02*
X78542007Y-47533372D01*
X78542007Y-47533372D02*
X78461195Y-47668059D01*
X78461195Y-47668059D02*
X78434258Y-47748871D01*
X78434258Y-47748871D02*
X78434258Y-47802746D01*
X78434258Y-47802746D02*
X78461195Y-47883558D01*
X78461195Y-47883558D02*
X78515070Y-47937433D01*
X78515070Y-47937433D02*
X78595882Y-47964370D01*
X78595882Y-47964370D02*
X78649757Y-47964370D01*
X78649757Y-47964370D02*
X78730569Y-47937433D01*
X78730569Y-47937433D02*
X78865256Y-47856620D01*
X78865256Y-47856620D02*
X78999943Y-47721933D01*
X78999943Y-47721933D02*
X79080755Y-47587246D01*
X79080755Y-47587246D02*
X79107693Y-47506434D01*
X79107693Y-47506434D02*
X79107693Y-47452559D01*
X79107693Y-47452559D02*
X79080755Y-47371747D01*
X54423564Y-78848431D02*
X54504376Y-78875368D01*
X54504376Y-78875368D02*
X54585188Y-78956180D01*
X54585188Y-78956180D02*
X54639063Y-79063930D01*
X54639063Y-79063930D02*
X54639063Y-79171680D01*
X54639063Y-79171680D02*
X54612126Y-79252492D01*
X54612126Y-79252492D02*
X54531314Y-79387179D01*
X54531314Y-79387179D02*
X54450501Y-79467991D01*
X54450501Y-79467991D02*
X54315814Y-79548803D01*
X54315814Y-79548803D02*
X54235002Y-79575741D01*
X54235002Y-79575741D02*
X54127253Y-79575741D01*
X54127253Y-79575741D02*
X54019503Y-79521866D01*
X54019503Y-79521866D02*
X53965628Y-79467991D01*
X53965628Y-79467991D02*
X53911753Y-79360241D01*
X53911753Y-79360241D02*
X53911753Y-79306367D01*
X53911753Y-79306367D02*
X54100315Y-79117805D01*
X54100315Y-79117805D02*
X54208065Y-79225554D01*
X53615442Y-79117805D02*
X54181127Y-78552119D01*
X54181127Y-78552119D02*
X53292193Y-78794556D01*
X53292193Y-78794556D02*
X53857879Y-78228871D01*
X53022819Y-78525182D02*
X53588505Y-77959497D01*
X53588505Y-77959497D02*
X53453818Y-77824810D01*
X53453818Y-77824810D02*
X53346068Y-77770935D01*
X53346068Y-77770935D02*
X53238319Y-77770935D01*
X53238319Y-77770935D02*
X53157506Y-77797872D01*
X53157506Y-77797872D02*
X53022819Y-77878685D01*
X53022819Y-77878685D02*
X52942007Y-77959497D01*
X52942007Y-77959497D02*
X52861195Y-78094184D01*
X52861195Y-78094184D02*
X52834258Y-78174996D01*
X52834258Y-78174996D02*
X52834258Y-78282746D01*
X52834258Y-78282746D02*
X52888132Y-78390495D01*
X52888132Y-78390495D02*
X53022819Y-78525182D01*
X54412001Y-63596868D02*
X54492814Y-63623805D01*
X54492814Y-63623805D02*
X54573626Y-63704618D01*
X54573626Y-63704618D02*
X54627501Y-63812367D01*
X54627501Y-63812367D02*
X54627501Y-63920117D01*
X54627501Y-63920117D02*
X54600563Y-64000929D01*
X54600563Y-64000929D02*
X54519751Y-64135616D01*
X54519751Y-64135616D02*
X54438939Y-64216428D01*
X54438939Y-64216428D02*
X54304252Y-64297241D01*
X54304252Y-64297241D02*
X54223439Y-64324178D01*
X54223439Y-64324178D02*
X54115690Y-64324178D01*
X54115690Y-64324178D02*
X54007940Y-64270303D01*
X54007940Y-64270303D02*
X53954065Y-64216428D01*
X53954065Y-64216428D02*
X53900191Y-64108679D01*
X53900191Y-64108679D02*
X53900191Y-64054804D01*
X53900191Y-64054804D02*
X54088752Y-63866242D01*
X54088752Y-63866242D02*
X54196502Y-63973992D01*
X53603879Y-63866242D02*
X54169565Y-63300557D01*
X54169565Y-63300557D02*
X53954065Y-63085057D01*
X53954065Y-63085057D02*
X53873253Y-63058120D01*
X53873253Y-63058120D02*
X53819378Y-63058120D01*
X53819378Y-63058120D02*
X53738566Y-63085057D01*
X53738566Y-63085057D02*
X53657754Y-63165870D01*
X53657754Y-63165870D02*
X53630817Y-63246682D01*
X53630817Y-63246682D02*
X53630817Y-63300557D01*
X53630817Y-63300557D02*
X53657754Y-63381369D01*
X53657754Y-63381369D02*
X53873253Y-63596868D01*
X53576942Y-62815683D02*
X53576942Y-62761809D01*
X53576942Y-62761809D02*
X53550004Y-62680996D01*
X53550004Y-62680996D02*
X53415317Y-62546309D01*
X53415317Y-62546309D02*
X53334505Y-62519372D01*
X53334505Y-62519372D02*
X53280630Y-62519372D01*
X53280630Y-62519372D02*
X53199818Y-62546309D01*
X53199818Y-62546309D02*
X53145943Y-62600184D01*
X53145943Y-62600184D02*
X53092069Y-62707934D01*
X53092069Y-62707934D02*
X53092069Y-63354431D01*
X53092069Y-63354431D02*
X52741882Y-63004245D01*
X52741882Y-62357747D02*
X52822694Y-62384685D01*
X52822694Y-62384685D02*
X52876569Y-62384685D01*
X52876569Y-62384685D02*
X52957381Y-62357747D01*
X52957381Y-62357747D02*
X52984319Y-62330810D01*
X52984319Y-62330810D02*
X53011256Y-62249998D01*
X53011256Y-62249998D02*
X53011256Y-62196123D01*
X53011256Y-62196123D02*
X52984319Y-62115311D01*
X52984319Y-62115311D02*
X52876569Y-62007561D01*
X52876569Y-62007561D02*
X52795757Y-61980624D01*
X52795757Y-61980624D02*
X52741882Y-61980624D01*
X52741882Y-61980624D02*
X52661070Y-62007561D01*
X52661070Y-62007561D02*
X52634133Y-62034499D01*
X52634133Y-62034499D02*
X52607195Y-62115311D01*
X52607195Y-62115311D02*
X52607195Y-62169186D01*
X52607195Y-62169186D02*
X52634133Y-62249998D01*
X52634133Y-62249998D02*
X52741882Y-62357747D01*
X52741882Y-62357747D02*
X52768820Y-62438560D01*
X52768820Y-62438560D02*
X52768820Y-62492434D01*
X52768820Y-62492434D02*
X52741882Y-62573247D01*
X52741882Y-62573247D02*
X52634133Y-62680996D01*
X52634133Y-62680996D02*
X52553320Y-62707934D01*
X52553320Y-62707934D02*
X52499446Y-62707934D01*
X52499446Y-62707934D02*
X52418633Y-62680996D01*
X52418633Y-62680996D02*
X52310884Y-62573247D01*
X52310884Y-62573247D02*
X52283946Y-62492434D01*
X52283946Y-62492434D02*
X52283946Y-62438560D01*
X52283946Y-62438560D02*
X52310884Y-62357747D01*
X52310884Y-62357747D02*
X52418633Y-62249998D01*
X52418633Y-62249998D02*
X52499446Y-62223060D01*
X52499446Y-62223060D02*
X52553320Y-62223060D01*
X52553320Y-62223060D02*
X52634133Y-62249998D01*
X79996627Y-68661494D02*
X80077439Y-68688431D01*
X80077439Y-68688431D02*
X80158251Y-68769243D01*
X80158251Y-68769243D02*
X80212126Y-68876993D01*
X80212126Y-68876993D02*
X80212126Y-68984742D01*
X80212126Y-68984742D02*
X80185189Y-69065555D01*
X80185189Y-69065555D02*
X80104376Y-69200242D01*
X80104376Y-69200242D02*
X80023564Y-69281054D01*
X80023564Y-69281054D02*
X79888877Y-69361866D01*
X79888877Y-69361866D02*
X79808065Y-69388803D01*
X79808065Y-69388803D02*
X79700315Y-69388803D01*
X79700315Y-69388803D02*
X79592566Y-69334929D01*
X79592566Y-69334929D02*
X79538691Y-69281054D01*
X79538691Y-69281054D02*
X79484816Y-69173304D01*
X79484816Y-69173304D02*
X79484816Y-69119429D01*
X79484816Y-69119429D02*
X79673378Y-68930868D01*
X79673378Y-68930868D02*
X79781128Y-69038617D01*
X79188505Y-68930868D02*
X79754190Y-68365182D01*
X79754190Y-68365182D02*
X79538691Y-68149683D01*
X79538691Y-68149683D02*
X79457879Y-68122746D01*
X79457879Y-68122746D02*
X79404004Y-68122746D01*
X79404004Y-68122746D02*
X79323192Y-68149683D01*
X79323192Y-68149683D02*
X79242380Y-68230495D01*
X79242380Y-68230495D02*
X79215442Y-68311307D01*
X79215442Y-68311307D02*
X79215442Y-68365182D01*
X79215442Y-68365182D02*
X79242380Y-68445994D01*
X79242380Y-68445994D02*
X79457879Y-68661494D01*
X78946068Y-67557060D02*
X79053818Y-67664810D01*
X79053818Y-67664810D02*
X79080755Y-67745622D01*
X79080755Y-67745622D02*
X79080755Y-67799497D01*
X79080755Y-67799497D02*
X79053818Y-67934184D01*
X79053818Y-67934184D02*
X78973006Y-68068871D01*
X78973006Y-68068871D02*
X78757506Y-68284370D01*
X78757506Y-68284370D02*
X78676694Y-68311307D01*
X78676694Y-68311307D02*
X78622819Y-68311307D01*
X78622819Y-68311307D02*
X78542007Y-68284370D01*
X78542007Y-68284370D02*
X78434258Y-68176620D01*
X78434258Y-68176620D02*
X78407320Y-68095808D01*
X78407320Y-68095808D02*
X78407320Y-68041933D01*
X78407320Y-68041933D02*
X78434258Y-67961121D01*
X78434258Y-67961121D02*
X78568945Y-67826434D01*
X78568945Y-67826434D02*
X78649757Y-67799497D01*
X78649757Y-67799497D02*
X78703632Y-67799497D01*
X78703632Y-67799497D02*
X78784444Y-67826434D01*
X78784444Y-67826434D02*
X78892193Y-67934184D01*
X78892193Y-67934184D02*
X78919131Y-68014996D01*
X78919131Y-68014996D02*
X78919131Y-68068871D01*
X78919131Y-68068871D02*
X78892193Y-68149683D01*
X54589250Y-51420242D02*
X53835003Y-51797366D01*
X53835003Y-51797366D02*
X54212126Y-51043118D01*
X53511754Y-51420242D02*
X53404004Y-51366367D01*
X53404004Y-51366367D02*
X53269317Y-51231680D01*
X53269317Y-51231680D02*
X53242380Y-51150868D01*
X53242380Y-51150868D02*
X53242380Y-51096993D01*
X53242380Y-51096993D02*
X53269317Y-51016181D01*
X53269317Y-51016181D02*
X53323192Y-50962306D01*
X53323192Y-50962306D02*
X53404004Y-50935369D01*
X53404004Y-50935369D02*
X53457879Y-50935369D01*
X53457879Y-50935369D02*
X53538691Y-50962306D01*
X53538691Y-50962306D02*
X53673378Y-51043118D01*
X53673378Y-51043118D02*
X53754191Y-51070056D01*
X53754191Y-51070056D02*
X53808065Y-51070056D01*
X53808065Y-51070056D02*
X53888878Y-51043118D01*
X53888878Y-51043118D02*
X53942752Y-50989244D01*
X53942752Y-50989244D02*
X53969690Y-50908431D01*
X53969690Y-50908431D02*
X53969690Y-50854557D01*
X53969690Y-50854557D02*
X53942752Y-50773744D01*
X53942752Y-50773744D02*
X53808065Y-50639057D01*
X53808065Y-50639057D02*
X53700316Y-50585183D01*
X53080755Y-50504370D02*
X52811381Y-50773744D01*
X53565629Y-50396621D02*
X53080755Y-50504370D01*
X53080755Y-50504370D02*
X53188505Y-50019497D01*
X52488133Y-50396621D02*
X52380383Y-50342746D01*
X52380383Y-50342746D02*
X52245696Y-50208059D01*
X52245696Y-50208059D02*
X52218759Y-50127247D01*
X52218759Y-50127247D02*
X52218759Y-50073372D01*
X52218759Y-50073372D02*
X52245696Y-49992560D01*
X52245696Y-49992560D02*
X52299571Y-49938685D01*
X52299571Y-49938685D02*
X52380383Y-49911748D01*
X52380383Y-49911748D02*
X52434258Y-49911748D01*
X52434258Y-49911748D02*
X52515070Y-49938685D01*
X52515070Y-49938685D02*
X52649757Y-50019497D01*
X52649757Y-50019497D02*
X52730569Y-50046435D01*
X52730569Y-50046435D02*
X52784444Y-50046435D01*
X52784444Y-50046435D02*
X52865256Y-50019497D01*
X52865256Y-50019497D02*
X52919131Y-49965622D01*
X52919131Y-49965622D02*
X52946069Y-49884810D01*
X52946069Y-49884810D02*
X52946069Y-49830935D01*
X52946069Y-49830935D02*
X52919131Y-49750123D01*
X52919131Y-49750123D02*
X52784444Y-49615436D01*
X52784444Y-49615436D02*
X52676695Y-49561561D01*
X79996627Y-61041494D02*
X80077439Y-61068431D01*
X80077439Y-61068431D02*
X80158251Y-61149243D01*
X80158251Y-61149243D02*
X80212126Y-61256993D01*
X80212126Y-61256993D02*
X80212126Y-61364742D01*
X80212126Y-61364742D02*
X80185189Y-61445555D01*
X80185189Y-61445555D02*
X80104376Y-61580242D01*
X80104376Y-61580242D02*
X80023564Y-61661054D01*
X80023564Y-61661054D02*
X79888877Y-61741866D01*
X79888877Y-61741866D02*
X79808065Y-61768803D01*
X79808065Y-61768803D02*
X79700315Y-61768803D01*
X79700315Y-61768803D02*
X79592566Y-61714929D01*
X79592566Y-61714929D02*
X79538691Y-61661054D01*
X79538691Y-61661054D02*
X79484816Y-61553304D01*
X79484816Y-61553304D02*
X79484816Y-61499429D01*
X79484816Y-61499429D02*
X79673378Y-61310868D01*
X79673378Y-61310868D02*
X79781128Y-61418617D01*
X79188505Y-61310868D02*
X79754190Y-60745182D01*
X79754190Y-60745182D02*
X79538691Y-60529683D01*
X79538691Y-60529683D02*
X79457879Y-60502746D01*
X79457879Y-60502746D02*
X79404004Y-60502746D01*
X79404004Y-60502746D02*
X79323192Y-60529683D01*
X79323192Y-60529683D02*
X79242380Y-60610495D01*
X79242380Y-60610495D02*
X79215442Y-60691307D01*
X79215442Y-60691307D02*
X79215442Y-60745182D01*
X79215442Y-60745182D02*
X79242380Y-60825994D01*
X79242380Y-60825994D02*
X79457879Y-61041494D01*
X78757506Y-60125622D02*
X78380383Y-60502746D01*
X79107693Y-60044810D02*
X78838319Y-60583558D01*
X78838319Y-60583558D02*
X78488132Y-60233372D01*
X54412001Y-68940868D02*
X54492814Y-68967805D01*
X54492814Y-68967805D02*
X54573626Y-69048618D01*
X54573626Y-69048618D02*
X54627501Y-69156367D01*
X54627501Y-69156367D02*
X54627501Y-69264117D01*
X54627501Y-69264117D02*
X54600563Y-69344929D01*
X54600563Y-69344929D02*
X54519751Y-69479616D01*
X54519751Y-69479616D02*
X54438939Y-69560428D01*
X54438939Y-69560428D02*
X54304252Y-69641241D01*
X54304252Y-69641241D02*
X54223439Y-69668178D01*
X54223439Y-69668178D02*
X54115690Y-69668178D01*
X54115690Y-69668178D02*
X54007940Y-69614303D01*
X54007940Y-69614303D02*
X53954065Y-69560428D01*
X53954065Y-69560428D02*
X53900191Y-69452679D01*
X53900191Y-69452679D02*
X53900191Y-69398804D01*
X53900191Y-69398804D02*
X54088752Y-69210242D01*
X54088752Y-69210242D02*
X54196502Y-69317992D01*
X53603879Y-69210242D02*
X54169565Y-68644557D01*
X54169565Y-68644557D02*
X53954065Y-68429057D01*
X53954065Y-68429057D02*
X53873253Y-68402120D01*
X53873253Y-68402120D02*
X53819378Y-68402120D01*
X53819378Y-68402120D02*
X53738566Y-68429057D01*
X53738566Y-68429057D02*
X53657754Y-68509870D01*
X53657754Y-68509870D02*
X53630817Y-68590682D01*
X53630817Y-68590682D02*
X53630817Y-68644557D01*
X53630817Y-68644557D02*
X53657754Y-68725369D01*
X53657754Y-68725369D02*
X53873253Y-68940868D01*
X53576942Y-68159683D02*
X53576942Y-68105809D01*
X53576942Y-68105809D02*
X53550004Y-68024996D01*
X53550004Y-68024996D02*
X53415317Y-67890309D01*
X53415317Y-67890309D02*
X53334505Y-67863372D01*
X53334505Y-67863372D02*
X53280630Y-67863372D01*
X53280630Y-67863372D02*
X53199818Y-67890309D01*
X53199818Y-67890309D02*
X53145943Y-67944184D01*
X53145943Y-67944184D02*
X53092069Y-68051934D01*
X53092069Y-68051934D02*
X53092069Y-68698431D01*
X53092069Y-68698431D02*
X52741882Y-68348245D01*
X53119006Y-67593998D02*
X52741882Y-67216874D01*
X52741882Y-67216874D02*
X52418633Y-68024996D01*
X80520001Y-96870868D02*
X80600814Y-96897805D01*
X80600814Y-96897805D02*
X80681626Y-96978618D01*
X80681626Y-96978618D02*
X80735501Y-97086367D01*
X80735501Y-97086367D02*
X80735501Y-97194117D01*
X80735501Y-97194117D02*
X80708563Y-97274929D01*
X80708563Y-97274929D02*
X80627751Y-97409616D01*
X80627751Y-97409616D02*
X80546939Y-97490428D01*
X80546939Y-97490428D02*
X80412252Y-97571241D01*
X80412252Y-97571241D02*
X80331439Y-97598178D01*
X80331439Y-97598178D02*
X80223690Y-97598178D01*
X80223690Y-97598178D02*
X80115940Y-97544303D01*
X80115940Y-97544303D02*
X80062065Y-97490428D01*
X80062065Y-97490428D02*
X80008191Y-97382679D01*
X80008191Y-97382679D02*
X80008191Y-97328804D01*
X80008191Y-97328804D02*
X80196752Y-97140242D01*
X80196752Y-97140242D02*
X80304502Y-97247992D01*
X79711879Y-97140242D02*
X80277565Y-96574557D01*
X80277565Y-96574557D02*
X80062065Y-96359057D01*
X80062065Y-96359057D02*
X79981253Y-96332120D01*
X79981253Y-96332120D02*
X79927378Y-96332120D01*
X79927378Y-96332120D02*
X79846566Y-96359057D01*
X79846566Y-96359057D02*
X79765754Y-96439870D01*
X79765754Y-96439870D02*
X79738817Y-96520682D01*
X79738817Y-96520682D02*
X79738817Y-96574557D01*
X79738817Y-96574557D02*
X79765754Y-96655369D01*
X79765754Y-96655369D02*
X79981253Y-96870868D01*
X78849882Y-96278245D02*
X79173131Y-96601494D01*
X79011507Y-96439870D02*
X79577192Y-95874184D01*
X79577192Y-95874184D02*
X79550255Y-96008871D01*
X79550255Y-96008871D02*
X79550255Y-96116621D01*
X79550255Y-96116621D02*
X79577192Y-96197433D01*
X78903757Y-95200749D02*
X79173131Y-95470123D01*
X79173131Y-95470123D02*
X78930694Y-95766434D01*
X78930694Y-95766434D02*
X78930694Y-95712560D01*
X78930694Y-95712560D02*
X78903757Y-95631747D01*
X78903757Y-95631747D02*
X78769070Y-95497060D01*
X78769070Y-95497060D02*
X78688258Y-95470123D01*
X78688258Y-95470123D02*
X78634383Y-95470123D01*
X78634383Y-95470123D02*
X78553571Y-95497060D01*
X78553571Y-95497060D02*
X78418884Y-95631747D01*
X78418884Y-95631747D02*
X78391946Y-95712560D01*
X78391946Y-95712560D02*
X78391946Y-95766434D01*
X78391946Y-95766434D02*
X78418884Y-95847247D01*
X78418884Y-95847247D02*
X78553571Y-95981934D01*
X78553571Y-95981934D02*
X78634383Y-96008871D01*
X78634383Y-96008871D02*
X78688258Y-96008871D01*
X80023564Y-78848431D02*
X80104376Y-78875368D01*
X80104376Y-78875368D02*
X80185188Y-78956180D01*
X80185188Y-78956180D02*
X80239063Y-79063930D01*
X80239063Y-79063930D02*
X80239063Y-79171680D01*
X80239063Y-79171680D02*
X80212126Y-79252492D01*
X80212126Y-79252492D02*
X80131314Y-79387179D01*
X80131314Y-79387179D02*
X80050501Y-79467991D01*
X80050501Y-79467991D02*
X79915814Y-79548803D01*
X79915814Y-79548803D02*
X79835002Y-79575741D01*
X79835002Y-79575741D02*
X79727253Y-79575741D01*
X79727253Y-79575741D02*
X79619503Y-79521866D01*
X79619503Y-79521866D02*
X79565628Y-79467991D01*
X79565628Y-79467991D02*
X79511753Y-79360241D01*
X79511753Y-79360241D02*
X79511753Y-79306367D01*
X79511753Y-79306367D02*
X79700315Y-79117805D01*
X79700315Y-79117805D02*
X79808065Y-79225554D01*
X79215442Y-79117805D02*
X79781127Y-78552119D01*
X79781127Y-78552119D02*
X78892193Y-78794556D01*
X78892193Y-78794556D02*
X79457879Y-78228871D01*
X78622819Y-78525182D02*
X79188505Y-77959497D01*
X79188505Y-77959497D02*
X79053818Y-77824810D01*
X79053818Y-77824810D02*
X78946068Y-77770935D01*
X78946068Y-77770935D02*
X78838319Y-77770935D01*
X78838319Y-77770935D02*
X78757506Y-77797872D01*
X78757506Y-77797872D02*
X78622819Y-77878685D01*
X78622819Y-77878685D02*
X78542007Y-77959497D01*
X78542007Y-77959497D02*
X78461195Y-78094184D01*
X78461195Y-78094184D02*
X78434258Y-78174996D01*
X78434258Y-78174996D02*
X78434258Y-78282746D01*
X78434258Y-78282746D02*
X78488132Y-78390495D01*
X78488132Y-78390495D02*
X78622819Y-78525182D01*
X79996627Y-58501494D02*
X80077439Y-58528431D01*
X80077439Y-58528431D02*
X80158251Y-58609243D01*
X80158251Y-58609243D02*
X80212126Y-58716993D01*
X80212126Y-58716993D02*
X80212126Y-58824742D01*
X80212126Y-58824742D02*
X80185189Y-58905555D01*
X80185189Y-58905555D02*
X80104376Y-59040242D01*
X80104376Y-59040242D02*
X80023564Y-59121054D01*
X80023564Y-59121054D02*
X79888877Y-59201866D01*
X79888877Y-59201866D02*
X79808065Y-59228803D01*
X79808065Y-59228803D02*
X79700315Y-59228803D01*
X79700315Y-59228803D02*
X79592566Y-59174929D01*
X79592566Y-59174929D02*
X79538691Y-59121054D01*
X79538691Y-59121054D02*
X79484816Y-59013304D01*
X79484816Y-59013304D02*
X79484816Y-58959429D01*
X79484816Y-58959429D02*
X79673378Y-58770868D01*
X79673378Y-58770868D02*
X79781128Y-58878617D01*
X79188505Y-58770868D02*
X79754190Y-58205182D01*
X79754190Y-58205182D02*
X79538691Y-57989683D01*
X79538691Y-57989683D02*
X79457879Y-57962746D01*
X79457879Y-57962746D02*
X79404004Y-57962746D01*
X79404004Y-57962746D02*
X79323192Y-57989683D01*
X79323192Y-57989683D02*
X79242380Y-58070495D01*
X79242380Y-58070495D02*
X79215442Y-58151307D01*
X79215442Y-58151307D02*
X79215442Y-58205182D01*
X79215442Y-58205182D02*
X79242380Y-58285994D01*
X79242380Y-58285994D02*
X79457879Y-58501494D01*
X79242380Y-57693372D02*
X78892193Y-57343185D01*
X78892193Y-57343185D02*
X78865256Y-57747246D01*
X78865256Y-57747246D02*
X78784444Y-57666434D01*
X78784444Y-57666434D02*
X78703632Y-57639497D01*
X78703632Y-57639497D02*
X78649757Y-57639497D01*
X78649757Y-57639497D02*
X78568945Y-57666434D01*
X78568945Y-57666434D02*
X78434258Y-57801121D01*
X78434258Y-57801121D02*
X78407320Y-57881933D01*
X78407320Y-57881933D02*
X78407320Y-57935808D01*
X78407320Y-57935808D02*
X78434258Y-58016620D01*
X78434258Y-58016620D02*
X78595882Y-58178245D01*
X78595882Y-58178245D02*
X78676694Y-58205182D01*
X78676694Y-58205182D02*
X78730569Y-58205182D01*
X79996627Y-76281494D02*
X80077439Y-76308431D01*
X80077439Y-76308431D02*
X80158251Y-76389243D01*
X80158251Y-76389243D02*
X80212126Y-76496993D01*
X80212126Y-76496993D02*
X80212126Y-76604742D01*
X80212126Y-76604742D02*
X80185189Y-76685555D01*
X80185189Y-76685555D02*
X80104376Y-76820242D01*
X80104376Y-76820242D02*
X80023564Y-76901054D01*
X80023564Y-76901054D02*
X79888877Y-76981866D01*
X79888877Y-76981866D02*
X79808065Y-77008803D01*
X79808065Y-77008803D02*
X79700315Y-77008803D01*
X79700315Y-77008803D02*
X79592566Y-76954929D01*
X79592566Y-76954929D02*
X79538691Y-76901054D01*
X79538691Y-76901054D02*
X79484816Y-76793304D01*
X79484816Y-76793304D02*
X79484816Y-76739429D01*
X79484816Y-76739429D02*
X79673378Y-76550868D01*
X79673378Y-76550868D02*
X79781128Y-76658617D01*
X79188505Y-76550868D02*
X79754190Y-75985182D01*
X79754190Y-75985182D02*
X79538691Y-75769683D01*
X79538691Y-75769683D02*
X79457879Y-75742746D01*
X79457879Y-75742746D02*
X79404004Y-75742746D01*
X79404004Y-75742746D02*
X79323192Y-75769683D01*
X79323192Y-75769683D02*
X79242380Y-75850495D01*
X79242380Y-75850495D02*
X79215442Y-75931307D01*
X79215442Y-75931307D02*
X79215442Y-75985182D01*
X79215442Y-75985182D02*
X79242380Y-76065994D01*
X79242380Y-76065994D02*
X79457879Y-76281494D01*
X78595882Y-75958245D02*
X78488132Y-75850495D01*
X78488132Y-75850495D02*
X78461195Y-75769683D01*
X78461195Y-75769683D02*
X78461195Y-75715808D01*
X78461195Y-75715808D02*
X78488132Y-75581121D01*
X78488132Y-75581121D02*
X78568945Y-75446434D01*
X78568945Y-75446434D02*
X78784444Y-75230935D01*
X78784444Y-75230935D02*
X78865256Y-75203998D01*
X78865256Y-75203998D02*
X78919131Y-75203998D01*
X78919131Y-75203998D02*
X78999943Y-75230935D01*
X78999943Y-75230935D02*
X79107693Y-75338685D01*
X79107693Y-75338685D02*
X79134630Y-75419497D01*
X79134630Y-75419497D02*
X79134630Y-75473372D01*
X79134630Y-75473372D02*
X79107693Y-75554184D01*
X79107693Y-75554184D02*
X78973006Y-75688871D01*
X78973006Y-75688871D02*
X78892193Y-75715808D01*
X78892193Y-75715808D02*
X78838319Y-75715808D01*
X78838319Y-75715808D02*
X78757506Y-75688871D01*
X78757506Y-75688871D02*
X78649757Y-75581121D01*
X78649757Y-75581121D02*
X78622819Y-75500309D01*
X78622819Y-75500309D02*
X78622819Y-75446434D01*
X78622819Y-75446434D02*
X78649757Y-75365622D01*
X54354935Y-61884049D02*
X54085561Y-61614675D01*
X54247186Y-62099549D02*
X54624309Y-61345301D01*
X54624309Y-61345301D02*
X53870062Y-61722425D01*
X53681500Y-61533863D02*
X54247186Y-60968178D01*
X54247186Y-60968178D02*
X54112499Y-60833491D01*
X54112499Y-60833491D02*
X54004749Y-60779616D01*
X54004749Y-60779616D02*
X53897000Y-60779616D01*
X53897000Y-60779616D02*
X53816187Y-60806553D01*
X53816187Y-60806553D02*
X53681500Y-60887366D01*
X53681500Y-60887366D02*
X53600688Y-60968178D01*
X53600688Y-60968178D02*
X53519876Y-61102865D01*
X53519876Y-61102865D02*
X53492939Y-61183677D01*
X53492939Y-61183677D02*
X53492939Y-61291427D01*
X53492939Y-61291427D02*
X53546813Y-61399176D01*
X53546813Y-61399176D02*
X53681500Y-61533863D01*
X52846441Y-60591054D02*
X52846441Y-60644929D01*
X52846441Y-60644929D02*
X52900316Y-60752679D01*
X52900316Y-60752679D02*
X52954191Y-60806553D01*
X52954191Y-60806553D02*
X53061940Y-60860428D01*
X53061940Y-60860428D02*
X53169690Y-60860428D01*
X53169690Y-60860428D02*
X53250502Y-60833491D01*
X53250502Y-60833491D02*
X53385189Y-60752679D01*
X53385189Y-60752679D02*
X53466001Y-60671866D01*
X53466001Y-60671866D02*
X53546813Y-60537179D01*
X53546813Y-60537179D02*
X53573751Y-60456367D01*
X53573751Y-60456367D02*
X53573751Y-60348618D01*
X53573751Y-60348618D02*
X53519876Y-60240868D01*
X53519876Y-60240868D02*
X53466001Y-60186993D01*
X53466001Y-60186993D02*
X53358252Y-60133118D01*
X53358252Y-60133118D02*
X53304377Y-60133118D01*
X52630942Y-60591054D02*
X52199943Y-60160056D01*
X52765629Y-59486621D02*
X52011381Y-59863744D01*
X52011381Y-59863744D02*
X52388505Y-59109497D01*
X51311009Y-59163372D02*
X51768945Y-59082560D01*
X51634258Y-59486621D02*
X52199943Y-58920935D01*
X52199943Y-58920935D02*
X51984444Y-58705436D01*
X51984444Y-58705436D02*
X51903632Y-58678499D01*
X51903632Y-58678499D02*
X51849757Y-58678499D01*
X51849757Y-58678499D02*
X51768945Y-58705436D01*
X51768945Y-58705436D02*
X51688133Y-58786248D01*
X51688133Y-58786248D02*
X51661195Y-58867061D01*
X51661195Y-58867061D02*
X51661195Y-58920935D01*
X51661195Y-58920935D02*
X51688133Y-59001748D01*
X51688133Y-59001748D02*
X51903632Y-59217247D01*
X51364884Y-58624624D02*
X51176322Y-58436062D01*
X50799199Y-58651561D02*
X51068573Y-58920935D01*
X51068573Y-58920935D02*
X51634258Y-58355250D01*
X51634258Y-58355250D02*
X51364884Y-58085876D01*
X50664511Y-57924251D02*
X50853073Y-58112813D01*
X50556762Y-58409125D02*
X51122447Y-57843439D01*
X51122447Y-57843439D02*
X50853073Y-57574065D01*
X54358126Y-67091240D02*
X54088752Y-66821866D01*
X54250376Y-67306739D02*
X54627500Y-66552492D01*
X54627500Y-66552492D02*
X53873253Y-66929615D01*
X53927128Y-65905994D02*
X54007940Y-65932932D01*
X54007940Y-65932932D02*
X54088752Y-66013744D01*
X54088752Y-66013744D02*
X54142627Y-66121494D01*
X54142627Y-66121494D02*
X54142627Y-66229243D01*
X54142627Y-66229243D02*
X54115689Y-66310055D01*
X54115689Y-66310055D02*
X54034877Y-66444742D01*
X54034877Y-66444742D02*
X53954065Y-66525555D01*
X53954065Y-66525555D02*
X53819378Y-66606367D01*
X53819378Y-66606367D02*
X53738566Y-66633304D01*
X53738566Y-66633304D02*
X53630816Y-66633304D01*
X53630816Y-66633304D02*
X53523067Y-66579429D01*
X53523067Y-66579429D02*
X53469192Y-66525555D01*
X53469192Y-66525555D02*
X53415317Y-66417805D01*
X53415317Y-66417805D02*
X53415317Y-66363930D01*
X53415317Y-66363930D02*
X53603879Y-66175368D01*
X53603879Y-66175368D02*
X53711628Y-66283118D01*
X53119006Y-66175368D02*
X53684691Y-65609683D01*
X53684691Y-65609683D02*
X52795757Y-65852120D01*
X52795757Y-65852120D02*
X53361442Y-65286434D01*
X52526383Y-65582746D02*
X53092068Y-65017060D01*
X53092068Y-65017060D02*
X52957381Y-64882373D01*
X52957381Y-64882373D02*
X52849632Y-64828498D01*
X52849632Y-64828498D02*
X52741882Y-64828498D01*
X52741882Y-64828498D02*
X52661070Y-64855436D01*
X52661070Y-64855436D02*
X52526383Y-64936248D01*
X52526383Y-64936248D02*
X52445571Y-65017060D01*
X52445571Y-65017060D02*
X52364758Y-65151747D01*
X52364758Y-65151747D02*
X52337821Y-65232560D01*
X52337821Y-65232560D02*
X52337821Y-65340309D01*
X52337821Y-65340309D02*
X52391696Y-65448059D01*
X52391696Y-65448059D02*
X52526383Y-65582746D01*
X54619876Y-58840868D02*
X54269690Y-58490682D01*
X54269690Y-58490682D02*
X54242752Y-58894743D01*
X54242752Y-58894743D02*
X54161940Y-58813931D01*
X54161940Y-58813931D02*
X54081128Y-58786993D01*
X54081128Y-58786993D02*
X54027253Y-58786993D01*
X54027253Y-58786993D02*
X53946441Y-58813931D01*
X53946441Y-58813931D02*
X53811754Y-58948618D01*
X53811754Y-58948618D02*
X53784817Y-59029430D01*
X53784817Y-59029430D02*
X53784817Y-59083305D01*
X53784817Y-59083305D02*
X53811754Y-59164117D01*
X53811754Y-59164117D02*
X53973378Y-59325741D01*
X53973378Y-59325741D02*
X54054191Y-59352679D01*
X54054191Y-59352679D02*
X54108065Y-59352679D01*
X54108065Y-58329057D02*
X53353818Y-58706181D01*
X53353818Y-58706181D02*
X53730942Y-57951934D01*
X53596255Y-57817247D02*
X53246069Y-57467061D01*
X53246069Y-57467061D02*
X53219131Y-57871122D01*
X53219131Y-57871122D02*
X53138319Y-57790309D01*
X53138319Y-57790309D02*
X53057507Y-57763372D01*
X53057507Y-57763372D02*
X53003632Y-57763372D01*
X53003632Y-57763372D02*
X52922820Y-57790309D01*
X52922820Y-57790309D02*
X52788133Y-57924996D01*
X52788133Y-57924996D02*
X52761195Y-58005809D01*
X52761195Y-58005809D02*
X52761195Y-58059683D01*
X52761195Y-58059683D02*
X52788133Y-58140496D01*
X52788133Y-58140496D02*
X52949757Y-58302120D01*
X52949757Y-58302120D02*
X53030569Y-58329057D01*
X53030569Y-58329057D02*
X53084444Y-58329057D01*
X79996627Y-63581494D02*
X80077439Y-63608431D01*
X80077439Y-63608431D02*
X80158251Y-63689243D01*
X80158251Y-63689243D02*
X80212126Y-63796993D01*
X80212126Y-63796993D02*
X80212126Y-63904742D01*
X80212126Y-63904742D02*
X80185189Y-63985555D01*
X80185189Y-63985555D02*
X80104376Y-64120242D01*
X80104376Y-64120242D02*
X80023564Y-64201054D01*
X80023564Y-64201054D02*
X79888877Y-64281866D01*
X79888877Y-64281866D02*
X79808065Y-64308803D01*
X79808065Y-64308803D02*
X79700315Y-64308803D01*
X79700315Y-64308803D02*
X79592566Y-64254929D01*
X79592566Y-64254929D02*
X79538691Y-64201054D01*
X79538691Y-64201054D02*
X79484816Y-64093304D01*
X79484816Y-64093304D02*
X79484816Y-64039429D01*
X79484816Y-64039429D02*
X79673378Y-63850868D01*
X79673378Y-63850868D02*
X79781128Y-63958617D01*
X79188505Y-63850868D02*
X79754190Y-63285182D01*
X79754190Y-63285182D02*
X79538691Y-63069683D01*
X79538691Y-63069683D02*
X79457879Y-63042746D01*
X79457879Y-63042746D02*
X79404004Y-63042746D01*
X79404004Y-63042746D02*
X79323192Y-63069683D01*
X79323192Y-63069683D02*
X79242380Y-63150495D01*
X79242380Y-63150495D02*
X79215442Y-63231307D01*
X79215442Y-63231307D02*
X79215442Y-63285182D01*
X79215442Y-63285182D02*
X79242380Y-63365994D01*
X79242380Y-63365994D02*
X79457879Y-63581494D01*
X78919131Y-62450123D02*
X79188505Y-62719497D01*
X79188505Y-62719497D02*
X78946068Y-63015808D01*
X78946068Y-63015808D02*
X78946068Y-62961933D01*
X78946068Y-62961933D02*
X78919131Y-62881121D01*
X78919131Y-62881121D02*
X78784444Y-62746434D01*
X78784444Y-62746434D02*
X78703632Y-62719497D01*
X78703632Y-62719497D02*
X78649757Y-62719497D01*
X78649757Y-62719497D02*
X78568945Y-62746434D01*
X78568945Y-62746434D02*
X78434258Y-62881121D01*
X78434258Y-62881121D02*
X78407320Y-62961933D01*
X78407320Y-62961933D02*
X78407320Y-63015808D01*
X78407320Y-63015808D02*
X78434258Y-63096620D01*
X78434258Y-63096620D02*
X78568945Y-63231307D01*
X78568945Y-63231307D02*
X78649757Y-63258245D01*
X78649757Y-63258245D02*
X78703632Y-63258245D01*
X80023564Y-53448431D02*
X80104376Y-53475368D01*
X80104376Y-53475368D02*
X80185188Y-53556180D01*
X80185188Y-53556180D02*
X80239063Y-53663930D01*
X80239063Y-53663930D02*
X80239063Y-53771680D01*
X80239063Y-53771680D02*
X80212126Y-53852492D01*
X80212126Y-53852492D02*
X80131314Y-53987179D01*
X80131314Y-53987179D02*
X80050501Y-54067991D01*
X80050501Y-54067991D02*
X79915814Y-54148803D01*
X79915814Y-54148803D02*
X79835002Y-54175741D01*
X79835002Y-54175741D02*
X79727253Y-54175741D01*
X79727253Y-54175741D02*
X79619503Y-54121866D01*
X79619503Y-54121866D02*
X79565628Y-54067991D01*
X79565628Y-54067991D02*
X79511753Y-53960241D01*
X79511753Y-53960241D02*
X79511753Y-53906367D01*
X79511753Y-53906367D02*
X79700315Y-53717805D01*
X79700315Y-53717805D02*
X79808065Y-53825554D01*
X79215442Y-53717805D02*
X79781127Y-53152119D01*
X79781127Y-53152119D02*
X78892193Y-53394556D01*
X78892193Y-53394556D02*
X79457879Y-52828871D01*
X78622819Y-53125182D02*
X79188505Y-52559497D01*
X79188505Y-52559497D02*
X79053818Y-52424810D01*
X79053818Y-52424810D02*
X78946068Y-52370935D01*
X78946068Y-52370935D02*
X78838319Y-52370935D01*
X78838319Y-52370935D02*
X78757506Y-52397872D01*
X78757506Y-52397872D02*
X78622819Y-52478685D01*
X78622819Y-52478685D02*
X78542007Y-52559497D01*
X78542007Y-52559497D02*
X78461195Y-52694184D01*
X78461195Y-52694184D02*
X78434258Y-52774996D01*
X78434258Y-52774996D02*
X78434258Y-52882746D01*
X78434258Y-52882746D02*
X78488132Y-52990495D01*
X78488132Y-52990495D02*
X78622819Y-53125182D01*
X80096627Y-50871494D02*
X80177439Y-50898431D01*
X80177439Y-50898431D02*
X80258251Y-50979243D01*
X80258251Y-50979243D02*
X80312126Y-51086993D01*
X80312126Y-51086993D02*
X80312126Y-51194742D01*
X80312126Y-51194742D02*
X80285189Y-51275555D01*
X80285189Y-51275555D02*
X80204376Y-51410242D01*
X80204376Y-51410242D02*
X80123564Y-51491054D01*
X80123564Y-51491054D02*
X79988877Y-51571866D01*
X79988877Y-51571866D02*
X79908065Y-51598803D01*
X79908065Y-51598803D02*
X79800315Y-51598803D01*
X79800315Y-51598803D02*
X79692566Y-51544929D01*
X79692566Y-51544929D02*
X79638691Y-51491054D01*
X79638691Y-51491054D02*
X79584816Y-51383304D01*
X79584816Y-51383304D02*
X79584816Y-51329429D01*
X79584816Y-51329429D02*
X79773378Y-51140868D01*
X79773378Y-51140868D02*
X79881128Y-51248617D01*
X79288505Y-51140868D02*
X79854190Y-50575182D01*
X79854190Y-50575182D02*
X79638691Y-50359683D01*
X79638691Y-50359683D02*
X79557879Y-50332746D01*
X79557879Y-50332746D02*
X79504004Y-50332746D01*
X79504004Y-50332746D02*
X79423192Y-50359683D01*
X79423192Y-50359683D02*
X79342380Y-50440495D01*
X79342380Y-50440495D02*
X79315442Y-50521307D01*
X79315442Y-50521307D02*
X79315442Y-50575182D01*
X79315442Y-50575182D02*
X79342380Y-50655994D01*
X79342380Y-50655994D02*
X79557879Y-50871494D01*
X78426508Y-50278871D02*
X78749757Y-50602120D01*
X78588132Y-50440495D02*
X79153818Y-49874810D01*
X79153818Y-49874810D02*
X79126880Y-50009497D01*
X79126880Y-50009497D02*
X79126880Y-50117246D01*
X79126880Y-50117246D02*
X79153818Y-50198059D01*
X54412001Y-71470868D02*
X54492814Y-71497805D01*
X54492814Y-71497805D02*
X54573626Y-71578618D01*
X54573626Y-71578618D02*
X54627501Y-71686367D01*
X54627501Y-71686367D02*
X54627501Y-71794117D01*
X54627501Y-71794117D02*
X54600563Y-71874929D01*
X54600563Y-71874929D02*
X54519751Y-72009616D01*
X54519751Y-72009616D02*
X54438939Y-72090428D01*
X54438939Y-72090428D02*
X54304252Y-72171241D01*
X54304252Y-72171241D02*
X54223439Y-72198178D01*
X54223439Y-72198178D02*
X54115690Y-72198178D01*
X54115690Y-72198178D02*
X54007940Y-72144303D01*
X54007940Y-72144303D02*
X53954065Y-72090428D01*
X53954065Y-72090428D02*
X53900191Y-71982679D01*
X53900191Y-71982679D02*
X53900191Y-71928804D01*
X53900191Y-71928804D02*
X54088752Y-71740242D01*
X54088752Y-71740242D02*
X54196502Y-71847992D01*
X53603879Y-71740242D02*
X54169565Y-71174557D01*
X54169565Y-71174557D02*
X53954065Y-70959057D01*
X53954065Y-70959057D02*
X53873253Y-70932120D01*
X53873253Y-70932120D02*
X53819378Y-70932120D01*
X53819378Y-70932120D02*
X53738566Y-70959057D01*
X53738566Y-70959057D02*
X53657754Y-71039870D01*
X53657754Y-71039870D02*
X53630817Y-71120682D01*
X53630817Y-71120682D02*
X53630817Y-71174557D01*
X53630817Y-71174557D02*
X53657754Y-71255369D01*
X53657754Y-71255369D02*
X53873253Y-71470868D01*
X53576942Y-70689683D02*
X53576942Y-70635809D01*
X53576942Y-70635809D02*
X53550004Y-70554996D01*
X53550004Y-70554996D02*
X53415317Y-70420309D01*
X53415317Y-70420309D02*
X53334505Y-70393372D01*
X53334505Y-70393372D02*
X53280630Y-70393372D01*
X53280630Y-70393372D02*
X53199818Y-70420309D01*
X53199818Y-70420309D02*
X53145943Y-70474184D01*
X53145943Y-70474184D02*
X53092069Y-70581934D01*
X53092069Y-70581934D02*
X53092069Y-71228431D01*
X53092069Y-71228431D02*
X52741882Y-70878245D01*
X52822694Y-69827686D02*
X52930444Y-69935436D01*
X52930444Y-69935436D02*
X52957381Y-70016248D01*
X52957381Y-70016248D02*
X52957381Y-70070123D01*
X52957381Y-70070123D02*
X52930444Y-70204810D01*
X52930444Y-70204810D02*
X52849632Y-70339497D01*
X52849632Y-70339497D02*
X52634133Y-70554996D01*
X52634133Y-70554996D02*
X52553320Y-70581934D01*
X52553320Y-70581934D02*
X52499446Y-70581934D01*
X52499446Y-70581934D02*
X52418633Y-70554996D01*
X52418633Y-70554996D02*
X52310884Y-70447247D01*
X52310884Y-70447247D02*
X52283946Y-70366434D01*
X52283946Y-70366434D02*
X52283946Y-70312560D01*
X52283946Y-70312560D02*
X52310884Y-70231747D01*
X52310884Y-70231747D02*
X52445571Y-70097060D01*
X52445571Y-70097060D02*
X52526383Y-70070123D01*
X52526383Y-70070123D02*
X52580258Y-70070123D01*
X52580258Y-70070123D02*
X52661070Y-70097060D01*
X52661070Y-70097060D02*
X52768820Y-70204810D01*
X52768820Y-70204810D02*
X52795757Y-70285622D01*
X52795757Y-70285622D02*
X52795757Y-70339497D01*
X52795757Y-70339497D02*
X52768820Y-70420309D01*
X80666001Y-84170868D02*
X80746814Y-84197805D01*
X80746814Y-84197805D02*
X80827626Y-84278618D01*
X80827626Y-84278618D02*
X80881501Y-84386367D01*
X80881501Y-84386367D02*
X80881501Y-84494117D01*
X80881501Y-84494117D02*
X80854563Y-84574929D01*
X80854563Y-84574929D02*
X80773751Y-84709616D01*
X80773751Y-84709616D02*
X80692939Y-84790428D01*
X80692939Y-84790428D02*
X80558252Y-84871241D01*
X80558252Y-84871241D02*
X80477439Y-84898178D01*
X80477439Y-84898178D02*
X80369690Y-84898178D01*
X80369690Y-84898178D02*
X80261940Y-84844303D01*
X80261940Y-84844303D02*
X80208065Y-84790428D01*
X80208065Y-84790428D02*
X80154191Y-84682679D01*
X80154191Y-84682679D02*
X80154191Y-84628804D01*
X80154191Y-84628804D02*
X80342752Y-84440242D01*
X80342752Y-84440242D02*
X80450502Y-84547992D01*
X79857879Y-84440242D02*
X80423565Y-83874557D01*
X80423565Y-83874557D02*
X80208065Y-83659057D01*
X80208065Y-83659057D02*
X80127253Y-83632120D01*
X80127253Y-83632120D02*
X80073378Y-83632120D01*
X80073378Y-83632120D02*
X79992566Y-83659057D01*
X79992566Y-83659057D02*
X79911754Y-83739870D01*
X79911754Y-83739870D02*
X79884817Y-83820682D01*
X79884817Y-83820682D02*
X79884817Y-83874557D01*
X79884817Y-83874557D02*
X79911754Y-83955369D01*
X79911754Y-83955369D02*
X80127253Y-84170868D01*
X78995882Y-83578245D02*
X79319131Y-83901494D01*
X79157507Y-83739870D02*
X79723192Y-83174184D01*
X79723192Y-83174184D02*
X79696255Y-83308871D01*
X79696255Y-83308871D02*
X79696255Y-83416621D01*
X79696255Y-83416621D02*
X79723192Y-83497433D01*
X78457134Y-83039497D02*
X78780383Y-83362746D01*
X78618759Y-83201121D02*
X79184444Y-82635436D01*
X79184444Y-82635436D02*
X79157507Y-82770123D01*
X79157507Y-82770123D02*
X79157507Y-82877873D01*
X79157507Y-82877873D02*
X79184444Y-82958685D01*
X79896627Y-71171494D02*
X79977439Y-71198431D01*
X79977439Y-71198431D02*
X80058251Y-71279243D01*
X80058251Y-71279243D02*
X80112126Y-71386993D01*
X80112126Y-71386993D02*
X80112126Y-71494742D01*
X80112126Y-71494742D02*
X80085189Y-71575555D01*
X80085189Y-71575555D02*
X80004376Y-71710242D01*
X80004376Y-71710242D02*
X79923564Y-71791054D01*
X79923564Y-71791054D02*
X79788877Y-71871866D01*
X79788877Y-71871866D02*
X79708065Y-71898803D01*
X79708065Y-71898803D02*
X79600315Y-71898803D01*
X79600315Y-71898803D02*
X79492566Y-71844929D01*
X79492566Y-71844929D02*
X79438691Y-71791054D01*
X79438691Y-71791054D02*
X79384816Y-71683304D01*
X79384816Y-71683304D02*
X79384816Y-71629429D01*
X79384816Y-71629429D02*
X79573378Y-71440868D01*
X79573378Y-71440868D02*
X79681128Y-71548617D01*
X79088505Y-71440868D02*
X79654190Y-70875182D01*
X79654190Y-70875182D02*
X79438691Y-70659683D01*
X79438691Y-70659683D02*
X79357879Y-70632746D01*
X79357879Y-70632746D02*
X79304004Y-70632746D01*
X79304004Y-70632746D02*
X79223192Y-70659683D01*
X79223192Y-70659683D02*
X79142380Y-70740495D01*
X79142380Y-70740495D02*
X79115442Y-70821307D01*
X79115442Y-70821307D02*
X79115442Y-70875182D01*
X79115442Y-70875182D02*
X79142380Y-70955994D01*
X79142380Y-70955994D02*
X79357879Y-71171494D01*
X79142380Y-70363372D02*
X78765256Y-69986248D01*
X78765256Y-69986248D02*
X78442007Y-70794370D01*
X54423564Y-91548431D02*
X54504376Y-91575368D01*
X54504376Y-91575368D02*
X54585188Y-91656180D01*
X54585188Y-91656180D02*
X54639063Y-91763930D01*
X54639063Y-91763930D02*
X54639063Y-91871680D01*
X54639063Y-91871680D02*
X54612126Y-91952492D01*
X54612126Y-91952492D02*
X54531314Y-92087179D01*
X54531314Y-92087179D02*
X54450501Y-92167991D01*
X54450501Y-92167991D02*
X54315814Y-92248803D01*
X54315814Y-92248803D02*
X54235002Y-92275741D01*
X54235002Y-92275741D02*
X54127253Y-92275741D01*
X54127253Y-92275741D02*
X54019503Y-92221866D01*
X54019503Y-92221866D02*
X53965628Y-92167991D01*
X53965628Y-92167991D02*
X53911753Y-92060241D01*
X53911753Y-92060241D02*
X53911753Y-92006367D01*
X53911753Y-92006367D02*
X54100315Y-91817805D01*
X54100315Y-91817805D02*
X54208065Y-91925554D01*
X53615442Y-91817805D02*
X54181127Y-91252119D01*
X54181127Y-91252119D02*
X53292193Y-91494556D01*
X53292193Y-91494556D02*
X53857879Y-90928871D01*
X53022819Y-91225182D02*
X53588505Y-90659497D01*
X53588505Y-90659497D02*
X53453818Y-90524810D01*
X53453818Y-90524810D02*
X53346068Y-90470935D01*
X53346068Y-90470935D02*
X53238319Y-90470935D01*
X53238319Y-90470935D02*
X53157506Y-90497872D01*
X53157506Y-90497872D02*
X53022819Y-90578685D01*
X53022819Y-90578685D02*
X52942007Y-90659497D01*
X52942007Y-90659497D02*
X52861195Y-90794184D01*
X52861195Y-90794184D02*
X52834258Y-90874996D01*
X52834258Y-90874996D02*
X52834258Y-90982746D01*
X52834258Y-90982746D02*
X52888132Y-91090495D01*
X52888132Y-91090495D02*
X53022819Y-91225182D01*
X54556593Y-48877585D02*
X53802346Y-49254709D01*
X53802346Y-49254709D02*
X54179470Y-48500462D01*
X53532972Y-48392712D02*
X53425223Y-48338838D01*
X53425223Y-48338838D02*
X53371348Y-48338838D01*
X53371348Y-48338838D02*
X53290536Y-48365775D01*
X53290536Y-48365775D02*
X53209723Y-48446587D01*
X53209723Y-48446587D02*
X53182786Y-48527399D01*
X53182786Y-48527399D02*
X53182786Y-48581274D01*
X53182786Y-48581274D02*
X53209723Y-48662086D01*
X53209723Y-48662086D02*
X53425223Y-48877586D01*
X53425223Y-48877586D02*
X53990908Y-48311900D01*
X53990908Y-48311900D02*
X53802346Y-48123338D01*
X53802346Y-48123338D02*
X53721534Y-48096401D01*
X53721534Y-48096401D02*
X53667659Y-48096401D01*
X53667659Y-48096401D02*
X53586847Y-48123338D01*
X53586847Y-48123338D02*
X53532972Y-48177213D01*
X53532972Y-48177213D02*
X53506035Y-48258025D01*
X53506035Y-48258025D02*
X53506035Y-48311900D01*
X53506035Y-48311900D02*
X53532972Y-48392712D01*
X53532972Y-48392712D02*
X53721534Y-48581274D01*
X53425223Y-47746215D02*
X52967287Y-48204151D01*
X52967287Y-48204151D02*
X52886475Y-48231088D01*
X52886475Y-48231088D02*
X52832600Y-48231088D01*
X52832600Y-48231088D02*
X52751788Y-48204151D01*
X52751788Y-48204151D02*
X52644038Y-48096401D01*
X52644038Y-48096401D02*
X52617101Y-48015589D01*
X52617101Y-48015589D02*
X52617101Y-47961714D01*
X52617101Y-47961714D02*
X52644038Y-47880902D01*
X52644038Y-47880902D02*
X53101974Y-47422966D01*
X52320789Y-47719277D02*
X52213040Y-47665403D01*
X52213040Y-47665403D02*
X52078353Y-47530716D01*
X52078353Y-47530716D02*
X52051415Y-47449903D01*
X52051415Y-47449903D02*
X52051415Y-47396029D01*
X52051415Y-47396029D02*
X52078353Y-47315216D01*
X52078353Y-47315216D02*
X52132228Y-47261342D01*
X52132228Y-47261342D02*
X52213040Y-47234404D01*
X52213040Y-47234404D02*
X52266915Y-47234404D01*
X52266915Y-47234404D02*
X52347727Y-47261342D01*
X52347727Y-47261342D02*
X52482414Y-47342154D01*
X52482414Y-47342154D02*
X52563226Y-47369091D01*
X52563226Y-47369091D02*
X52617101Y-47369091D01*
X52617101Y-47369091D02*
X52697913Y-47342154D01*
X52697913Y-47342154D02*
X52751788Y-47288279D01*
X52751788Y-47288279D02*
X52778725Y-47207467D01*
X52778725Y-47207467D02*
X52778725Y-47153592D01*
X52778725Y-47153592D02*
X52751788Y-47072780D01*
X52751788Y-47072780D02*
X52617101Y-46938093D01*
X52617101Y-46938093D02*
X52509351Y-46884218D01*
X80566001Y-94330868D02*
X80646814Y-94357805D01*
X80646814Y-94357805D02*
X80727626Y-94438618D01*
X80727626Y-94438618D02*
X80781501Y-94546367D01*
X80781501Y-94546367D02*
X80781501Y-94654117D01*
X80781501Y-94654117D02*
X80754563Y-94734929D01*
X80754563Y-94734929D02*
X80673751Y-94869616D01*
X80673751Y-94869616D02*
X80592939Y-94950428D01*
X80592939Y-94950428D02*
X80458252Y-95031241D01*
X80458252Y-95031241D02*
X80377439Y-95058178D01*
X80377439Y-95058178D02*
X80269690Y-95058178D01*
X80269690Y-95058178D02*
X80161940Y-95004303D01*
X80161940Y-95004303D02*
X80108065Y-94950428D01*
X80108065Y-94950428D02*
X80054191Y-94842679D01*
X80054191Y-94842679D02*
X80054191Y-94788804D01*
X80054191Y-94788804D02*
X80242752Y-94600242D01*
X80242752Y-94600242D02*
X80350502Y-94707992D01*
X79757879Y-94600242D02*
X80323565Y-94034557D01*
X80323565Y-94034557D02*
X80108065Y-93819057D01*
X80108065Y-93819057D02*
X80027253Y-93792120D01*
X80027253Y-93792120D02*
X79973378Y-93792120D01*
X79973378Y-93792120D02*
X79892566Y-93819057D01*
X79892566Y-93819057D02*
X79811754Y-93899870D01*
X79811754Y-93899870D02*
X79784817Y-93980682D01*
X79784817Y-93980682D02*
X79784817Y-94034557D01*
X79784817Y-94034557D02*
X79811754Y-94115369D01*
X79811754Y-94115369D02*
X80027253Y-94330868D01*
X78895882Y-93738245D02*
X79219131Y-94061494D01*
X79057507Y-93899870D02*
X79623192Y-93334184D01*
X79623192Y-93334184D02*
X79596255Y-93468871D01*
X79596255Y-93468871D02*
X79596255Y-93576621D01*
X79596255Y-93576621D02*
X79623192Y-93657433D01*
X78788133Y-92876248D02*
X78411009Y-93253372D01*
X79138319Y-92795436D02*
X78868945Y-93334184D01*
X78868945Y-93334184D02*
X78518759Y-92983998D01*
X54412001Y-86710868D02*
X54492814Y-86737805D01*
X54492814Y-86737805D02*
X54573626Y-86818618D01*
X54573626Y-86818618D02*
X54627501Y-86926367D01*
X54627501Y-86926367D02*
X54627501Y-87034117D01*
X54627501Y-87034117D02*
X54600563Y-87114929D01*
X54600563Y-87114929D02*
X54519751Y-87249616D01*
X54519751Y-87249616D02*
X54438939Y-87330428D01*
X54438939Y-87330428D02*
X54304252Y-87411241D01*
X54304252Y-87411241D02*
X54223439Y-87438178D01*
X54223439Y-87438178D02*
X54115690Y-87438178D01*
X54115690Y-87438178D02*
X54007940Y-87384303D01*
X54007940Y-87384303D02*
X53954065Y-87330428D01*
X53954065Y-87330428D02*
X53900191Y-87222679D01*
X53900191Y-87222679D02*
X53900191Y-87168804D01*
X53900191Y-87168804D02*
X54088752Y-86980242D01*
X54088752Y-86980242D02*
X54196502Y-87087992D01*
X53603879Y-86980242D02*
X54169565Y-86414557D01*
X54169565Y-86414557D02*
X53954065Y-86199057D01*
X53954065Y-86199057D02*
X53873253Y-86172120D01*
X53873253Y-86172120D02*
X53819378Y-86172120D01*
X53819378Y-86172120D02*
X53738566Y-86199057D01*
X53738566Y-86199057D02*
X53657754Y-86279870D01*
X53657754Y-86279870D02*
X53630817Y-86360682D01*
X53630817Y-86360682D02*
X53630817Y-86414557D01*
X53630817Y-86414557D02*
X53657754Y-86495369D01*
X53657754Y-86495369D02*
X53873253Y-86710868D01*
X52741882Y-86118245D02*
X53065131Y-86441494D01*
X52903507Y-86279870D02*
X53469192Y-85714184D01*
X53469192Y-85714184D02*
X53442255Y-85848871D01*
X53442255Y-85848871D02*
X53442255Y-85956621D01*
X53442255Y-85956621D02*
X53469192Y-86037433D01*
X52472508Y-85848871D02*
X52364759Y-85741121D01*
X52364759Y-85741121D02*
X52337821Y-85660309D01*
X52337821Y-85660309D02*
X52337821Y-85606434D01*
X52337821Y-85606434D02*
X52364759Y-85471747D01*
X52364759Y-85471747D02*
X52445571Y-85337060D01*
X52445571Y-85337060D02*
X52661070Y-85121561D01*
X52661070Y-85121561D02*
X52741882Y-85094624D01*
X52741882Y-85094624D02*
X52795757Y-85094624D01*
X52795757Y-85094624D02*
X52876569Y-85121561D01*
X52876569Y-85121561D02*
X52984319Y-85229311D01*
X52984319Y-85229311D02*
X53011256Y-85310123D01*
X53011256Y-85310123D02*
X53011256Y-85363998D01*
X53011256Y-85363998D02*
X52984319Y-85444810D01*
X52984319Y-85444810D02*
X52849632Y-85579497D01*
X52849632Y-85579497D02*
X52768820Y-85606434D01*
X52768820Y-85606434D02*
X52714945Y-85606434D01*
X52714945Y-85606434D02*
X52634133Y-85579497D01*
X52634133Y-85579497D02*
X52526383Y-85471747D01*
X52526383Y-85471747D02*
X52499446Y-85390935D01*
X52499446Y-85390935D02*
X52499446Y-85337060D01*
X52499446Y-85337060D02*
X52526383Y-85256248D01*
X80023564Y-91548431D02*
X80104376Y-91575368D01*
X80104376Y-91575368D02*
X80185188Y-91656180D01*
X80185188Y-91656180D02*
X80239063Y-91763930D01*
X80239063Y-91763930D02*
X80239063Y-91871680D01*
X80239063Y-91871680D02*
X80212126Y-91952492D01*
X80212126Y-91952492D02*
X80131314Y-92087179D01*
X80131314Y-92087179D02*
X80050501Y-92167991D01*
X80050501Y-92167991D02*
X79915814Y-92248803D01*
X79915814Y-92248803D02*
X79835002Y-92275741D01*
X79835002Y-92275741D02*
X79727253Y-92275741D01*
X79727253Y-92275741D02*
X79619503Y-92221866D01*
X79619503Y-92221866D02*
X79565628Y-92167991D01*
X79565628Y-92167991D02*
X79511753Y-92060241D01*
X79511753Y-92060241D02*
X79511753Y-92006367D01*
X79511753Y-92006367D02*
X79700315Y-91817805D01*
X79700315Y-91817805D02*
X79808065Y-91925554D01*
X79215442Y-91817805D02*
X79781127Y-91252119D01*
X79781127Y-91252119D02*
X78892193Y-91494556D01*
X78892193Y-91494556D02*
X79457879Y-90928871D01*
X78622819Y-91225182D02*
X79188505Y-90659497D01*
X79188505Y-90659497D02*
X79053818Y-90524810D01*
X79053818Y-90524810D02*
X78946068Y-90470935D01*
X78946068Y-90470935D02*
X78838319Y-90470935D01*
X78838319Y-90470935D02*
X78757506Y-90497872D01*
X78757506Y-90497872D02*
X78622819Y-90578685D01*
X78622819Y-90578685D02*
X78542007Y-90659497D01*
X78542007Y-90659497D02*
X78461195Y-90794184D01*
X78461195Y-90794184D02*
X78434258Y-90874996D01*
X78434258Y-90874996D02*
X78434258Y-90982746D01*
X78434258Y-90982746D02*
X78488132Y-91090495D01*
X78488132Y-91090495D02*
X78622819Y-91225182D01*
X54412001Y-84170868D02*
X54492814Y-84197805D01*
X54492814Y-84197805D02*
X54573626Y-84278618D01*
X54573626Y-84278618D02*
X54627501Y-84386367D01*
X54627501Y-84386367D02*
X54627501Y-84494117D01*
X54627501Y-84494117D02*
X54600563Y-84574929D01*
X54600563Y-84574929D02*
X54519751Y-84709616D01*
X54519751Y-84709616D02*
X54438939Y-84790428D01*
X54438939Y-84790428D02*
X54304252Y-84871241D01*
X54304252Y-84871241D02*
X54223439Y-84898178D01*
X54223439Y-84898178D02*
X54115690Y-84898178D01*
X54115690Y-84898178D02*
X54007940Y-84844303D01*
X54007940Y-84844303D02*
X53954065Y-84790428D01*
X53954065Y-84790428D02*
X53900191Y-84682679D01*
X53900191Y-84682679D02*
X53900191Y-84628804D01*
X53900191Y-84628804D02*
X54088752Y-84440242D01*
X54088752Y-84440242D02*
X54196502Y-84547992D01*
X53603879Y-84440242D02*
X54169565Y-83874557D01*
X54169565Y-83874557D02*
X53954065Y-83659057D01*
X53954065Y-83659057D02*
X53873253Y-83632120D01*
X53873253Y-83632120D02*
X53819378Y-83632120D01*
X53819378Y-83632120D02*
X53738566Y-83659057D01*
X53738566Y-83659057D02*
X53657754Y-83739870D01*
X53657754Y-83739870D02*
X53630817Y-83820682D01*
X53630817Y-83820682D02*
X53630817Y-83874557D01*
X53630817Y-83874557D02*
X53657754Y-83955369D01*
X53657754Y-83955369D02*
X53873253Y-84170868D01*
X53576942Y-83389683D02*
X53576942Y-83335809D01*
X53576942Y-83335809D02*
X53550004Y-83254996D01*
X53550004Y-83254996D02*
X53415317Y-83120309D01*
X53415317Y-83120309D02*
X53334505Y-83093372D01*
X53334505Y-83093372D02*
X53280630Y-83093372D01*
X53280630Y-83093372D02*
X53199818Y-83120309D01*
X53199818Y-83120309D02*
X53145943Y-83174184D01*
X53145943Y-83174184D02*
X53092069Y-83281934D01*
X53092069Y-83281934D02*
X53092069Y-83928431D01*
X53092069Y-83928431D02*
X52741882Y-83578245D01*
X52957381Y-82662373D02*
X52903507Y-82608499D01*
X52903507Y-82608499D02*
X52822694Y-82581561D01*
X52822694Y-82581561D02*
X52768820Y-82581561D01*
X52768820Y-82581561D02*
X52688007Y-82608499D01*
X52688007Y-82608499D02*
X52553320Y-82689311D01*
X52553320Y-82689311D02*
X52418633Y-82823998D01*
X52418633Y-82823998D02*
X52337821Y-82958685D01*
X52337821Y-82958685D02*
X52310884Y-83039497D01*
X52310884Y-83039497D02*
X52310884Y-83093372D01*
X52310884Y-83093372D02*
X52337821Y-83174184D01*
X52337821Y-83174184D02*
X52391696Y-83228059D01*
X52391696Y-83228059D02*
X52472508Y-83254996D01*
X52472508Y-83254996D02*
X52526383Y-83254996D01*
X52526383Y-83254996D02*
X52607195Y-83228059D01*
X52607195Y-83228059D02*
X52741882Y-83147247D01*
X52741882Y-83147247D02*
X52876569Y-83012560D01*
X52876569Y-83012560D02*
X52957381Y-82877873D01*
X52957381Y-82877873D02*
X52984319Y-82797060D01*
X52984319Y-82797060D02*
X52984319Y-82743186D01*
X52984319Y-82743186D02*
X52957381Y-82662373D01*
X53671348Y-74293710D02*
X54129283Y-74212898D01*
X53994596Y-74616959D02*
X54560282Y-74051274D01*
X54560282Y-74051274D02*
X54344783Y-73835775D01*
X54344783Y-73835775D02*
X54263970Y-73808837D01*
X54263970Y-73808837D02*
X54210096Y-73808837D01*
X54210096Y-73808837D02*
X54129283Y-73835775D01*
X54129283Y-73835775D02*
X54048471Y-73916587D01*
X54048471Y-73916587D02*
X54021534Y-73997399D01*
X54021534Y-73997399D02*
X54021534Y-74051274D01*
X54021534Y-74051274D02*
X54048471Y-74132086D01*
X54048471Y-74132086D02*
X54263970Y-74347585D01*
X53994596Y-73485588D02*
X53536661Y-73943524D01*
X53536661Y-73943524D02*
X53455848Y-73970462D01*
X53455848Y-73970462D02*
X53401974Y-73970462D01*
X53401974Y-73970462D02*
X53321161Y-73943524D01*
X53321161Y-73943524D02*
X53213412Y-73835775D01*
X53213412Y-73835775D02*
X53186474Y-73754962D01*
X53186474Y-73754962D02*
X53186474Y-73701088D01*
X53186474Y-73701088D02*
X53213412Y-73620275D01*
X53213412Y-73620275D02*
X53671348Y-73162340D01*
X52836288Y-73458651D02*
X53401974Y-72892966D01*
X53401974Y-72892966D02*
X52513040Y-73135402D01*
X52513040Y-73135402D02*
X53078725Y-72569717D01*
X80520001Y-89250868D02*
X80600814Y-89277805D01*
X80600814Y-89277805D02*
X80681626Y-89358618D01*
X80681626Y-89358618D02*
X80735501Y-89466367D01*
X80735501Y-89466367D02*
X80735501Y-89574117D01*
X80735501Y-89574117D02*
X80708563Y-89654929D01*
X80708563Y-89654929D02*
X80627751Y-89789616D01*
X80627751Y-89789616D02*
X80546939Y-89870428D01*
X80546939Y-89870428D02*
X80412252Y-89951241D01*
X80412252Y-89951241D02*
X80331439Y-89978178D01*
X80331439Y-89978178D02*
X80223690Y-89978178D01*
X80223690Y-89978178D02*
X80115940Y-89924303D01*
X80115940Y-89924303D02*
X80062065Y-89870428D01*
X80062065Y-89870428D02*
X80008191Y-89762679D01*
X80008191Y-89762679D02*
X80008191Y-89708804D01*
X80008191Y-89708804D02*
X80196752Y-89520242D01*
X80196752Y-89520242D02*
X80304502Y-89627992D01*
X79711879Y-89520242D02*
X80277565Y-88954557D01*
X80277565Y-88954557D02*
X80062065Y-88739057D01*
X80062065Y-88739057D02*
X79981253Y-88712120D01*
X79981253Y-88712120D02*
X79927378Y-88712120D01*
X79927378Y-88712120D02*
X79846566Y-88739057D01*
X79846566Y-88739057D02*
X79765754Y-88819870D01*
X79765754Y-88819870D02*
X79738817Y-88900682D01*
X79738817Y-88900682D02*
X79738817Y-88954557D01*
X79738817Y-88954557D02*
X79765754Y-89035369D01*
X79765754Y-89035369D02*
X79981253Y-89250868D01*
X78849882Y-88658245D02*
X79173131Y-88981494D01*
X79011507Y-88819870D02*
X79577192Y-88254184D01*
X79577192Y-88254184D02*
X79550255Y-88388871D01*
X79550255Y-88388871D02*
X79550255Y-88496621D01*
X79550255Y-88496621D02*
X79577192Y-88577433D01*
X79227006Y-87903998D02*
X78876820Y-87553812D01*
X78876820Y-87553812D02*
X78849882Y-87957873D01*
X78849882Y-87957873D02*
X78769070Y-87877060D01*
X78769070Y-87877060D02*
X78688258Y-87850123D01*
X78688258Y-87850123D02*
X78634383Y-87850123D01*
X78634383Y-87850123D02*
X78553571Y-87877060D01*
X78553571Y-87877060D02*
X78418884Y-88011747D01*
X78418884Y-88011747D02*
X78391946Y-88092560D01*
X78391946Y-88092560D02*
X78391946Y-88146434D01*
X78391946Y-88146434D02*
X78418884Y-88227247D01*
X78418884Y-88227247D02*
X78580508Y-88388871D01*
X78580508Y-88388871D02*
X78661320Y-88415808D01*
X78661320Y-88415808D02*
X78715195Y-88415808D01*
X79996627Y-73741494D02*
X80077439Y-73768431D01*
X80077439Y-73768431D02*
X80158251Y-73849243D01*
X80158251Y-73849243D02*
X80212126Y-73956993D01*
X80212126Y-73956993D02*
X80212126Y-74064742D01*
X80212126Y-74064742D02*
X80185189Y-74145555D01*
X80185189Y-74145555D02*
X80104376Y-74280242D01*
X80104376Y-74280242D02*
X80023564Y-74361054D01*
X80023564Y-74361054D02*
X79888877Y-74441866D01*
X79888877Y-74441866D02*
X79808065Y-74468803D01*
X79808065Y-74468803D02*
X79700315Y-74468803D01*
X79700315Y-74468803D02*
X79592566Y-74414929D01*
X79592566Y-74414929D02*
X79538691Y-74361054D01*
X79538691Y-74361054D02*
X79484816Y-74253304D01*
X79484816Y-74253304D02*
X79484816Y-74199429D01*
X79484816Y-74199429D02*
X79673378Y-74010868D01*
X79673378Y-74010868D02*
X79781128Y-74118617D01*
X79188505Y-74010868D02*
X79754190Y-73445182D01*
X79754190Y-73445182D02*
X79538691Y-73229683D01*
X79538691Y-73229683D02*
X79457879Y-73202746D01*
X79457879Y-73202746D02*
X79404004Y-73202746D01*
X79404004Y-73202746D02*
X79323192Y-73229683D01*
X79323192Y-73229683D02*
X79242380Y-73310495D01*
X79242380Y-73310495D02*
X79215442Y-73391307D01*
X79215442Y-73391307D02*
X79215442Y-73445182D01*
X79215442Y-73445182D02*
X79242380Y-73525994D01*
X79242380Y-73525994D02*
X79457879Y-73741494D01*
X78865256Y-73041121D02*
X78946068Y-73068059D01*
X78946068Y-73068059D02*
X78999943Y-73068059D01*
X78999943Y-73068059D02*
X79080755Y-73041121D01*
X79080755Y-73041121D02*
X79107693Y-73014184D01*
X79107693Y-73014184D02*
X79134630Y-72933372D01*
X79134630Y-72933372D02*
X79134630Y-72879497D01*
X79134630Y-72879497D02*
X79107693Y-72798685D01*
X79107693Y-72798685D02*
X78999943Y-72690935D01*
X78999943Y-72690935D02*
X78919131Y-72663998D01*
X78919131Y-72663998D02*
X78865256Y-72663998D01*
X78865256Y-72663998D02*
X78784444Y-72690935D01*
X78784444Y-72690935D02*
X78757506Y-72717872D01*
X78757506Y-72717872D02*
X78730569Y-72798685D01*
X78730569Y-72798685D02*
X78730569Y-72852559D01*
X78730569Y-72852559D02*
X78757506Y-72933372D01*
X78757506Y-72933372D02*
X78865256Y-73041121D01*
X78865256Y-73041121D02*
X78892193Y-73121933D01*
X78892193Y-73121933D02*
X78892193Y-73175808D01*
X78892193Y-73175808D02*
X78865256Y-73256620D01*
X78865256Y-73256620D02*
X78757506Y-73364370D01*
X78757506Y-73364370D02*
X78676694Y-73391307D01*
X78676694Y-73391307D02*
X78622819Y-73391307D01*
X78622819Y-73391307D02*
X78542007Y-73364370D01*
X78542007Y-73364370D02*
X78434258Y-73256620D01*
X78434258Y-73256620D02*
X78407320Y-73175808D01*
X78407320Y-73175808D02*
X78407320Y-73121933D01*
X78407320Y-73121933D02*
X78434258Y-73041121D01*
X78434258Y-73041121D02*
X78542007Y-72933372D01*
X78542007Y-72933372D02*
X78622819Y-72906434D01*
X78622819Y-72906434D02*
X78676694Y-72906434D01*
X78676694Y-72906434D02*
X78757506Y-72933372D01*
X54412001Y-96870868D02*
X54492814Y-96897805D01*
X54492814Y-96897805D02*
X54573626Y-96978618D01*
X54573626Y-96978618D02*
X54627501Y-97086367D01*
X54627501Y-97086367D02*
X54627501Y-97194117D01*
X54627501Y-97194117D02*
X54600563Y-97274929D01*
X54600563Y-97274929D02*
X54519751Y-97409616D01*
X54519751Y-97409616D02*
X54438939Y-97490428D01*
X54438939Y-97490428D02*
X54304252Y-97571241D01*
X54304252Y-97571241D02*
X54223439Y-97598178D01*
X54223439Y-97598178D02*
X54115690Y-97598178D01*
X54115690Y-97598178D02*
X54007940Y-97544303D01*
X54007940Y-97544303D02*
X53954065Y-97490428D01*
X53954065Y-97490428D02*
X53900191Y-97382679D01*
X53900191Y-97382679D02*
X53900191Y-97328804D01*
X53900191Y-97328804D02*
X54088752Y-97140242D01*
X54088752Y-97140242D02*
X54196502Y-97247992D01*
X53603879Y-97140242D02*
X54169565Y-96574557D01*
X54169565Y-96574557D02*
X53954065Y-96359057D01*
X53954065Y-96359057D02*
X53873253Y-96332120D01*
X53873253Y-96332120D02*
X53819378Y-96332120D01*
X53819378Y-96332120D02*
X53738566Y-96359057D01*
X53738566Y-96359057D02*
X53657754Y-96439870D01*
X53657754Y-96439870D02*
X53630817Y-96520682D01*
X53630817Y-96520682D02*
X53630817Y-96574557D01*
X53630817Y-96574557D02*
X53657754Y-96655369D01*
X53657754Y-96655369D02*
X53873253Y-96870868D01*
X52741882Y-96278245D02*
X53065131Y-96601494D01*
X52903507Y-96439870D02*
X53469192Y-95874184D01*
X53469192Y-95874184D02*
X53442255Y-96008871D01*
X53442255Y-96008871D02*
X53442255Y-96116621D01*
X53442255Y-96116621D02*
X53469192Y-96197433D01*
X52822694Y-95227686D02*
X52930444Y-95335436D01*
X52930444Y-95335436D02*
X52957381Y-95416248D01*
X52957381Y-95416248D02*
X52957381Y-95470123D01*
X52957381Y-95470123D02*
X52930444Y-95604810D01*
X52930444Y-95604810D02*
X52849632Y-95739497D01*
X52849632Y-95739497D02*
X52634133Y-95954996D01*
X52634133Y-95954996D02*
X52553320Y-95981934D01*
X52553320Y-95981934D02*
X52499446Y-95981934D01*
X52499446Y-95981934D02*
X52418633Y-95954996D01*
X52418633Y-95954996D02*
X52310884Y-95847247D01*
X52310884Y-95847247D02*
X52283946Y-95766434D01*
X52283946Y-95766434D02*
X52283946Y-95712560D01*
X52283946Y-95712560D02*
X52310884Y-95631747D01*
X52310884Y-95631747D02*
X52445571Y-95497060D01*
X52445571Y-95497060D02*
X52526383Y-95470123D01*
X52526383Y-95470123D02*
X52580258Y-95470123D01*
X52580258Y-95470123D02*
X52661070Y-95497060D01*
X52661070Y-95497060D02*
X52768820Y-95604810D01*
X52768820Y-95604810D02*
X52795757Y-95685622D01*
X52795757Y-95685622D02*
X52795757Y-95739497D01*
X52795757Y-95739497D02*
X52768820Y-95820309D01*
X54412001Y-94330868D02*
X54492814Y-94357805D01*
X54492814Y-94357805D02*
X54573626Y-94438618D01*
X54573626Y-94438618D02*
X54627501Y-94546367D01*
X54627501Y-94546367D02*
X54627501Y-94654117D01*
X54627501Y-94654117D02*
X54600563Y-94734929D01*
X54600563Y-94734929D02*
X54519751Y-94869616D01*
X54519751Y-94869616D02*
X54438939Y-94950428D01*
X54438939Y-94950428D02*
X54304252Y-95031241D01*
X54304252Y-95031241D02*
X54223439Y-95058178D01*
X54223439Y-95058178D02*
X54115690Y-95058178D01*
X54115690Y-95058178D02*
X54007940Y-95004303D01*
X54007940Y-95004303D02*
X53954065Y-94950428D01*
X53954065Y-94950428D02*
X53900191Y-94842679D01*
X53900191Y-94842679D02*
X53900191Y-94788804D01*
X53900191Y-94788804D02*
X54088752Y-94600242D01*
X54088752Y-94600242D02*
X54196502Y-94707992D01*
X53603879Y-94600242D02*
X54169565Y-94034557D01*
X54169565Y-94034557D02*
X53954065Y-93819057D01*
X53954065Y-93819057D02*
X53873253Y-93792120D01*
X53873253Y-93792120D02*
X53819378Y-93792120D01*
X53819378Y-93792120D02*
X53738566Y-93819057D01*
X53738566Y-93819057D02*
X53657754Y-93899870D01*
X53657754Y-93899870D02*
X53630817Y-93980682D01*
X53630817Y-93980682D02*
X53630817Y-94034557D01*
X53630817Y-94034557D02*
X53657754Y-94115369D01*
X53657754Y-94115369D02*
X53873253Y-94330868D01*
X52741882Y-93738245D02*
X53065131Y-94061494D01*
X52903507Y-93899870D02*
X53469192Y-93334184D01*
X53469192Y-93334184D02*
X53442255Y-93468871D01*
X53442255Y-93468871D02*
X53442255Y-93576621D01*
X53442255Y-93576621D02*
X53469192Y-93657433D01*
X53119006Y-92983998D02*
X52741882Y-92606874D01*
X52741882Y-92606874D02*
X52418633Y-93414996D01*
X54412001Y-89250868D02*
X54492814Y-89277805D01*
X54492814Y-89277805D02*
X54573626Y-89358618D01*
X54573626Y-89358618D02*
X54627501Y-89466367D01*
X54627501Y-89466367D02*
X54627501Y-89574117D01*
X54627501Y-89574117D02*
X54600563Y-89654929D01*
X54600563Y-89654929D02*
X54519751Y-89789616D01*
X54519751Y-89789616D02*
X54438939Y-89870428D01*
X54438939Y-89870428D02*
X54304252Y-89951241D01*
X54304252Y-89951241D02*
X54223439Y-89978178D01*
X54223439Y-89978178D02*
X54115690Y-89978178D01*
X54115690Y-89978178D02*
X54007940Y-89924303D01*
X54007940Y-89924303D02*
X53954065Y-89870428D01*
X53954065Y-89870428D02*
X53900191Y-89762679D01*
X53900191Y-89762679D02*
X53900191Y-89708804D01*
X53900191Y-89708804D02*
X54088752Y-89520242D01*
X54088752Y-89520242D02*
X54196502Y-89627992D01*
X53603879Y-89520242D02*
X54169565Y-88954557D01*
X54169565Y-88954557D02*
X53954065Y-88739057D01*
X53954065Y-88739057D02*
X53873253Y-88712120D01*
X53873253Y-88712120D02*
X53819378Y-88712120D01*
X53819378Y-88712120D02*
X53738566Y-88739057D01*
X53738566Y-88739057D02*
X53657754Y-88819870D01*
X53657754Y-88819870D02*
X53630817Y-88900682D01*
X53630817Y-88900682D02*
X53630817Y-88954557D01*
X53630817Y-88954557D02*
X53657754Y-89035369D01*
X53657754Y-89035369D02*
X53873253Y-89250868D01*
X52741882Y-88658245D02*
X53065131Y-88981494D01*
X52903507Y-88819870D02*
X53469192Y-88254184D01*
X53469192Y-88254184D02*
X53442255Y-88388871D01*
X53442255Y-88388871D02*
X53442255Y-88496621D01*
X53442255Y-88496621D02*
X53469192Y-88577433D01*
X52741882Y-88011747D02*
X52822694Y-88038685D01*
X52822694Y-88038685D02*
X52876569Y-88038685D01*
X52876569Y-88038685D02*
X52957381Y-88011747D01*
X52957381Y-88011747D02*
X52984319Y-87984810D01*
X52984319Y-87984810D02*
X53011256Y-87903998D01*
X53011256Y-87903998D02*
X53011256Y-87850123D01*
X53011256Y-87850123D02*
X52984319Y-87769311D01*
X52984319Y-87769311D02*
X52876569Y-87661561D01*
X52876569Y-87661561D02*
X52795757Y-87634624D01*
X52795757Y-87634624D02*
X52741882Y-87634624D01*
X52741882Y-87634624D02*
X52661070Y-87661561D01*
X52661070Y-87661561D02*
X52634133Y-87688499D01*
X52634133Y-87688499D02*
X52607195Y-87769311D01*
X52607195Y-87769311D02*
X52607195Y-87823186D01*
X52607195Y-87823186D02*
X52634133Y-87903998D01*
X52634133Y-87903998D02*
X52741882Y-88011747D01*
X52741882Y-88011747D02*
X52768820Y-88092560D01*
X52768820Y-88092560D02*
X52768820Y-88146434D01*
X52768820Y-88146434D02*
X52741882Y-88227247D01*
X52741882Y-88227247D02*
X52634133Y-88334996D01*
X52634133Y-88334996D02*
X52553320Y-88361934D01*
X52553320Y-88361934D02*
X52499446Y-88361934D01*
X52499446Y-88361934D02*
X52418633Y-88334996D01*
X52418633Y-88334996D02*
X52310884Y-88227247D01*
X52310884Y-88227247D02*
X52283946Y-88146434D01*
X52283946Y-88146434D02*
X52283946Y-88092560D01*
X52283946Y-88092560D02*
X52310884Y-88011747D01*
X52310884Y-88011747D02*
X52418633Y-87903998D01*
X52418633Y-87903998D02*
X52499446Y-87877060D01*
X52499446Y-87877060D02*
X52553320Y-87877060D01*
X52553320Y-87877060D02*
X52634133Y-87903998D01*
D12*
%TO.C,U1*%
X56010000Y-46850000D02*
X77010000Y-46850000D01*
X56010000Y-47150000D02*
X56010000Y-46850000D01*
X56010000Y-49650000D02*
X56010000Y-49250000D01*
X56010000Y-52250000D02*
X56010000Y-51850000D01*
X56010000Y-54750000D02*
X56010000Y-54350000D01*
X56010000Y-57350000D02*
X56010000Y-56950000D01*
X56010000Y-59850000D02*
X56010000Y-59450000D01*
X56010000Y-62350000D02*
X56010000Y-61950000D01*
X56010000Y-64950000D02*
X56010000Y-64550000D01*
X56010000Y-67450000D02*
X56010000Y-67050000D01*
X56010000Y-70050000D02*
X56010000Y-69650000D01*
X56010000Y-72550000D02*
X56010000Y-72150000D01*
X56010000Y-75050000D02*
X56010000Y-74650000D01*
X56010000Y-77650000D02*
X56010000Y-77250000D01*
X56010000Y-80150000D02*
X56010000Y-79750000D01*
X56010000Y-82750000D02*
X56010000Y-82350000D01*
X56010000Y-85250000D02*
X56010000Y-84850000D01*
X56010000Y-87850000D02*
X56010000Y-87450000D01*
X56010000Y-90350000D02*
X56010000Y-89950000D01*
X56010000Y-92850000D02*
X56010000Y-92450000D01*
X56010000Y-95450000D02*
X56010000Y-95050000D01*
X62810000Y-97850000D02*
X56010000Y-97850000D01*
X65010000Y-97850000D02*
X65410000Y-97850000D01*
X67610000Y-97850000D02*
X68010000Y-97850000D01*
X74003000Y-46850000D02*
X74003000Y-49517000D01*
X74003000Y-49517000D02*
X77010000Y-49517000D01*
X77010000Y-47150000D02*
X77010000Y-46850000D01*
X77010000Y-49650000D02*
X77010000Y-49250000D01*
X77010000Y-52250000D02*
X77010000Y-51850000D01*
X77010000Y-54750000D02*
X77010000Y-54350000D01*
X77010000Y-57350000D02*
X77010000Y-56950000D01*
X77010000Y-59850000D02*
X77010000Y-59450000D01*
X77010000Y-62350000D02*
X77010000Y-61950000D01*
X77010000Y-64950000D02*
X77010000Y-64550000D01*
X77010000Y-67450000D02*
X77010000Y-67050000D01*
X77010000Y-70050000D02*
X77010000Y-69650000D01*
X77010000Y-72550000D02*
X77010000Y-72150000D01*
X77010000Y-75050000D02*
X77010000Y-74650000D01*
X77010000Y-77650000D02*
X77010000Y-77250000D01*
X77010000Y-80150000D02*
X77010000Y-79750000D01*
X77010000Y-82750000D02*
X77010000Y-82350000D01*
X77010000Y-85250000D02*
X77010000Y-84850000D01*
X77010000Y-87850000D02*
X77010000Y-87450000D01*
X77010000Y-90350000D02*
X77010000Y-89950000D01*
X77010000Y-92850000D02*
X77010000Y-92450000D01*
X77010000Y-95450000D02*
X77010000Y-95050000D01*
X77010000Y-97850000D02*
X70210000Y-97850000D01*
%TD*%
M02*
