%TF.GenerationSoftware,KiCad,Pcbnew,8.0.3*%
%TF.CreationDate,2024-08-31T16:39:54+01:00*%
%TF.ProjectId,macropad,6d616372-6f70-4616-942e-6b696361645f,rev?*%
%TF.SameCoordinates,Original*%
%TF.FileFunction,Copper,L2,Bot*%
%TF.FilePolarity,Positive*%
%FSLAX46Y46*%
G04 Gerber Fmt 4.6, Leading zero omitted, Abs format (unit mm)*
G04 Created by KiCad (PCBNEW 8.0.3) date 2024-08-31 16:39:54*
%MOMM*%
%LPD*%
G01*
G04 APERTURE LIST*
%TA.AperFunction,ComponentPad*%
%ADD10C,2.200000*%
%TD*%
%TA.AperFunction,ComponentPad*%
%ADD11R,1.600000X1.600000*%
%TD*%
%TA.AperFunction,ComponentPad*%
%ADD12O,1.600000X1.600000*%
%TD*%
%TA.AperFunction,ComponentPad*%
%ADD13O,1.700000X1.700000*%
%TD*%
%TA.AperFunction,SMDPad,CuDef*%
%ADD14R,3.500000X1.700000*%
%TD*%
%TA.AperFunction,ComponentPad*%
%ADD15R,1.700000X1.700000*%
%TD*%
%TA.AperFunction,Conductor*%
%ADD16C,0.200000*%
%TD*%
G04 APERTURE END LIST*
D10*
%TO.P,SW5,1,1*%
%TO.N,Col1*%
X69050000Y-69050000D03*
%TO.P,SW5,2,2*%
%TO.N,Net-(D5-A)*%
X62700000Y-71590000D03*
%TD*%
D11*
%TO.P,D3,1,K*%
%TO.N,Row0*%
X89320000Y-63900000D03*
D12*
%TO.P,D3,2,A*%
%TO.N,Net-(D3-A)*%
X81700000Y-63900000D03*
%TD*%
D10*
%TO.P,SW2,1,1*%
%TO.N,Col1*%
X69050000Y-50000000D03*
%TO.P,SW2,2,2*%
%TO.N,Net-(D2-A)*%
X62700000Y-52540000D03*
%TD*%
D11*
%TO.P,D4,1,K*%
%TO.N,Row1*%
X51160000Y-83100000D03*
D12*
%TO.P,D4,2,A*%
%TO.N,Net-(D4-A)*%
X43540000Y-83100000D03*
%TD*%
D10*
%TO.P,SW6,1,1*%
%TO.N,Col2*%
X88100000Y-69050000D03*
%TO.P,SW6,2,2*%
%TO.N,Net-(D6-A)*%
X81750000Y-71590000D03*
%TD*%
%TO.P,SW8,1,1*%
%TO.N,Col1*%
X69050000Y-88100000D03*
%TO.P,SW8,2,2*%
%TO.N,Net-(D8-A)*%
X62700000Y-90640000D03*
%TD*%
%TO.P,SW9,1,1*%
%TO.N,Col2*%
X88100000Y-88100000D03*
%TO.P,SW9,2,2*%
%TO.N,Net-(D9-A)*%
X81750000Y-90640000D03*
%TD*%
%TO.P,SW7,1,1*%
%TO.N,Col0*%
X50000000Y-88100000D03*
%TO.P,SW7,2,2*%
%TO.N,Net-(D7-A)*%
X43650000Y-90640000D03*
%TD*%
D11*
%TO.P,D7,1,K*%
%TO.N,Row2*%
X51260000Y-101500000D03*
D12*
%TO.P,D7,2,A*%
%TO.N,Net-(D7-A)*%
X43640000Y-101500000D03*
%TD*%
D11*
%TO.P,D6,1,K*%
%TO.N,Row1*%
X89260000Y-83100000D03*
D12*
%TO.P,D6,2,A*%
%TO.N,Net-(D6-A)*%
X81640000Y-83100000D03*
%TD*%
D11*
%TO.P,D2,1,K*%
%TO.N,Row0*%
X70270000Y-63900000D03*
D12*
%TO.P,D2,2,A*%
%TO.N,Net-(D2-A)*%
X62650000Y-63900000D03*
%TD*%
D11*
%TO.P,D9,1,K*%
%TO.N,Row2*%
X89570000Y-101500000D03*
D12*
%TO.P,D9,2,A*%
%TO.N,Net-(D9-A)*%
X81950000Y-101500000D03*
%TD*%
D10*
%TO.P,SW1,1,1*%
%TO.N,Col0*%
X50000000Y-50000000D03*
%TO.P,SW1,2,2*%
%TO.N,Net-(D1-A)*%
X43650000Y-52540000D03*
%TD*%
%TO.P,SW4,1,1*%
%TO.N,Col0*%
X50000000Y-69050000D03*
%TO.P,SW4,2,2*%
%TO.N,Net-(D4-A)*%
X43650000Y-71590000D03*
%TD*%
D11*
%TO.P,D5,1,K*%
%TO.N,Row1*%
X70210000Y-83100000D03*
D12*
%TO.P,D5,2,A*%
%TO.N,Net-(D5-A)*%
X62590000Y-83100000D03*
%TD*%
D11*
%TO.P,D8,1,K*%
%TO.N,Row2*%
X70210000Y-101700000D03*
D12*
%TO.P,D8,2,A*%
%TO.N,Net-(D8-A)*%
X62590000Y-101700000D03*
%TD*%
D10*
%TO.P,SW3,1,1*%
%TO.N,Col2*%
X88100000Y-50000000D03*
%TO.P,SW3,2,2*%
%TO.N,Net-(D3-A)*%
X81750000Y-52540000D03*
%TD*%
D11*
%TO.P,D1,1,K*%
%TO.N,Row0*%
X51220000Y-63900000D03*
D12*
%TO.P,D1,2,A*%
%TO.N,Net-(D1-A)*%
X43600000Y-63900000D03*
%TD*%
D13*
%TO.P,U1,1,GPIO0*%
%TO.N,unconnected-(U1-GPIO0-Pad1)*%
X75400000Y-48220000D03*
D14*
X76300000Y-48220000D03*
D13*
%TO.P,U1,2,GPIO1*%
%TO.N,unconnected-(U1-GPIO1-Pad2)*%
X75400000Y-50760000D03*
D14*
X76300000Y-50760000D03*
D15*
%TO.P,U1,3,GND*%
%TO.N,unconnected-(U1-GND-Pad3)*%
X75400000Y-53300000D03*
D14*
X76300000Y-53300000D03*
D13*
%TO.P,U1,4,GPIO2*%
%TO.N,unconnected-(U1-GPIO2-Pad4)*%
X75400000Y-55840000D03*
D14*
X76300000Y-55840000D03*
D13*
%TO.P,U1,5,GPIO3*%
%TO.N,unconnected-(U1-GPIO3-Pad5)*%
X75400000Y-58380000D03*
D14*
X76300000Y-58380000D03*
D13*
%TO.P,U1,6,GPIO4*%
%TO.N,unconnected-(U1-GPIO4-Pad6)*%
X75400000Y-60920000D03*
D14*
X76300000Y-60920000D03*
D13*
%TO.P,U1,7,GPIO5*%
%TO.N,unconnected-(U1-GPIO5-Pad7)*%
X75400000Y-63460000D03*
D14*
X76300000Y-63460000D03*
D15*
%TO.P,U1,8,GND*%
%TO.N,unconnected-(U1-GND-Pad8)*%
X75400000Y-66000000D03*
D14*
X76300000Y-66000000D03*
D13*
%TO.P,U1,9,GPIO6*%
%TO.N,unconnected-(U1-GPIO6-Pad9)*%
X75400000Y-68540000D03*
D14*
X76300000Y-68540000D03*
D13*
%TO.P,U1,10,GPIO7*%
%TO.N,Col0*%
X75400000Y-71080000D03*
D14*
X76300000Y-71080000D03*
D13*
%TO.P,U1,11,GPIO8*%
%TO.N,Col1*%
X75400000Y-73620000D03*
D14*
X76300000Y-73620000D03*
D13*
%TO.P,U1,12,GPIO9*%
%TO.N,Col2*%
X75400000Y-76160000D03*
D14*
X76300000Y-76160000D03*
D15*
%TO.P,U1,13,GND*%
%TO.N,unconnected-(U1-GND-Pad13)*%
X75400000Y-78700000D03*
D14*
X76300000Y-78700000D03*
D13*
%TO.P,U1,14,GPIO10*%
%TO.N,Row0*%
X75400000Y-81240000D03*
D14*
X76300000Y-81240000D03*
D13*
%TO.P,U1,15,GPIO11*%
%TO.N,Row1*%
X75400000Y-83780000D03*
D14*
X76300000Y-83780000D03*
D13*
%TO.P,U1,16,GPIO12*%
%TO.N,Row2*%
X75400000Y-86320000D03*
D14*
X76300000Y-86320000D03*
D13*
%TO.P,U1,17,GPIO13*%
%TO.N,unconnected-(U1-GPIO13-Pad17)*%
X75400000Y-88860000D03*
D14*
X76300000Y-88860000D03*
D15*
%TO.P,U1,18,GND*%
%TO.N,unconnected-(U1-GND-Pad18)*%
X75400000Y-91400000D03*
D14*
X76300000Y-91400000D03*
D13*
%TO.P,U1,19,GPIO14*%
%TO.N,unconnected-(U1-GPIO14-Pad19)*%
X75400000Y-93940000D03*
D14*
X76300000Y-93940000D03*
D13*
%TO.P,U1,20,GPIO15*%
%TO.N,unconnected-(U1-GPIO15-Pad20)*%
X75400000Y-96480000D03*
D14*
X76300000Y-96480000D03*
D13*
%TO.P,U1,21,GPIO16*%
%TO.N,unconnected-(U1-GPIO16-Pad21)*%
X57620000Y-96480000D03*
D14*
X56720000Y-96480000D03*
D13*
%TO.P,U1,22,GPIO17*%
%TO.N,unconnected-(U1-GPIO17-Pad22)*%
X57620000Y-93940000D03*
D14*
X56720000Y-93940000D03*
D15*
%TO.P,U1,23,GND*%
%TO.N,unconnected-(U1-GND-Pad23)*%
X57620000Y-91400000D03*
D14*
X56720000Y-91400000D03*
D13*
%TO.P,U1,24,GPIO18*%
%TO.N,unconnected-(U1-GPIO18-Pad24)*%
X57620000Y-88860000D03*
D14*
X56720000Y-88860000D03*
D13*
%TO.P,U1,25,GPIO19*%
%TO.N,unconnected-(U1-GPIO19-Pad25)*%
X57620000Y-86320000D03*
D14*
X56720000Y-86320000D03*
D13*
%TO.P,U1,26,GPIO20*%
%TO.N,unconnected-(U1-GPIO20-Pad26)*%
X57620000Y-83780000D03*
D14*
X56720000Y-83780000D03*
D13*
%TO.P,U1,27,GPIO21*%
%TO.N,unconnected-(U1-GPIO21-Pad27)*%
X57620000Y-81240000D03*
D14*
X56720000Y-81240000D03*
D15*
%TO.P,U1,28,GND*%
%TO.N,unconnected-(U1-GND-Pad28)*%
X57620000Y-78700000D03*
D14*
X56720000Y-78700000D03*
D13*
%TO.P,U1,29,GPIO22*%
%TO.N,unconnected-(U1-GPIO22-Pad29)*%
X57620000Y-76160000D03*
D14*
X56720000Y-76160000D03*
D13*
%TO.P,U1,30,RUN*%
%TO.N,unconnected-(U1-RUN-Pad30)*%
X57620000Y-73620000D03*
D14*
X56720000Y-73620000D03*
D13*
%TO.P,U1,31,GPIO26_ADC0*%
%TO.N,unconnected-(U1-GPIO26_ADC0-Pad31)*%
X57620000Y-71080000D03*
D14*
X56720000Y-71080000D03*
D13*
%TO.P,U1,32,GPIO27_ADC1*%
%TO.N,unconnected-(U1-GPIO27_ADC1-Pad32)*%
X57620000Y-68540000D03*
D14*
X56720000Y-68540000D03*
D15*
%TO.P,U1,33,AGND*%
%TO.N,unconnected-(U1-AGND-Pad33)*%
X57620000Y-66000000D03*
D14*
X56720000Y-66000000D03*
D13*
%TO.P,U1,34,GPIO28_ADC2*%
%TO.N,unconnected-(U1-GPIO28_ADC2-Pad34)*%
X57620000Y-63460000D03*
D14*
X56720000Y-63460000D03*
D13*
%TO.P,U1,35,ADC_VREF*%
%TO.N,unconnected-(U1-ADC_VREF-Pad35)*%
X57620000Y-60920000D03*
D14*
X56720000Y-60920000D03*
D13*
%TO.P,U1,36,3V3*%
%TO.N,unconnected-(U1-3V3-Pad36)*%
X57620000Y-58380000D03*
D14*
X56720000Y-58380000D03*
D13*
%TO.P,U1,37,3V3_EN*%
%TO.N,unconnected-(U1-3V3_EN-Pad37)*%
X57620000Y-55840000D03*
D14*
X56720000Y-55840000D03*
D15*
%TO.P,U1,38,GND*%
%TO.N,unconnected-(U1-GND-Pad38)*%
X57620000Y-53300000D03*
D14*
X56720000Y-53300000D03*
D13*
%TO.P,U1,39,VSYS*%
%TO.N,unconnected-(U1-VSYS-Pad39)*%
X57620000Y-50760000D03*
D14*
X56720000Y-50760000D03*
D13*
%TO.P,U1,40,VBUS*%
%TO.N,unconnected-(U1-VBUS-Pad40)*%
X57620000Y-48220000D03*
D14*
X56720000Y-48220000D03*
%TD*%
D16*
%TO.N,Row2*%
X68210000Y-99700000D02*
X70210000Y-101700000D01*
X53060000Y-99700000D02*
X68210000Y-99700000D01*
X51260000Y-101500000D02*
X53060000Y-99700000D01*
X70210000Y-91510000D02*
X75400000Y-86320000D01*
X70210000Y-101700000D02*
X70210000Y-91510000D01*
%TO.N,Col1*%
X72700000Y-76320000D02*
X75400000Y-73620000D01*
X72700000Y-84450000D02*
X72700000Y-76320000D01*
X69050000Y-88100000D02*
X72700000Y-84450000D01*
%TO.N,Row2*%
X72110000Y-99800000D02*
X70210000Y-101700000D01*
X87670000Y-99800000D02*
X72110000Y-99800000D01*
X89570000Y-101700000D02*
X87670000Y-99800000D01*
%TO.N,Col1*%
X69050000Y-69050000D02*
X70830000Y-69050000D01*
X70830000Y-69050000D02*
X75400000Y-73620000D01*
%TO.N,Col0*%
X72600000Y-68280000D02*
X75400000Y-71080000D01*
X72600000Y-48700000D02*
X72600000Y-68280000D01*
X53600000Y-46400000D02*
X70300000Y-46400000D01*
X50000000Y-50000000D02*
X53600000Y-46400000D01*
X70300000Y-46400000D02*
X72600000Y-48700000D01*
%TD*%
M02*
